<?xml version="1.0" encoding="UTF-8"?>
<svg id="Layer_1" data-name="Layer 1" xmlns="http://www.w3.org/2000/svg" viewBox="0 0 233.41 64">
  <defs>
    <style>
      .cls-1 {
        fill: #ffd01b;
      }

      .cls-2 {
        fill: #00734b;
      }

      .cls-3 {
        fill: #00662b;
      }
    </style>
  </defs>
  <path class="cls-3" d="M137.22,32.78c4.9-1.09,8.86-5.44,8.86-11.89s-4.9-13.21-15.15-13.21h-29.37l-.17,32.29,7.36,19.54h23.11c10.18,0,15.23-6.53,15.23-14.06,0-6.53-4.35-11.81-9.87-12.67ZM114.92,18.79h12.98c2.72,0,4.58,1.86,4.58,4.43s-1.86,4.51-4.58,4.51h-12.98v-8.94ZM128.37,48.4h-13.44v-9.64h13.44c3.26,0,5.13,2.25,5.13,4.9,0,2.8-1.94,4.74-5.13,4.74Z"/>
  <path class="cls-1" d="M89.47,59.51l-2.43-7.85h-21.52l-2.51,7.85h-14.53L67.84,7.68h16.78l19.37,51.83h-14.53ZM76.24,18.41l-7.23,21.58h14.53l-7.3-21.58Z"/>
  <path class="cls-3" d="M189.55,41.95c.33-28.22-38.79-27-39.16-1.24-.17,19.23,22.06,24.67,35.5,15.36l-3.25-8.77c-6.23,5.61-17.92,5.54-19.82-2.78h26.73v-2.56ZM162.66,36.74c1.33-8.76,14.48-8.53,15.46,0h-15.46Z"/>
  <path class="cls-2" d="M177,50.46s0,0,.01,0c0,0,0,0-.01,0h0Z"/>
  <path class="cls-3" d="M219.42,57.16c-3.18,4.21-11.88,5.27-16.94,1.7-4.59-3.24-4.45-10.08-4.42-10.88v-15.59h-6.22v-10.41h6.22v-10.14h11.89v10.14h7.62v10.41h-7.62v13.68c0,5.69,5.87,4.74,6.37,2.88h0s0,0,0,0l3.09,8.22Z"/>
  <polygon class="cls-1" points="59 7.69 19.06 7.68 19.06 25.44 30.98 25.44 30.98 18.83 44.51 18.83 29.29 59.51 43.78 59.51 59 18.82 59 7.69"/>
</svg>