<svg xmlns="http://www.w3.org/2000/svg" width="118" height="16" fill="none"><g clip-path="url(#a)"><path fill="#FFC736" d="m13.238 15.98 3.468-1.879L9.006.019l-3.47 1.976.574 1.019L0 14.101l3.469 1.88 4.868-8.762zM35.178.051H30.85v3.122L26.46 7.697l-4.455-4.524V.051h-4.328v15.93h4.328V9.258l4.455 4.397 4.391-4.397v6.723h4.328z"/><path fill="#FFC736" fill-rule="evenodd" d="M44.68 15.98a8.2 8.2 0 0 1-3.15-.605 8.7 8.7 0 0 1-2.546-1.72 8.7 8.7 0 0 1-1.718-2.549 8.2 8.2 0 0 1-.605-3.154q0-1.625.605-3.058a8.2 8.2 0 0 1 1.718-2.549A8.2 8.2 0 0 1 41.53.656 7.8 7.8 0 0 1 44.68.02q1.623 0 3.055.637a7.7 7.7 0 0 1 2.546 1.689 7.75 7.75 0 0 1 1.686 2.549q.637 1.433.637 3.058a7.8 7.8 0 0 1-.637 3.154 8.2 8.2 0 0 1-1.686 2.549 8.2 8.2 0 0 1-2.546 1.72 7.8 7.8 0 0 1-3.055.606m0-11.692q-.764 0-1.464.319a3.7 3.7 0 0 0-1.177.796q-.51.479-.827 1.147-.287.67-.287 1.402 0 .765.287 1.466.318.669.827 1.179.51.51 1.177.828.7.286 1.464.286.732 0 1.4-.286a3.8 3.8 0 0 0 1.146-.828q.51-.51.795-1.18.32-.7.319-1.465 0-.733-.319-1.402a3.4 3.4 0 0 0-.795-1.147q-.477-.51-1.146-.796a3.2 3.2 0 0 0-1.4-.319" clip-rule="evenodd"/><path fill="#FFC736" d="M69.743.051h-4.2v7.614L58.033.147V.05h-4.296v15.93h4.296V6.168l7.51 7.519v2.294h4.2zM10.881 11.998l-2.48 2.39-2.48-2.39z"/><path fill="#fff" d="M84.805 5.977h1.496V15.98H73.413v-5.798h-1.91V5.977h1.91V.05h11.392v5.926m-7.191-1.625v1.625h2.895V4.352zm4.39 7.423v-1.593h-4.39v1.593zM94.088 11.775h8.687v4.205H89.761V4.352h-2.005V.051h13.524v4.301h-7.192v1.625h5.282v4.173h-5.282zM118 .051v4.205h-5.028V15.98h-4.264V4.256h-5.027V.051H118"/></g><defs><clipPath id="a"><path fill="#fff" d="M0 .02h118v15.96H0z"/></clipPath></defs></svg>