<svg width="56" height="28" viewBox="0 0 56 28" fill="none" xmlns="http://www.w3.org/2000/svg">
<g clip-path="url(#clip0_38_546)">
<path d="M2.17301 16.8563C5.91041 14.9144 9.93894 14.9144 13.6763 16.8563C14.2722 13.9394 14.8612 11.0226 15.457 8.09772C10.5618 5.55959 5.28751 5.55959 0.392334 8.10578C1.45533 9.16938 2.43707 10.3377 3.33079 11.5947C2.85008 13.3271 2.46415 15.0917 2.17301 16.8563Z" fill="#0E5404"/>
<path d="M1.8687 17.1948L1.92963 16.8161C2.214 15.0676 2.59993 13.3272 3.0671 11.6351C2.18692 10.4023 1.22549 9.26618 0.20989 8.25898L0 8.04949L0.250514 7.92057C2.70826 6.63942 5.26756 5.99481 7.84718 5.99481C10.4336 5.99481 12.9861 6.63942 15.4438 7.92057L15.5725 7.98503L13.7173 17.1384L13.5345 17.0417C9.81743 15.1079 5.88369 15.1079 2.16661 17.0417L1.8687 17.1948ZM7.84718 15.1965C9.76327 15.1965 11.659 15.6639 13.4804 16.5744L15.1798 8.2187C10.42 5.79337 5.40297 5.7692 0.636441 8.16229C1.61141 9.16143 2.53899 10.2653 3.38532 11.4659L3.44626 11.5545L3.41918 11.6593C2.97231 13.2547 2.6067 14.8904 2.32233 16.526C4.11655 15.6397 5.97171 15.1965 7.84718 15.1965Z" fill="#260006"/>
<path d="M53.8267 16.8562C50.0893 14.9143 46.0608 14.9143 42.3234 16.8562C41.7276 13.9394 41.1385 11.0225 40.5427 8.09763C45.4379 5.55144 50.7122 5.55144 55.6074 8.09763C54.5444 9.16123 53.5627 10.3296 52.669 11.5865C53.1497 13.327 53.5356 15.0916 53.8267 16.8562Z" fill="#0E5404"/>
<path d="M53.8333 17.0417C50.1162 15.1079 46.1825 15.1079 42.4654 17.0417L42.2826 17.1384L40.4207 7.98503L40.5493 7.92057C43.007 6.63942 45.5663 5.99481 48.146 5.99481C50.7323 5.99481 53.2849 6.63942 55.7426 7.92057L55.9931 8.04949L55.7832 8.25898C54.7677 9.27424 53.8062 10.4104 52.926 11.6351C53.3932 13.3272 53.7791 15.0757 54.0635 16.8161L54.1244 17.1948L53.8333 17.0417ZM53.6708 16.526C53.3864 14.8823 53.0208 13.2466 52.574 11.6593L52.5469 11.5545L52.6078 11.4659C53.4609 10.2734 54.3817 9.16143 55.3567 8.16229C50.5902 5.77726 45.5731 5.79337 40.8134 8.22675L42.5128 16.5824C44.3409 15.6639 46.2366 15.2046 48.146 15.2046C50.0214 15.1965 51.8834 15.6397 53.6708 16.526Z" fill="#260006"/>
<path d="M8.66637 6.43004C8.46325 5.99493 8.05701 5.54371 7.4138 5.46314C7.42057 5.46314 7.42734 5.46314 7.43411 5.46314C7.37318 5.45508 7.31224 5.45508 7.25808 5.45508C7.24454 5.45508 7.23776 5.45508 7.22422 5.45508C6.34404 5.47925 5.63989 6.33335 5.63989 7.38083V14.5037H10.2101C9.42468 12.1187 8.97782 9.55637 8.8221 6.92155C8.78147 6.72817 8.74085 6.59925 8.66637 6.43004Z" fill="#13A600"/>
<path opacity="0.5" d="M8.99157 6.42998C8.78845 5.99487 8.38221 5.54365 7.739 5.46307C7.74577 5.46307 7.75254 5.46307 7.75931 5.46307C7.69837 5.45501 7.63744 5.47113 7.58327 5.47113C7.56973 5.47113 7.56296 5.47113 7.54942 5.47113C6.66923 5.4953 5.96509 6.32523 5.96509 7.37271V14.5036H10.5353C9.74988 12.1186 9.30302 9.55631 9.14729 6.92149C9.11344 6.72811 9.07281 6.59919 8.99157 6.42998Z" fill="url(#paint0_linear_38_546)"/>
<path d="M46.1152 6.43004C46.3184 5.99493 46.7246 5.54371 47.3678 5.46314C47.361 5.46314 47.3543 5.46314 47.3475 5.46314C47.4084 5.45508 47.4694 5.45508 47.5235 5.45508C47.5371 5.45508 47.5438 5.45508 47.5574 5.45508C48.4376 5.47925 49.1417 6.33335 49.1417 7.38083V14.5037H44.5715C45.3569 12.1187 45.8038 9.55637 45.9595 6.92155C46.0001 6.72817 46.0408 6.59925 46.1152 6.43004Z" fill="#13A600"/>
<path opacity="0.5" d="M45.79 6.42956C45.9932 5.99446 46.3994 5.54323 47.0426 5.46266C47.0358 5.46266 47.0291 5.46266 47.0223 5.46266C47.0832 5.4546 47.1442 5.46266 47.1983 5.46266C47.2119 5.46266 47.2186 5.46266 47.2322 5.46266C48.1124 5.48683 48.8165 6.32482 48.8165 7.3723V14.5032H44.2463C45.0317 12.1182 45.4786 9.55589 45.6343 6.92107C45.6682 6.72769 45.7088 6.59877 45.79 6.42956Z" fill="url(#paint1_linear_38_546)"/>
<path d="M40.6647 5.4628C39.7168 5.4628 38.8569 6.53445 38.4981 7.58194C36.9815 11.933 33.1899 16.0988 27.3942 16.0827C21.6053 16.0988 17.807 11.933 16.2904 7.58194C15.9248 6.53445 15.0717 5.4628 14.1238 5.4628C11.8353 5.4628 7.11615 5.4628 7.10938 5.4628C7.75259 5.54337 8.3958 5.88985 8.50413 7.30798C8.70725 9.93474 9.09995 12.5051 9.89211 14.8901C10.9348 18.0568 12.5801 20.9011 14.9498 23.1491C18.3622 26.3883 23.0542 27.9998 27.401 27.9998C31.741 27.9998 36.4398 26.3883 39.8522 23.1491C42.2219 20.9011 43.8672 18.0568 44.9099 14.8901C45.6953 12.5051 46.0947 9.93474 46.2979 7.30798C46.4062 5.88179 47.0765 5.53532 47.7129 5.4628C47.6926 5.4628 42.9532 5.4628 40.6647 5.4628Z" fill="#260006"/>
<path d="M47.3476 5.47086C45.4044 5.47086 42.6217 5.47086 40.3332 5.47086C39.3853 5.47086 38.5254 6.15575 38.1666 7.19517C36.65 11.5463 33.1834 15.712 27.3945 15.6959C21.5988 15.712 18.1322 11.5382 16.6156 7.18711C16.25 6.13963 15.3969 5.4628 14.449 5.4628C12.1605 5.4628 9.37102 5.4628 7.43462 5.4628C7.42785 5.4628 7.42108 5.4628 7.41431 5.4628C8.05752 5.54337 8.46376 5.98654 8.66688 6.42971C8.66688 6.42971 8.66688 6.42971 8.66688 6.43776C8.76844 6.65532 8.8226 6.89704 8.84291 7.14683C9.00541 9.70107 9.45227 12.1909 10.2174 14.5034C11.26 17.67 12.9053 20.5143 15.275 22.7624C18.6874 26.0015 23.0545 27.613 27.3945 27.613C31.7345 27.613 36.1015 26.0015 39.5139 22.7624C41.8837 20.5143 43.5289 17.67 44.5716 14.5034C45.3367 12.1909 45.7768 9.70107 45.946 7.14683C45.9596 6.89704 46.0205 6.65532 46.1221 6.43776C46.1221 6.43776 46.1221 6.43776 46.1221 6.42971C46.3252 5.9946 46.7314 5.54337 47.3747 5.4628C47.3679 5.47086 47.3543 5.47086 47.3476 5.47086Z" fill="#289211"/>
<path d="M27.516 15.9135C27.3129 15.9215 27.103 15.9296 26.8931 15.9296C21.3885 15.9457 18.0912 11.9814 16.6491 7.83978C16.297 6.84871 15.4845 6.2041 14.5773 6.2041C12.4039 6.2041 9.7498 6.2041 7.90142 6.2041C7.89464 6.2041 7.88787 6.2041 7.8811 6.2041C8.49046 6.27662 8.87639 6.70367 9.07274 7.12266C9.07274 7.12266 9.07274 7.12266 9.07274 7.13072C9.16753 7.34022 9.22169 7.56583 9.242 7.7995C9.39773 10.2248 9.81751 12.5937 10.5487 14.7935C11.544 17.807 13.108 20.5063 15.3627 22.6415C18.6058 25.7195 22.763 27.2585 26.8863 27.2585C27.0962 27.2585 27.3061 27.2504 27.5092 27.2424V15.9135H27.516Z" fill="#1A7D06"/>
<path d="M4.15708 14.9708C6.30337 14.4552 8.46321 14.012 10.6298 13.6252C11.7131 13.3916 12.9048 13.1015 13.7782 12.2554C14.4281 11.6269 14.7735 10.652 14.6651 9.65285C14.5974 9.03242 14.3808 8.50062 14.0084 8.07357C13.636 7.64652 13.1485 7.34033 12.5459 7.15501C13.0537 6.88105 13.4193 6.51846 13.6563 6.06724C13.8933 5.61601 13.9813 5.10839 13.9203 4.54436C13.812 3.47271 13.2094 2.6186 12.397 2.17544C11.1985 1.50666 9.83765 1.4422 8.52414 1.42609C6.27629 1.46637 4.02844 1.51472 1.78735 1.55501C1.95662 2.52191 2.13266 3.48882 2.30192 4.46378C2.78941 4.43155 3.03315 4.41544 3.52064 4.38321C3.94042 6.87299 4.36697 9.36278 4.78675 11.8445C4.32634 11.9251 4.09614 11.9734 3.63574 12.0621C3.81178 13.029 3.98781 14.0039 4.15708 14.9708ZM8.42258 4.02868C9.07934 3.95616 9.87827 4.25429 10.0001 5.1245C10.122 5.99472 9.37048 6.3976 8.75435 6.3976C8.35488 6.42983 8.15176 6.44594 7.74552 6.47817C7.63042 5.68047 7.50855 4.87472 7.39345 4.07702C7.80646 4.06091 8.00958 4.05285 8.42258 4.02868ZM8.46321 11.3208C8.33457 10.4344 8.19915 9.55616 8.07051 8.66983C8.53091 8.62148 8.75435 8.58925 9.21475 8.54091C9.91213 8.42004 10.6772 8.78263 10.7991 9.67702C10.921 10.5634 10.2574 11.1113 9.58037 11.1516C9.14027 11.216 8.91007 11.2482 8.46321 11.3208Z" fill="url(#paint2_linear_38_546)"/>
<path d="M15.9648 12.8679C17.5288 12.6987 19.0861 12.5617 20.6569 12.4569C20.6095 11.6431 20.5621 10.8374 20.5147 10.0236C20.034 10.0477 19.797 10.0638 19.3163 10.088C19.4314 9.58039 19.4923 9.33061 19.6142 8.83104C20.623 8.78269 21.6319 8.7424 22.6407 8.71017C22.7964 9.19363 22.8709 9.44341 23.0266 9.92686C22.5459 9.94298 22.3089 9.95104 21.8282 9.96715C21.8688 10.7729 21.9027 11.5787 21.9433 12.3925C24.0761 12.3038 26.2088 12.2716 28.3416 12.3119C28.3483 11.5061 28.3551 10.6923 28.3551 9.88658C27.9353 9.87852 27.7187 9.87852 27.2989 9.87852C26.3713 6.95363 25.3896 4.05291 24.3604 1.17636C21.7876 1.20859 19.2147 1.24888 16.6419 1.28917C16.7096 2.11104 16.7773 2.94097 16.8518 3.76284C17.5085 3.73866 17.8403 3.73061 18.497 3.71449C17.8877 5.89003 17.319 8.07363 16.7841 10.2814C16.3643 10.3136 16.1544 10.3378 15.7346 10.37C15.8023 11.2 15.8836 12.0299 15.9648 12.8679ZM20.0475 7.04226C20.3387 5.89003 20.6433 4.7378 20.948 3.58557C21.3272 4.71363 21.7063 5.84169 22.0719 6.96974C21.4017 6.99392 20.7246 7.01003 20.0475 7.04226Z" fill="url(#paint3_linear_38_546)"/>
<path d="M35.2886 12.9406C36.3177 13.0453 37.5297 12.997 38.4776 12.2718C39.263 11.6675 39.7911 10.6361 39.8791 9.53224C39.94 8.76677 39.8926 8.09799 39.6963 7.57425C39.4999 7.05051 39.2156 6.63152 38.8297 6.30922C38.4505 5.98691 38.0239 5.73713 37.55 5.55986C37.0761 5.37454 36.5953 5.23756 36.1079 5.13281C35.6271 5.02806 35.1803 4.92332 34.774 4.83468C34.3678 4.73799 34.0428 4.62519 33.8058 4.48015C33.5621 4.33511 33.447 4.13368 33.4605 3.86778C33.4741 3.58576 33.6027 3.36821 33.86 3.22317C34.1105 3.07814 34.449 3.00562 34.8621 3.00562C35.4443 3.00562 35.9521 3.16677 36.3719 3.48907C36.7917 3.81137 37.0557 4.27065 37.1573 4.85886C38.1187 4.88303 39.0869 4.91526 40.0484 4.94749C40.1702 3.62605 40.2921 2.30461 40.414 0.983172C39.6963 0.991229 38.9786 0.999287 38.2677 1.00734C38.0713 1.48274 37.9766 1.71641 37.7802 2.18375C37.4417 1.73252 36.9813 1.39411 36.4058 1.16044C35.6948 0.870366 34.9365 0.838136 34.2053 0.830078C33.3522 0.822021 32.4517 0.991229 31.6392 1.31353C31.0705 1.53914 30.3867 2.01454 29.9872 2.57857C29.608 3.11037 29.4117 3.73886 29.3981 4.44792C29.3846 5.18116 29.4997 5.78547 29.7367 6.25281C29.9736 6.72015 30.2919 7.09886 30.6846 7.38087C31.0773 7.66288 31.5106 7.88044 31.9845 8.04159C32.4585 8.20274 32.9324 8.33166 33.4064 8.42835C33.8803 8.5331 34.3136 8.63785 34.7063 8.7426C35.099 8.84734 35.4105 8.99238 35.6407 9.16159C35.8709 9.3308 35.9724 9.57252 35.9521 9.87871C35.9318 10.1607 35.8099 10.3702 35.5865 10.5153C35.3631 10.6603 35.0584 10.7167 34.6657 10.6845C33.948 10.6361 33.3725 10.4186 32.9121 10.0318C32.4585 9.6531 32.1876 9.18576 32.1199 8.62979C31.2059 8.59756 30.2919 8.57339 29.3711 8.55727C29.3507 9.81425 29.3304 11.0793 29.3169 12.3363C29.9736 12.3604 30.6236 12.3846 31.2804 12.4249C31.4429 11.9817 31.5174 11.7642 31.6798 11.321C32.0184 11.74 32.4856 12.0945 33.0611 12.3766C33.7787 12.7311 34.5641 12.8681 35.2886 12.9406Z" fill="url(#paint4_linear_38_546)"/>
<path d="M46.7041 14.8339C47.74 15.0676 48.9858 15.124 49.954 14.3666C50.868 13.6575 51.4706 12.4327 51.6263 11.1597C51.7211 10.3781 51.8159 9.56425 51.6399 8.77461C51.4977 8.13001 51.2472 7.60627 50.9019 7.21145C50.5566 6.80857 50.1503 6.49433 49.6967 6.26066C49.2363 6.02699 48.7759 5.84166 48.3019 5.69663C47.828 5.55159 47.3947 5.42267 47.002 5.29375C46.6093 5.16483 46.2978 5.01979 46.0676 4.84253C45.8374 4.66526 45.7426 4.43159 45.7833 4.12541C45.8239 3.8031 45.9796 3.55332 46.2437 3.39217C46.5077 3.23102 46.853 3.15044 47.266 3.1585C47.8483 3.17461 48.3358 3.368 48.7285 3.75476C49.1144 4.14152 49.3311 4.68943 49.3785 5.3985C50.3399 5.46296 51.2946 5.52742 52.256 5.59994C52.5065 4.00454 52.7638 2.40915 53.0143 0.813751C52.2966 0.821808 51.5857 0.829866 50.868 0.837924C50.6243 1.40195 50.5024 1.68397 50.2654 2.23994C49.9743 1.70008 49.5477 1.2972 48.9993 1.02325C48.3155 0.676772 47.5504 0.644542 46.8395 0.636485C45.9728 0.62037 45.0182 0.789578 44.2328 1.1844C43.5896 1.5067 42.9396 1.94987 42.4589 2.58641C42.0729 3.1021 41.748 3.9562 41.687 4.64915C41.6193 5.44684 41.6599 6.13979 41.8495 6.67965C42.0391 7.21951 42.3167 7.65461 42.6823 8.00109C43.0479 8.34756 43.4609 8.62152 43.9146 8.83907C44.3682 9.04857 44.8286 9.23389 45.2958 9.38699C45.7562 9.54008 46.1827 9.69317 46.5619 9.84627C46.941 9.99936 47.2389 10.1927 47.4488 10.4103C47.6587 10.6279 47.74 10.9179 47.6926 11.2805C47.6452 11.6109 47.503 11.8526 47.266 11.9976C47.0291 12.1507 46.7176 12.183 46.3317 12.1185C45.6208 11.9896 45.0656 11.6834 44.6458 11.208C44.2328 10.7245 44.0094 10.1766 43.9958 9.53202C43.0818 9.42728 42.1745 9.33059 41.2605 9.23389C41.1183 10.6359 40.9693 12.0379 40.8271 13.4399C41.4771 13.5447 42.1271 13.6575 42.7771 13.7703C42.9802 13.2868 43.0818 13.0451 43.2849 12.5617C43.5828 13.0773 44.0093 13.5366 44.5578 13.9314C45.2078 14.4068 45.9796 14.6727 46.7041 14.8339Z" fill="url(#paint5_linear_38_546)"/>
<path d="M8.53074 1.59539C9.81716 1.6115 11.1645 1.67596 12.3426 2.32862C13.1483 2.77985 13.69 3.61783 13.7848 4.57668C13.8389 5.10042 13.7509 5.57582 13.5342 5.99481C13.3176 6.4138 12.9587 6.76028 12.4848 7.01812L12.1395 7.20344L12.5119 7.31625C13.0874 7.49352 13.5546 7.79164 13.9134 8.19452C14.2587 8.58934 14.4618 9.08891 14.5295 9.68517C14.6311 10.6198 14.3196 11.5304 13.69 12.1347C12.8572 12.9404 11.7129 13.2305 10.6093 13.4642C8.49688 13.8348 6.36413 14.278 4.26523 14.7775L3.89962 12.7309L3.80483 12.2072C4.17721 12.1347 4.40064 12.0944 4.81365 12.0219L4.95584 11.9977L4.92875 11.8285L4.06211 6.74416L3.65587 4.36718L3.63556 4.23021L3.52046 4.23826C3.0736 4.26244 2.82985 4.27855 2.41684 4.31078L1.96321 1.73236C4.08242 1.68402 6.28965 1.64373 8.53074 1.59539ZM8.40887 3.88373C8.00263 3.9079 7.79274 3.91596 7.3865 3.93208L7.23077 3.94013L7.25786 4.1174L7.60993 6.51855L7.63024 6.66359L7.75211 6.65553C8.15158 6.6233 8.3547 6.60718 8.75417 6.57495C9.13332 6.57495 9.63435 6.42186 9.93226 6.01093C10.1083 5.76114 10.176 5.4469 10.1286 5.10848C9.99997 4.19798 9.22811 3.86762 8.61198 3.86762C8.54428 3.86762 8.47657 3.87567 8.40887 3.88373ZM9.20103 8.39596C8.7474 8.44431 8.5172 8.46848 8.06356 8.52488L7.91461 8.541L7.94169 8.71021L8.33439 11.3611L8.3547 11.5142L8.48334 11.4981C8.93021 11.4337 9.15364 11.4014 9.59373 11.337C10.0474 11.3047 10.4671 11.0711 10.7109 10.7085C10.9072 10.4184 10.9817 10.0558 10.9343 9.67711C10.8124 8.78272 10.1151 8.37985 9.47186 8.37985C9.38384 8.37179 9.28905 8.37985 9.20103 8.39596ZM8.53074 1.43423C6.28288 1.47452 4.03503 1.52287 1.79395 1.56316C1.96321 2.53006 2.13925 3.49697 2.30851 4.47193C2.796 4.4397 3.03974 4.42359 3.52723 4.39136C3.94701 6.88114 4.37356 9.37093 4.79334 11.8527C4.33294 11.9332 4.10274 11.9816 3.64233 12.0702C3.8116 13.0371 3.98763 14.0121 4.1569 14.979C6.3032 14.4633 8.46303 14.0201 10.6296 13.6334C11.7129 13.3997 12.9046 13.1096 13.778 12.2636C14.428 11.6351 14.7733 10.6601 14.6649 9.661C14.5972 9.04057 14.3806 8.50877 14.0082 8.08172C13.6358 7.65467 13.1483 7.34848 12.5457 7.16316C13.0535 6.8892 13.4191 6.52661 13.6561 6.07539C13.8931 5.62416 13.9811 5.11654 13.9202 4.55251C13.8118 3.48085 13.2025 2.62675 12.3968 2.17553C11.1984 1.52287 9.83747 1.45035 8.53074 1.43423ZM7.75211 6.49438C7.63701 5.69668 7.51514 4.89093 7.40004 4.09323C7.81305 4.06905 8.01617 4.061 8.42241 4.03682C8.48334 4.02877 8.55105 4.02877 8.61198 4.02877C9.22134 4.02877 9.88487 4.35107 9.99997 5.14071C10.1218 6.01093 9.3703 6.4138 8.76094 6.4138C8.3547 6.44603 8.15158 6.46215 7.75211 6.49438ZM8.46303 11.3289C8.33439 10.4426 8.19898 9.56431 8.07033 8.67798C8.53074 8.62963 8.75417 8.5974 9.21457 8.54906C9.30259 8.53294 9.39061 8.52488 9.47186 8.52488C10.088 8.52488 10.6906 8.90359 10.7989 9.68517C10.9208 10.5715 10.2573 11.1194 9.58019 11.1597C9.1401 11.2322 8.90989 11.2645 8.46303 11.3289Z" fill="url(#paint6_linear_38_546)"/>
<path d="M24.2658 1.34569C25.3017 4.23835 26.2767 7.13101 27.1704 9.9431L27.2043 10.0478H27.2991C27.6782 10.0478 27.8813 10.0478 28.2199 10.0559L28.2131 11.1195L28.2063 12.1589C27.6376 12.1509 27.0621 12.1428 26.4933 12.1428C25.0241 12.1428 23.5346 12.175 22.0653 12.2395L21.9638 10.1365C22.3565 10.1204 22.5935 10.1123 23.0268 10.0962L23.2164 10.0881L23.1487 9.87864C22.9929 9.38713 22.9185 9.15346 22.7627 8.66195L22.7289 8.5572H22.6341C21.6253 8.58943 20.6097 8.62972 19.6008 8.67807L19.506 8.68612L19.479 8.79893C19.3571 9.30655 19.3029 9.54828 19.1811 10.064L19.1337 10.2815L19.3232 10.2735C19.7633 10.2493 19.9935 10.2332 20.393 10.2171L20.5149 12.3281C19.0456 12.4248 17.5561 12.5537 16.0869 12.7149L15.8973 10.7327L15.877 10.5313C16.2087 10.4991 16.4186 10.483 16.791 10.4507L16.8858 10.4427L16.9129 10.3379C17.441 8.15432 18.0165 5.95461 18.6259 3.77907L18.6868 3.56152L18.4972 3.56958C17.8743 3.58569 17.5561 3.59375 16.9738 3.61792L16.9332 3.09418L16.7978 1.46655C19.1675 1.41821 21.6185 1.38598 24.2658 1.34569ZM19.8649 7.22771L20.0545 7.21965C20.7248 7.19548 21.4086 7.1713 22.0789 7.14713L22.2752 7.13907L22.2075 6.92152C21.8419 5.80152 21.4628 4.6654 21.0836 3.52929L20.9414 3.1103L20.8263 3.53735C20.5216 4.68152 20.217 5.84986 19.9258 6.99404L19.8649 7.22771ZM24.3538 1.18454C21.781 1.21677 19.2081 1.25706 16.6353 1.29735C16.703 2.11922 16.7707 2.94914 16.8452 3.77101C17.5019 3.74684 17.8337 3.73878 18.4905 3.72267C17.8811 5.89821 17.3124 8.08181 16.7775 10.2896C16.3577 10.3218 16.1478 10.346 15.728 10.3782C15.8093 11.2162 15.8905 12.0461 15.9718 12.8841C17.5358 12.7149 19.093 12.5779 20.6638 12.4732C20.6164 11.6594 20.569 10.8536 20.5216 10.0398C20.0409 10.064 19.804 10.0801 19.3232 10.1043C19.4383 9.59663 19.4993 9.34684 19.6211 8.84727C20.63 8.79893 21.6388 8.75864 22.6476 8.72641C22.8033 9.20986 22.8778 9.45965 23.0336 9.9431C22.5528 9.95922 22.3159 9.96727 21.8351 9.98339C21.8758 10.7891 21.9096 11.5949 21.9502 12.4087C23.4669 12.3443 24.9835 12.312 26.5069 12.312C27.123 12.312 27.7391 12.3201 28.3485 12.3281C28.3553 11.5224 28.362 10.7086 28.362 9.90281C27.9423 9.89476 27.7256 9.89476 27.3058 9.89476C26.3715 6.96181 25.3897 4.06109 24.3538 1.18454ZM20.0477 7.0585C20.3388 5.90627 20.6435 4.75404 20.9482 3.60181C21.3273 4.72986 21.7065 5.85792 22.0721 6.98598C21.4018 7.00209 20.7248 7.02627 20.0477 7.0585Z" fill="url(#paint7_linear_38_546)"/>
<path d="M34.1374 0.990802C34.1645 0.990802 34.1848 0.990802 34.2119 0.990802C34.9228 0.998859 35.6811 1.03109 36.365 1.3131C36.9201 1.53872 37.3602 1.86908 37.6785 2.28807L37.8139 2.46533L37.9019 2.24778C38.0847 1.80461 38.1795 1.57095 38.3555 1.16001L40.2649 1.13584L39.9263 4.77785C39.0461 4.74562 38.1524 4.72145 37.2655 4.69728C37.1368 4.11713 36.866 3.66591 36.4462 3.34361C36.0061 3.01325 35.4712 2.84404 34.8619 2.83598H34.8483C34.4218 2.83598 34.0629 2.91656 33.7989 3.06965C33.501 3.23886 33.3385 3.50476 33.3249 3.85123C33.3114 4.07684 33.3791 4.39915 33.7447 4.6167C33.9952 4.76174 34.3338 4.89066 34.7468 4.98735C35.1327 5.07598 35.5728 5.17267 36.0806 5.28548C36.5613 5.39023 37.042 5.53526 37.5024 5.71253C37.9628 5.88979 38.3826 6.13152 38.7482 6.44577C39.1071 6.74389 39.3779 7.15483 39.5675 7.64634C39.7435 8.11368 39.7977 8.74217 39.7367 9.52375C39.6555 10.5873 39.1545 11.5623 38.3961 12.1425C37.7936 12.6017 37.0285 12.8273 36.0467 12.8273C35.8098 12.8273 35.566 12.8112 35.2952 12.7871C34.7265 12.7307 33.8801 12.6098 33.1218 12.2391C32.5599 11.9571 32.1062 11.6187 31.788 11.2158L31.6458 11.0386L31.5646 11.2561C31.4156 11.659 31.3344 11.8766 31.199 12.2553C30.6234 12.223 30.0412 12.1989 29.4589 12.1827L29.5131 8.718C30.3459 8.73411 31.1854 8.75023 32.0114 8.78246C32.113 9.32231 32.3906 9.78159 32.8375 10.1603C33.3114 10.5551 33.9208 10.7888 34.6588 10.8371C34.7265 10.8452 34.7942 10.8452 34.8551 10.8452C35.1869 10.8452 35.4441 10.7807 35.654 10.6518C35.9181 10.4826 36.067 10.2248 36.0874 9.88634C36.1144 9.52375 35.979 9.22562 35.715 9.01612C35.4712 8.8308 35.1462 8.68577 34.74 8.57296C34.3405 8.46015 33.9072 8.35541 33.4333 8.25871C32.9729 8.16202 32.4989 8.02505 32.025 7.87195C31.5646 7.71886 31.138 7.5013 30.7589 7.22735C30.3865 6.96145 30.0818 6.59886 29.8584 6.15569C29.6349 5.71253 29.5266 5.13238 29.5334 4.43943C29.5401 3.77872 29.7297 3.18246 30.0886 2.67483C30.4813 2.11886 31.1719 1.65958 31.6797 1.45814C32.4583 1.16001 33.3317 0.990802 34.1374 0.990802ZM34.1374 0.829651C33.3046 0.829651 32.4312 0.998859 31.6458 1.3131C31.0771 1.53872 30.3932 2.01411 29.9938 2.57814C29.6146 3.10994 29.4183 3.73843 29.4047 4.44749C29.3912 5.18073 29.5063 5.78505 29.7433 6.25238C29.9802 6.71972 30.2985 7.09843 30.6912 7.38044C31.0839 7.66246 31.5172 7.88001 31.9911 8.04116C32.4651 8.20231 32.939 8.33123 33.413 8.42792C33.8869 8.53267 34.3202 8.63742 34.7129 8.74217C35.1056 8.84692 35.4171 8.99195 35.6473 9.16116C35.8775 9.33037 35.979 9.5721 35.9587 9.87828C35.9384 10.1603 35.8165 10.3698 35.5931 10.5148C35.4103 10.6357 35.1666 10.6921 34.8619 10.6921C34.8009 10.6921 34.74 10.6921 34.6723 10.684C33.9546 10.6357 33.3791 10.4181 32.9187 10.0314C32.4651 9.65267 32.1942 9.18533 32.1265 8.62936C31.2125 8.59713 30.2985 8.57296 29.3777 8.55684C29.3573 9.81382 29.337 11.0789 29.3235 12.3358C29.9802 12.36 30.6302 12.3842 31.287 12.4245C31.4495 11.9813 31.5239 11.7638 31.6864 11.3206C32.025 11.7396 32.4921 12.0941 33.0677 12.3761C33.7718 12.7226 34.5572 12.8676 35.2817 12.9402C35.5254 12.9643 35.7827 12.9804 36.0467 12.9804C36.8795 12.9804 37.7529 12.8193 38.4706 12.2714C39.256 11.6671 39.7841 10.6357 39.8722 9.53181C39.9331 8.76634 39.8857 8.09756 39.6893 7.57382C39.493 7.05008 39.2086 6.63109 38.8227 6.30879C38.4435 5.98649 38.017 5.7367 37.543 5.55943C37.0691 5.37411 36.5884 5.23713 36.1009 5.13238C35.6202 5.02764 35.1733 4.92289 34.7671 4.83425C34.3608 4.73756 34.0359 4.62476 33.7989 4.47972C33.5551 4.33469 33.44 4.13325 33.4536 3.86735C33.4671 3.58533 33.5958 3.36778 33.853 3.22274C34.1036 3.07771 34.4353 3.00519 34.8483 3.00519C34.8551 3.00519 34.8551 3.00519 34.8619 3.00519C35.4442 3.00519 35.9519 3.16634 36.3717 3.48864C36.7915 3.81095 37.0556 4.27023 37.1571 4.85843C38.1186 4.8826 39.0868 4.91483 40.0482 4.94706C40.1701 3.62562 40.2919 2.30418 40.4138 0.982744C39.6961 0.990802 38.9784 0.998859 38.2675 1.00692C38.0712 1.48231 37.9764 1.71598 37.78 2.18332C37.4415 1.7321 36.9811 1.39368 36.4056 1.16001C35.6947 0.869939 34.9364 0.837708 34.2051 0.829651C34.1848 0.829651 34.1645 0.829651 34.1374 0.829651Z" fill="url(#paint8_linear_38_546)"/>
<path d="M46.7375 0.805683C46.7646 0.805683 46.7984 0.805683 46.8255 0.805683C47.5635 0.813741 48.2812 0.854029 48.9379 1.18439C49.466 1.45029 49.8723 1.83705 50.1431 2.34468L50.2718 2.57835L50.3801 2.32856L50.9488 1.01518L52.8514 0.991007L52.1472 5.43878C51.267 5.37432 50.3801 5.30986 49.4999 5.25345C49.4322 4.56856 49.202 4.02065 48.8161 3.64194C48.4098 3.23906 47.8885 3.02151 47.2724 3.01345C47.2453 3.01345 47.225 3.01345 47.1979 3.01345C46.7916 3.01345 46.4531 3.09403 46.1823 3.26324C45.8776 3.44856 45.6948 3.73863 45.6474 4.11734C45.6 4.47993 45.7219 4.78611 45.9927 4.99561C46.2297 5.17288 46.5547 5.33403 46.9609 5.46295C47.3265 5.57576 47.7531 5.71273 48.2609 5.86583C48.728 6.01086 49.1952 6.19619 49.6353 6.4218C50.0754 6.64741 50.4681 6.96165 50.7999 7.34036C51.1249 7.71906 51.3618 8.21863 51.504 8.83101C51.6801 9.60453 51.5785 10.4264 51.4905 11.1516C51.3347 12.4247 50.7322 13.5769 49.8791 14.2457C49.3713 14.6405 48.7281 14.8419 47.963 14.8419C47.5838 14.8419 47.164 14.7936 46.7239 14.6888C45.8438 14.4874 45.1532 14.1973 44.6115 13.8025C44.0766 13.4158 43.6636 12.9726 43.3792 12.4811L43.2506 12.2555L43.149 12.4972C42.9595 12.9484 42.8579 13.1901 42.6819 13.6011C42.1131 13.4963 41.5309 13.3996 40.9621 13.303L41.1652 11.345L41.3616 9.41115C42.1876 9.49173 43.0204 9.58036 43.8464 9.67705C43.8938 10.2975 44.124 10.8454 44.5303 11.3208C44.9703 11.8284 45.5594 12.1507 46.2906 12.2796C46.4193 12.3038 46.5479 12.3119 46.663 12.3119C46.9135 12.3119 47.1369 12.2555 47.313 12.1427C47.5906 11.9654 47.7531 11.6914 47.8072 11.3047C47.8682 10.8857 47.7734 10.5473 47.5229 10.2894C47.2994 10.0558 46.9812 9.85432 46.5885 9.69317C46.2026 9.53201 45.776 9.37892 45.3156 9.22583C44.8688 9.08079 44.4084 8.89547 43.948 8.68597C43.5079 8.48453 43.1016 8.21058 42.7496 7.87216C42.4043 7.54986 42.1402 7.12281 41.9574 6.61518C41.7814 6.12367 41.734 5.48712 41.8085 4.66525C41.8626 4.01259 42.1741 3.18266 42.5465 2.69115C42.9459 2.15935 43.5079 1.71619 44.273 1.32942C44.9568 0.999065 45.8302 0.805683 46.7375 0.805683ZM46.7375 0.644532C45.8979 0.644532 44.9839 0.805683 44.2188 1.19245C43.5756 1.51475 42.9256 1.95791 42.4449 2.59446C42.059 3.11014 41.734 3.96424 41.673 4.65719C41.6053 5.45489 41.646 6.14784 41.8355 6.6877C42.0251 7.22755 42.3027 7.66266 42.6683 8.00914C43.0339 8.35561 43.4469 8.62957 43.9006 8.84712C44.3542 9.05662 44.8146 9.24194 45.2818 9.39504C45.7422 9.54813 46.1687 9.70122 46.5479 9.85432C46.9271 10.0074 47.225 10.2008 47.4349 10.4183C47.6447 10.6359 47.726 10.926 47.6786 11.2886C47.6312 11.6189 47.489 11.8606 47.2521 12.0057C47.0896 12.1104 46.8932 12.1588 46.663 12.1588C46.5547 12.1588 46.4396 12.1507 46.3109 12.1265C45.6 11.9976 45.0448 11.6914 44.625 11.216C44.212 10.7326 43.9886 10.1847 43.9751 9.54007C43.061 9.43532 42.1538 9.33863 41.2397 9.24194C41.0975 10.644 40.9486 12.046 40.8064 13.448C41.4564 13.5527 42.1064 13.6655 42.7563 13.7783C42.9595 13.2949 43.061 13.0532 43.2641 12.5697C43.562 13.0854 43.9886 13.5447 44.537 13.9395C45.2005 14.423 45.9792 14.6808 46.6969 14.8419C47.0963 14.9306 47.5296 14.995 47.963 14.995C48.6536 14.995 49.351 14.8339 49.9468 14.3665C50.8608 13.6575 51.4634 12.4327 51.6191 11.1596C51.7139 10.3781 51.8087 9.56424 51.6327 8.7746C51.4905 8.13 51.24 7.60626 50.8947 7.21144C50.5494 6.80856 50.1431 6.49432 49.6895 6.26065C49.2291 6.02698 48.7687 5.84165 48.2947 5.69662C47.8208 5.55158 47.3875 5.42266 46.9948 5.29374C46.6021 5.16482 46.2906 5.01978 46.0604 4.84252C45.8302 4.66525 45.7354 4.43158 45.776 4.1254C45.8167 3.80309 45.9724 3.55331 46.2365 3.39216C46.487 3.23906 46.8052 3.15849 47.1911 3.15849C47.2114 3.15849 47.2385 3.15849 47.2588 3.15849C47.8411 3.1746 48.3286 3.36799 48.7213 3.75475C49.1072 4.14151 49.3239 4.68942 49.3713 5.39849C50.3327 5.46295 51.2874 5.52741 52.2488 5.59993C52.4993 4.00453 52.7566 2.40914 53.0071 0.813741C52.2894 0.821798 51.5785 0.829856 50.8608 0.837913C50.6171 1.40194 50.4952 1.68396 50.2582 2.23993C49.9671 1.70007 49.5405 1.29719 48.9921 1.02324C48.3083 0.676762 47.5432 0.644532 46.8323 0.636475C46.7984 0.644532 46.7646 0.644532 46.7375 0.644532Z" fill="url(#paint9_linear_38_546)"/>
<path d="M8.53062 1.434C9.83736 1.45012 11.1983 1.51458 12.4034 2.18335C13.2091 2.62652 13.8185 3.48868 13.9268 4.56033C13.981 5.1163 13.893 5.62393 13.6628 6.08321C13.4258 6.53443 13.0534 6.89702 12.5524 7.17098C13.1482 7.3563 13.6357 7.66249 14.0148 8.08954C14.3872 8.51659 14.6039 9.04839 14.6716 9.66882C14.7799 10.668 14.4346 11.6429 13.7846 12.2714C12.9112 13.1094 11.7264 13.4075 10.6363 13.6412C8.46969 14.0199 6.31662 14.4711 4.16356 14.9868C3.99429 14.0199 3.81825 13.0449 3.64899 12.078C4.10939 11.9894 4.33959 11.9491 4.8 11.8605C4.38022 9.37069 3.95366 6.88091 3.53388 4.39918C3.0464 4.43141 2.80266 4.44753 2.31517 4.47976C2.1459 3.51285 1.96987 2.54594 1.8006 1.57098C4.03491 1.52264 6.28277 1.48235 8.53062 1.434ZM7.752 6.49415C8.15147 6.46192 8.35458 6.4458 8.76082 6.41357C9.37018 6.41357 10.1285 6.01069 9.99985 5.14048C9.88475 4.35084 9.22123 4.02853 8.61187 4.02853C8.54416 4.02853 8.48323 4.02853 8.42229 4.03659C8.00928 4.06076 7.80616 4.06882 7.39992 4.093C7.51503 4.89875 7.63013 5.69645 7.752 6.49415ZM8.46292 11.3287C8.90978 11.2642 9.13321 11.2239 9.58007 11.1675C10.2571 11.1272 10.9207 10.5793 10.7988 9.69299C10.6905 8.91141 10.0879 8.53271 9.47174 8.53271C9.38372 8.53271 9.29571 8.54076 9.21446 8.55688C8.75405 8.60522 8.53062 8.6294 8.07022 8.6858C8.20563 9.56407 8.33427 10.4504 8.46292 11.3287ZM8.53062 0.789398C6.22183 0.829686 3.96044 0.878031 1.78029 0.918319L1.12354 0.934434L1.25895 1.6999L1.77352 4.60868L1.86831 5.14853L2.33548 5.1163C2.64016 5.10019 2.85682 5.08407 3.08702 5.06796L3.41878 7.00983L4.15001 11.3206C3.97398 11.3529 3.79794 11.3851 3.5542 11.4334L2.99223 11.5382L3.10733 12.1989L3.24952 13.0127L3.6219 15.1077L3.73023 15.7362L4.25834 15.6072C6.38433 15.0996 8.5577 14.6484 10.704 14.2697H10.7108H10.7175C11.9092 14.0199 13.1482 13.6895 14.1096 12.771C14.9221 11.9894 15.3283 10.7969 15.1929 9.58825C15.1049 8.80666 14.8273 8.14594 14.3737 7.6222C14.1706 7.39659 13.9471 7.19515 13.6966 7.02594C13.8591 6.84062 14.0013 6.63918 14.1096 6.42163C14.4075 5.84148 14.5226 5.19688 14.4549 4.48782C14.3331 3.24695 13.6425 2.1753 12.6201 1.60321C11.3269 0.878031 9.89152 0.805513 8.53062 0.789398ZM8.03636 4.70537C8.15824 4.69731 8.28688 4.68925 8.4426 4.6812H8.45614H8.46969C8.51708 4.67314 8.56447 4.67314 8.61187 4.67314C8.69312 4.67314 9.38372 4.68925 9.46497 5.24523C9.48528 5.37415 9.45143 5.43861 9.41758 5.48695C9.30248 5.6481 9.02488 5.76091 8.75405 5.76091H8.73374H8.71343C8.50354 5.77702 8.34781 5.79314 8.19209 5.8012L8.03636 4.70537ZM8.70666 9.25789C8.87593 9.24177 9.03842 9.2176 9.26185 9.20148H9.27539H9.28893C9.34987 9.19343 9.41081 9.18537 9.47174 9.18537C9.58684 9.18537 10.1827 9.2176 10.2639 9.8058C10.2842 9.96695 10.2571 10.0878 10.1827 10.2006C10.0608 10.3859 9.81027 10.5149 9.54622 10.531H9.52591H9.50559C9.25508 10.5632 9.07904 10.5954 8.89624 10.6196L8.87593 10.4665L8.70666 9.25789Z" fill="black"/>
<path d="M24.3537 1.18467C25.3896 4.06122 26.3714 6.96194 27.2922 9.88683C27.7119 9.88683 27.9286 9.89489 28.3484 9.89489C28.3416 10.7006 28.3348 11.5145 28.3348 12.3202C27.7187 12.3122 27.1026 12.3041 26.4932 12.3041C24.9766 12.3041 23.46 12.3363 21.9366 12.4008C21.896 11.595 21.8621 10.7893 21.8215 9.97547C22.3022 9.95935 22.5392 9.95129 23.0199 9.93518C22.8642 9.45172 22.7897 9.21 22.634 8.71849C21.6251 8.75072 20.6163 8.791 19.6075 8.83935C19.4856 9.33892 19.4247 9.59676 19.3096 10.0963C19.7903 10.0641 20.0273 10.056 20.508 10.0319C20.5554 10.8457 20.6028 11.6514 20.6502 12.4652C19.0861 12.57 17.5221 12.707 15.9581 12.8762C15.8769 12.0382 15.7956 11.2083 15.7144 10.3703C16.1341 10.33 16.344 10.3139 16.7638 10.2817C17.2987 8.08194 17.8674 5.89029 18.4768 3.71475C17.82 3.73086 17.4883 3.74698 16.8315 3.76309C16.7638 2.94122 16.6961 2.11129 16.6216 1.28942C19.208 1.25719 21.7809 1.22496 24.3537 1.18467ZM20.0476 7.05863C20.7246 7.03446 21.4017 7.01029 22.0788 6.98611C21.7064 5.85806 21.334 4.72194 20.9548 3.60194C20.6434 4.74611 20.3387 5.89834 20.0476 7.05863ZM24.7125 0.532013L24.3537 0.54007C21.6184 0.580358 19.0929 0.612589 16.6352 0.652876L16.0461 0.660934L16.1071 1.36194L16.3169 3.83561L16.3643 4.43187L16.8654 4.41575C17.2174 4.4077 17.4747 4.39964 17.7455 4.39158C17.2648 6.14813 16.8044 7.92079 16.3711 9.67734C16.1544 9.69345 15.9716 9.70957 15.694 9.73374L15.1321 9.78208L15.1998 10.4509L15.2336 10.7973L15.4435 12.9568L15.5045 13.5852L16.0326 13.5288C17.5831 13.3596 19.1538 13.2227 20.7043 13.1179L21.2527 13.0776L21.2121 12.425L21.0564 9.99158L21.0225 9.42755C21.097 9.42755 21.1783 9.41949 21.2527 9.41949L21.2798 10.0158L21.3949 12.4411L21.422 13.0696L21.9501 13.0454C23.4532 12.9809 24.9834 12.9487 26.4865 12.9487C27.0958 12.9487 27.7119 12.9568 28.3213 12.9648L28.8697 12.9729L28.8765 12.3202L28.8833 11.1116L28.89 9.89489L28.8968 9.25029L28.3551 9.24223C28.0708 9.24223 27.888 9.23417 27.6713 9.23417C26.8047 6.51072 25.8568 3.71475 24.8547 0.918775L24.7125 0.532013ZM20.7856 6.3818C20.86 6.09172 20.9345 5.80165 21.009 5.51964C21.1038 5.80165 21.1986 6.08367 21.2866 6.36568C21.1241 6.37374 20.9548 6.37374 20.7856 6.3818Z" fill="black"/>
<path d="M34.1373 0.829908C34.1644 0.829908 34.1847 0.829908 34.2118 0.829908C34.9363 0.837966 35.7013 0.870196 36.4123 1.16027C36.9878 1.39394 37.4482 1.73235 37.7867 2.18358C37.983 1.71624 38.0778 1.47451 38.2742 1.00717C38.9919 0.999117 39.7096 0.991059 40.4205 0.983002C40.2986 2.30444 40.1767 3.62588 40.0549 4.94732C39.0934 4.91509 38.1252 4.88286 37.1638 4.85868C37.0622 4.26243 36.7982 3.80315 36.3784 3.4889C35.9586 3.1666 35.4508 3.01351 34.8685 3.00545C34.8618 3.00545 34.8618 3.00545 34.855 3.00545C34.442 3.00545 34.1102 3.07797 33.8597 3.223C33.6092 3.36804 33.4738 3.58559 33.4603 3.86761C33.4467 4.13351 33.5618 4.33494 33.8056 4.47998C34.0493 4.62502 34.3675 4.73782 34.7738 4.83451C35.18 4.9312 35.6201 5.02789 36.1076 5.13264C36.5883 5.23739 37.069 5.38243 37.5497 5.55969C38.0237 5.74502 38.4502 5.9948 38.8294 6.30905C39.2085 6.63135 39.4997 7.05034 39.696 7.57408C39.8924 8.09782 39.9398 8.7666 39.8788 9.53207C39.7908 10.636 39.2627 11.6673 38.4773 12.2716C37.7596 12.8195 36.8862 12.9807 36.0534 12.9807C35.7961 12.9807 35.5388 12.9646 35.2883 12.9404C34.5639 12.8679 33.7785 12.7309 33.0743 12.3764C32.4988 12.0863 32.0384 11.7398 31.6931 11.3208C31.5306 11.764 31.4494 11.9816 31.2936 12.4247C30.6369 12.3925 29.9869 12.3603 29.3302 12.3361C29.3505 11.0791 29.3708 9.81408 29.3843 8.5571C30.2984 8.57322 31.2124 8.59739 32.1332 8.62962C32.2077 9.18559 32.4717 9.65293 32.9254 10.0316C33.379 10.4103 33.9613 10.6279 34.679 10.6843C34.7467 10.6924 34.8076 10.6924 34.8685 10.6924C35.1732 10.6924 35.417 10.636 35.5998 10.5151C35.8232 10.3701 35.9451 10.1606 35.9654 9.87854C35.9857 9.57235 35.8841 9.33063 35.6539 9.16142C35.4237 8.99221 35.1123 8.84717 34.7196 8.74243C34.3269 8.63768 33.8936 8.52487 33.4196 8.42818C32.9457 8.32343 32.4717 8.19451 31.9978 8.04142C31.5238 7.88027 31.0905 7.66271 30.6978 7.3807C30.3051 7.09869 29.9869 6.71998 29.7499 6.25264C29.513 5.7853 29.3979 5.18099 29.4114 4.44775C29.4249 3.73868 29.6213 3.11825 30.0005 2.5784C30.3932 2.02243 31.0838 1.53897 31.6525 1.31336C32.4379 0.999117 33.3113 0.829908 34.1373 0.829908ZM34.1373 0.185304C33.2436 0.185304 32.3228 0.36257 31.4765 0.700987C30.9213 0.918541 30.0952 1.43422 29.5807 2.1594C29.1203 2.81207 28.8765 3.57753 28.8698 4.43163C28.8562 5.27768 28.9984 6.00286 29.2895 6.583C29.5739 7.13897 29.9531 7.59825 30.4202 7.93667C30.427 7.93667 30.427 7.94473 30.4338 7.94473C30.0885 7.93667 29.7364 7.92861 29.3911 7.92056L28.8494 7.9125L28.8427 8.5571V8.7102L28.7885 12.3361L28.7817 12.9726L29.3166 12.9888C29.9666 13.0129 30.6234 13.0371 31.2666 13.0774L31.6389 13.1016L31.7879 12.6906C31.8285 12.5698 31.8692 12.4731 31.903 12.3764C32.1874 12.602 32.5056 12.8115 32.8644 12.9888C33.7108 13.4077 34.6316 13.5367 35.2477 13.5931C35.5388 13.6172 35.8029 13.6334 36.0534 13.6334C37.1638 13.6334 38.0575 13.3675 38.7684 12.8195C39.696 12.1105 40.3121 10.9019 40.4137 9.59653C40.4882 8.66185 40.4137 7.9125 40.1903 7.31624C39.9533 6.68775 39.6012 6.17207 39.1476 5.7853C39.046 5.70473 38.9445 5.62415 38.8361 5.54358C39.2356 5.55969 39.6351 5.56775 40.0345 5.58387L40.5356 5.59998L40.5897 5.01178L40.9554 1.04746L41.0231 0.322282L40.4137 0.33034L38.2674 0.354512H37.9356L37.7867 0.709045C37.719 0.878253 37.6581 1.01523 37.6107 1.1361C37.3127 0.894368 36.9742 0.69293 36.5883 0.539836C35.8029 0.217534 34.9904 0.185304 34.2186 0.177246C34.1915 0.185304 34.1644 0.185304 34.1373 0.185304ZM34.0087 3.87566C34.0154 3.85955 34.0425 3.83538 34.0967 3.80315C34.2727 3.70645 34.53 3.65005 34.855 3.65005H34.8618C35.3425 3.65005 35.7555 3.77897 36.0805 4.02876C36.2701 4.17379 36.4123 4.35106 36.507 4.57667C36.4055 4.5525 36.3039 4.52833 36.2024 4.50415C35.6946 4.39135 35.2612 4.29466 34.8753 4.20602C34.5165 4.12545 34.2389 4.0207 34.0425 3.90789C34.0358 3.89178 34.0222 3.88372 34.0087 3.87566ZM34.8685 10.0558C34.8212 10.0558 34.767 10.0558 34.7128 10.0477C34.1035 10.0075 33.6092 9.82214 33.2436 9.51595C33.0337 9.33869 32.878 9.1453 32.7832 8.93581C32.966 8.98415 33.1488 9.02444 33.3248 9.06473C33.7852 9.16142 34.2118 9.26617 34.5977 9.37092C34.9295 9.45955 35.1868 9.58041 35.3628 9.70933C35.4305 9.75768 35.4305 9.77379 35.4237 9.8302C35.4237 9.87048 35.417 9.90271 35.3425 9.95106C35.268 9.9994 35.1258 10.0558 34.8685 10.0558Z" fill="black"/>
<path d="M46.7377 0.644604C46.7715 0.644604 46.7986 0.644604 46.8325 0.644604C47.5501 0.652662 48.3084 0.684892 48.9923 1.03137C49.5475 1.31338 49.9673 1.71626 50.2584 2.24806C50.4954 1.69209 50.6172 1.41007 50.861 0.846043C51.5787 0.837986 52.2896 0.829928 53.0073 0.821871C52.7568 2.41727 52.4995 4.01266 52.249 5.60806C51.2875 5.53554 50.3329 5.47108 49.3714 5.40662C49.324 4.69755 49.1142 4.14964 48.7215 3.76288C48.3355 3.37612 47.8413 3.18273 47.259 3.16662C47.2387 3.16662 47.2116 3.16662 47.1913 3.16662C46.8054 3.16662 46.4871 3.24719 46.2366 3.40029C45.9726 3.56144 45.8169 3.80317 45.7762 4.13353C45.7356 4.43971 45.8304 4.67338 46.0606 4.85065C46.2908 5.02791 46.6022 5.17295 46.9949 5.30187C47.3876 5.43079 47.821 5.55971 48.2949 5.70475C48.7689 5.84979 49.236 6.03511 49.6897 6.26878C50.1433 6.50245 50.5495 6.81669 50.8948 7.21957C51.2401 7.62245 51.4907 8.14619 51.6328 8.78274C51.8089 9.57238 51.7141 10.3862 51.6193 11.1678C51.4636 12.4328 50.861 13.6576 49.9469 14.3747C49.3511 14.842 48.6538 15.0032 47.9631 15.0032C47.5298 15.0032 47.0965 14.9387 46.697 14.8501C45.9793 14.6889 45.2007 14.423 44.5372 13.9476C43.9888 13.5528 43.5622 13.1016 43.2643 12.5778C43.0612 13.0613 42.9529 13.303 42.7565 13.7865C42.1065 13.6656 41.4566 13.5528 40.8066 13.4561C40.9488 12.0541 41.0977 10.6521 41.2399 9.25007C42.1539 9.33871 43.0612 9.4354 43.9752 9.5482C43.9955 10.1928 44.2122 10.7407 44.6252 11.2242C45.0382 11.7076 45.6002 12.0138 46.3111 12.1347C46.433 12.1589 46.5549 12.1669 46.6632 12.1669C46.8934 12.1669 47.0897 12.1186 47.2522 12.0138C47.4892 11.8607 47.6314 11.6271 47.6788 11.2967C47.7262 10.9341 47.6517 10.644 47.435 10.4265C47.2251 10.2089 46.9272 10.0155 46.5481 9.86245C46.1689 9.70935 45.7424 9.55626 45.282 9.40317C44.8216 9.25007 44.3612 9.06475 43.9008 8.85525C43.4471 8.64576 43.0341 8.36374 42.6685 8.01727C42.3029 7.67079 42.0253 7.23568 41.8357 6.69583C41.6461 6.15597 41.6055 5.47108 41.6732 4.66532C41.7342 3.97237 42.0591 3.11827 42.4451 2.60259C42.9258 1.96604 43.5758 1.52288 44.219 1.20058C44.9773 0.805756 45.8913 0.644604 46.7377 0.644604ZM46.7377 0C45.7424 0 44.7742 0.209496 44.0091 0.596259C43.156 1.03137 42.5128 1.53899 42.0456 2.16748C41.5852 2.78791 41.206 3.78705 41.1383 4.59281C41.0571 5.55166 41.118 6.31712 41.3415 6.93756C41.5649 7.5741 41.9034 8.1059 42.3367 8.51684C42.418 8.58935 42.4992 8.66187 42.5873 8.73439C42.1539 8.68605 41.7206 8.64576 41.2941 8.59741L40.7727 8.54907L40.7118 9.16144L40.4816 11.4256L40.2852 13.3594L40.2175 13.996L40.7456 14.0765C41.3889 14.1813 42.0388 14.2941 42.682 14.4069L43.0747 14.4794L43.2508 14.0604C43.3049 13.9315 43.3523 13.8107 43.3997 13.7059C43.6502 13.9879 43.9414 14.2458 44.2664 14.4794C44.8825 14.9226 45.6476 15.2449 46.6022 15.4705C47.083 15.5833 47.5434 15.6397 47.9699 15.6397C48.8636 15.6397 49.6287 15.3899 50.2516 14.9065C51.2672 14.1168 51.9781 12.7551 52.161 11.2564C52.2557 10.4909 52.3708 9.54015 52.161 8.60547C51.9917 7.84806 51.6938 7.21957 51.274 6.74417C51.0776 6.51856 50.861 6.30907 50.6308 6.1318C51.1589 6.17209 51.687 6.20432 52.2151 6.24461L52.6891 6.27684L52.7771 5.72086L53.5354 0.934676L53.6573 0.161151L52.9937 0.169209L50.8474 0.193381H50.5225L50.3803 0.564029L50.1365 1.12806C49.8657 0.854101 49.5542 0.628489 49.1954 0.443166C48.4303 0.0564029 47.6043 0.0161151 46.8257 0C46.8054 0 46.7715 0 46.7377 0ZM46.3111 4.2705C46.3111 4.26245 46.3111 4.25439 46.3111 4.23827C46.3247 4.1577 46.345 4.06907 46.4871 3.98043C46.6632 3.87568 46.9002 3.81928 47.1981 3.81928C47.2184 3.81928 47.2387 3.81928 47.259 3.81928C47.7262 3.82734 48.0918 3.97238 48.3829 4.26245C48.6131 4.48806 48.7485 4.79425 48.8095 5.19712C48.6808 5.15684 48.559 5.10849 48.4303 5.07626C47.9225 4.92317 47.496 4.79425 47.1371 4.67338C46.7986 4.56863 46.5345 4.43971 46.3585 4.30273C46.3314 4.29468 46.3179 4.27856 46.3111 4.2705ZM46.6632 11.5142C46.5819 11.5142 46.4939 11.5062 46.3924 11.4901C45.7965 11.3853 45.3429 11.1436 45.0044 10.7488C44.7471 10.4587 44.5981 10.1525 44.544 9.79799C44.7403 9.87856 44.9434 9.94302 45.133 10.0075C45.5799 10.1525 45.9929 10.3056 46.3653 10.4587C46.6767 10.5876 46.9137 10.7327 47.0762 10.9019C47.1236 10.9502 47.1642 11.0066 47.1371 11.1758C47.1168 11.3289 47.0627 11.3853 46.9949 11.4337C46.9137 11.4901 46.8054 11.5142 46.6632 11.5142Z" fill="black"/>
<path d="M24.1104 25.2998C23.8531 25.2676 23.4875 25.2434 22.9594 25.2031C22.5193 25.1709 22.1199 25.1306 21.849 25.0823H21.8287C21.7475 25.0581 21.6865 25.0339 21.6459 25.0017H21.6391H21.6324C21.5647 24.9453 21.524 24.8486 21.5037 24.7116C21.3751 23.7689 21.2803 22.8342 21.2261 21.8834C20.7996 22.6569 20.4272 23.4063 20.0819 24.212C20.0142 24.3732 19.9329 24.4941 19.8314 24.5505C19.7704 24.5827 19.6824 24.6069 19.5809 24.6069C19.5199 24.6069 19.4522 24.5988 19.3845 24.5907H19.3777C19.371 24.5907 19.1408 24.5505 19.1408 24.5505C18.9512 24.5182 18.8564 24.5021 18.8225 24.4941C18.7616 24.4779 18.6601 24.4538 18.5246 24.4215C18.3892 24.3812 18.2741 24.349 18.1929 24.3087C18.1116 24.2765 18.0236 24.2362 17.9288 24.1879C17.8273 24.1315 17.746 24.0751 17.6783 24.0025C17.5971 23.9139 17.5294 23.8092 17.4955 23.6964C17.4549 23.5755 17.4413 23.4788 17.4413 23.3902C17.4413 23.3176 17.4549 23.2129 17.4684 23.0598C17.4887 22.8664 17.4887 22.8261 17.4887 22.81V22.802V22.7939C17.5768 21.6981 17.6851 20.57 17.8273 19.442C17.8476 19.2647 17.8679 18.9988 17.8814 18.604C17.895 18.3059 17.9085 18.0722 17.9356 17.8869C17.7663 17.8627 17.5971 17.8224 17.4278 17.7579L17.333 17.7257L17.3533 17.621C17.4955 16.8394 17.5632 16.4607 17.7054 15.6871L17.7257 15.5824L17.8137 15.5905C18.2132 15.6388 20.2241 15.9208 20.4475 16.2834C20.61 16.5574 20.5355 17.3953 20.4001 18.749C20.3663 19.0794 20.3324 19.4178 20.3053 19.732C20.5558 19.0552 20.7183 18.612 20.8131 18.3381C21.0095 17.7821 21.1381 17.3551 21.2126 17.0892L21.2397 17.0005H21.3141C21.8897 17.0247 22.3501 17.065 22.7631 17.1294C22.8646 17.1456 22.9391 17.1859 22.9865 17.2584C23.0136 17.2987 23.0271 17.3551 23.0271 17.4437C23.0542 18.2414 23.0948 19.2486 23.1287 20.2961C23.1693 20.151 23.2167 19.9818 23.2641 19.7804C23.4266 19.168 23.5823 18.5476 23.7245 17.9433C23.9547 16.9764 23.9547 16.9764 24.0495 16.9764C24.7266 17.0166 25.4578 17.1617 26.101 17.4034L26.189 17.4356L26.1755 17.5404C26.0536 18.3461 25.8843 19.2244 25.6541 20.2235C25.451 21.1099 25.2479 21.8915 25.038 22.6166C24.7943 23.4546 24.5234 24.3087 24.212 25.2192L24.1849 25.2998H24.1104Z" fill="black"/>
<path d="M17.8068 15.7116C18.6734 15.8244 20.2103 16.0903 20.3661 16.3562C20.603 16.751 20.2103 19.0716 20.1562 20.4333C20.4947 19.5309 20.7452 18.8379 20.9077 18.3867C21.0973 17.8549 21.2259 17.4278 21.3072 17.1297C21.7879 17.1539 22.2754 17.1861 22.7493 17.2586C22.8238 17.2667 22.878 17.2989 22.9051 17.3473C22.9186 17.3634 22.9254 17.4037 22.9254 17.4601C22.966 18.6204 23.0066 19.7726 23.0472 20.9329C23.0879 20.8442 23.1962 20.4736 23.3655 19.837C23.5347 19.1924 23.6904 18.5801 23.8259 17.9919C23.968 17.4037 24.0357 17.1136 24.0493 17.1136C24.7196 17.1539 25.4305 17.2989 26.0737 17.5326C25.9383 18.435 25.7555 19.3375 25.5591 20.2077C25.3763 20.9973 25.1732 21.8031 24.943 22.5927C24.6857 23.4629 24.4149 24.3332 24.1238 25.1873C23.8597 25.155 23.4738 25.1309 22.9728 25.0906C22.4717 25.0583 22.0993 25.01 21.8691 24.9697C21.8624 24.9697 21.8624 24.9697 21.8556 24.9697C21.7811 24.9455 21.727 24.9294 21.6999 24.9052C21.6525 24.865 21.6254 24.7924 21.6119 24.6958C21.4629 23.6322 21.3681 22.6008 21.3207 21.5211C20.8265 22.3832 20.4067 23.2293 20.0004 24.1559C19.9395 24.3009 19.8718 24.3976 19.7973 24.4379C19.7499 24.4621 19.6822 24.4782 19.5874 24.4782C19.5333 24.4782 19.4723 24.4701 19.4046 24.4621C19.3979 24.4621 19.3166 24.446 19.1609 24.4218C19.0052 24.3976 18.9036 24.3815 18.8494 24.3654C18.7953 24.3573 18.7005 24.3332 18.5583 24.2929C18.4161 24.2526 18.3078 24.2204 18.2333 24.1881C18.1588 24.1559 18.0708 24.1156 17.976 24.0673C17.8812 24.0189 17.8068 23.9625 17.7526 23.9061C17.6849 23.8336 17.6307 23.745 17.5969 23.6483C17.563 23.5435 17.5495 23.4629 17.5495 23.3904C17.5495 23.3179 17.563 23.2132 17.5766 23.0681C17.5901 22.9231 17.5969 22.8345 17.5969 22.8022C17.6849 21.6822 17.7932 20.5703 17.9286 19.4583C17.9489 19.265 17.9693 18.9829 17.9828 18.6042C17.9963 18.2255 18.0234 17.9516 18.0505 17.7663C17.8474 17.7501 17.651 17.7099 17.4547 17.6373C17.5901 16.8719 17.6578 16.4851 17.8068 15.7116ZM17.6443 15.4457L17.6036 15.6552C17.4547 16.4287 17.387 16.8074 17.2516 17.589L17.2109 17.8065L17.387 17.871C17.5292 17.9274 17.6713 17.9596 17.8135 17.9838C17.8 18.153 17.7864 18.3545 17.7729 18.5881C17.7594 18.9749 17.739 19.2408 17.7187 19.4181C17.5833 20.5461 17.4682 21.6742 17.3802 22.7781V22.7942V22.8103C17.3802 22.8103 17.3802 22.8586 17.3599 23.0359C17.3464 23.189 17.3328 23.3018 17.3328 23.3743C17.326 23.4791 17.3464 23.5999 17.3937 23.7288C17.4411 23.8658 17.5088 23.9867 17.6104 24.0834C17.6849 24.1559 17.7797 24.2284 17.888 24.2848C17.9896 24.3332 18.0776 24.3815 18.1588 24.4137C18.2468 24.446 18.3619 24.4863 18.5041 24.5265C18.6395 24.5668 18.7479 24.591 18.8088 24.6071C18.8765 24.6232 18.9916 24.6393 19.127 24.6635L19.2557 24.6796C19.3098 24.6877 19.3505 24.6958 19.364 24.6958H19.3708C19.4453 24.7119 19.5197 24.7119 19.5807 24.7119C19.7025 24.7119 19.7973 24.6877 19.8786 24.6474C20.0004 24.5829 20.0952 24.446 20.1765 24.2526C20.4744 23.5596 20.7926 22.907 21.1515 22.2382C21.2056 23.0681 21.2936 23.89 21.4087 24.7199C21.4291 24.8811 21.49 25.0019 21.578 25.0825L21.5848 25.0906L21.5915 25.0986C21.6389 25.1309 21.7066 25.1631 21.8082 25.1873H21.815H21.8217H21.8285H21.8353C22.1129 25.2356 22.5124 25.2759 22.9592 25.3081C23.4873 25.3404 23.8462 25.3726 24.1035 25.4048L24.2524 25.4209L24.3066 25.2517C24.618 24.3412 24.8889 23.4871 25.1326 22.6491C25.3425 21.924 25.5456 21.1424 25.7487 20.248C25.9789 19.2488 26.1482 18.3625 26.2701 17.5487L26.3039 17.3392L26.1346 17.2747C25.4779 17.033 24.7467 16.888 24.0628 16.8477H24.0561H24.0493C23.8868 16.8477 23.8529 16.9927 23.792 17.2425C23.7582 17.3795 23.7108 17.5809 23.6295 17.9032C23.4941 18.4592 23.3519 19.0313 23.2097 19.5953C23.1826 18.7976 23.1556 18.0483 23.1353 17.4278C23.1353 17.3553 23.1285 17.2586 23.0743 17.1781C23.0269 17.1055 22.9389 17.025 22.7832 17.0008C22.3634 16.9363 21.8962 16.896 21.3207 16.8719L21.1718 16.8638L21.1244 17.033C21.0499 17.2909 20.9213 17.7179 20.7317 18.2739C20.6775 18.435 20.5963 18.6445 20.4947 18.9346C20.5015 18.8701 20.5082 18.8137 20.515 18.7493C20.664 17.3311 20.7317 16.5173 20.5489 16.2031C20.4676 16.0661 20.278 15.9211 19.4046 15.7277C18.9645 15.631 18.3755 15.5263 17.8406 15.4618L17.6443 15.4457Z" fill="black"/>
<path d="M27.9287 25.445C27.8678 25.445 27.7866 25.445 27.7459 25.437L27.7121 25.4289C27.6647 25.4209 27.6241 25.4128 27.5902 25.3806C27.5631 25.3564 27.5293 25.3081 27.5225 25.2194C27.4887 25.018 27.4616 24.8085 27.448 24.5748C27.4345 24.3492 27.4209 24.0833 27.4209 23.8013C27.4209 23.5676 27.4074 23.3742 27.4006 23.2373V23.1567C27.4006 23.1325 27.4006 23.0922 27.3939 23.0197C27.3939 22.9311 27.3871 22.8102 27.3871 22.6571C27.3803 22.367 27.3736 22.0528 27.36 21.7063C27.3532 21.3599 27.3465 21.0053 27.3329 20.6508C27.3262 20.3043 27.3126 20.0062 27.2923 19.7725C27.2855 19.6436 27.2788 19.5711 27.272 19.5227H27.0892C26.9809 19.5227 26.9064 19.5227 26.8454 19.5147H26.7507L26.7439 19.2649C26.6965 18.0643 26.6965 17.46 26.8251 17.3069C26.9267 17.186 27.1772 17.1458 27.7459 17.1458C27.9017 17.1458 28.0642 17.1458 28.2199 17.1538C28.3688 17.1538 28.5246 17.1619 28.66 17.1619C28.7277 17.1619 28.7886 17.1619 28.8428 17.1619C28.8902 17.1619 28.9308 17.1619 28.9714 17.1619C29.1881 17.1619 29.3777 17.178 29.5199 17.2102C29.5672 17.2183 29.6011 17.2263 29.635 17.2505L29.6417 17.2586L29.6756 17.2908L29.6823 17.2988C29.7094 17.3391 29.7297 17.3955 29.7365 17.4681L29.7636 17.6856C29.8042 18.0321 29.8719 18.5558 29.9464 19.2649L29.9667 19.4502C30.0344 20.0465 30.1021 20.6588 30.1698 21.247C30.2105 21.5935 30.2646 22.0206 30.3188 22.4637C30.5422 24.1478 30.6302 24.9696 30.4881 25.1791C30.3933 25.3242 30.0615 25.3645 29.1813 25.3967C29.0594 25.4047 28.9511 25.4047 28.8563 25.4128C28.8428 25.4128 28.8089 25.4128 28.7615 25.4209C28.6667 25.4289 28.5178 25.437 28.3011 25.4531C28.1386 25.437 28.0032 25.445 27.9287 25.445Z" fill="black"/>
<path d="M27.7529 17.2508C28.0576 17.2508 28.3894 17.2669 28.667 17.2669C28.7347 17.2669 28.7956 17.2669 28.8565 17.2669C28.9039 17.2669 28.9446 17.2669 28.9852 17.2669C29.2018 17.2669 29.3846 17.283 29.5201 17.3152C29.5539 17.3233 29.581 17.3313 29.6013 17.3394C29.6081 17.3474 29.6148 17.3555 29.6216 17.3636C29.6352 17.3877 29.6487 17.42 29.6487 17.4683C29.6893 17.7826 29.757 18.3869 29.8586 19.2651C29.9331 19.9259 30.0143 20.5946 30.082 21.2392C30.2174 22.5043 30.6034 24.8168 30.4273 25.0827C30.3258 25.2439 29.3779 25.2439 28.8633 25.268C28.8227 25.268 28.6399 25.2841 28.3149 25.3083C28.1456 25.3164 28.017 25.3244 27.9222 25.3244C27.8342 25.3244 27.78 25.3244 27.7597 25.3164C27.7055 25.3083 27.6649 25.3003 27.6446 25.2841C27.6243 25.268 27.6175 25.2439 27.6175 25.2036C27.5837 25.0021 27.5566 24.7926 27.543 24.567C27.5295 24.3414 27.5159 24.0836 27.5159 23.8016C27.5092 23.5115 27.5024 23.2939 27.4956 23.1569C27.4956 23.1086 27.4889 22.9394 27.4821 22.6574C27.4753 22.3673 27.4686 22.0531 27.4618 21.7066C27.455 21.3601 27.4482 21.0056 27.4347 20.651C27.4279 20.2965 27.4144 19.9984 27.3941 19.7647C27.3738 19.523 27.3602 19.4102 27.3467 19.4102C27.1097 19.4021 26.9404 19.4021 26.8457 19.4021C26.8186 18.7333 26.7576 17.5569 26.893 17.3958C26.9946 17.2749 27.3467 17.2508 27.7529 17.2508ZM27.7529 17.009C27.1368 17.009 26.8863 17.0574 26.7576 17.2105C26.6087 17.3877 26.5884 17.8309 26.6493 19.2651L26.6561 19.4021L26.6628 19.6277H26.8524C26.9066 19.6277 26.9878 19.6277 27.0894 19.6358C27.1165 19.6358 27.1503 19.6358 27.1842 19.6358C27.1842 19.6761 27.191 19.7164 27.1977 19.7728C27.218 20.0064 27.2248 20.2965 27.2383 20.643C27.2451 20.9975 27.2519 21.3521 27.2654 21.6985C27.2722 22.045 27.279 22.3673 27.2925 22.6574C27.2993 22.8105 27.2993 22.9313 27.2993 23.02C27.2993 23.0925 27.2993 23.1408 27.3061 23.165V23.2456C27.3128 23.3826 27.3196 23.5679 27.3264 23.8016C27.3331 24.0916 27.3399 24.3575 27.3534 24.5831C27.367 24.8168 27.3941 25.0344 27.4347 25.2358C27.4415 25.3728 27.5024 25.4453 27.5363 25.4775C27.5904 25.5259 27.6446 25.5339 27.7055 25.55C27.7123 25.55 27.7258 25.5581 27.7394 25.5581C27.7529 25.5581 27.7935 25.5742 27.9425 25.5742C28.0237 25.5742 28.1524 25.5742 28.342 25.5581C28.5519 25.542 28.7076 25.5339 28.8024 25.5259C28.8498 25.5259 28.8768 25.5178 28.8904 25.5178C28.9852 25.5098 29.1003 25.5098 29.2154 25.5017C30.1633 25.4695 30.4815 25.4211 30.6034 25.2358C30.7591 24.9941 30.7049 24.3575 30.4544 22.4237C30.3935 21.9805 30.3393 21.5535 30.3055 21.207C30.2445 20.6188 30.17 20.0064 30.1023 19.4102L30.082 19.2249C30.0008 18.5239 29.9398 17.9921 29.8992 17.6456L29.8721 17.428C29.8654 17.3313 29.8383 17.2588 29.7977 17.2024L29.7841 17.1863L29.7706 17.1702C29.7638 17.1621 29.757 17.1621 29.7503 17.1541L29.7367 17.138L29.7164 17.1299C29.6758 17.1057 29.6284 17.0896 29.5675 17.0816C29.4185 17.0493 29.2289 17.0251 29.0055 17.0251C28.9649 17.0251 28.9175 17.0251 28.8701 17.0251C28.8159 17.0251 28.755 17.0251 28.6873 17.0251C28.5519 17.0251 28.4029 17.0251 28.2539 17.0171C28.0711 17.009 27.9086 17.009 27.7529 17.009Z" fill="black"/>
<path d="M32.7497 25.0988C32.6076 25.0988 32.4925 25.0585 32.418 24.986C32.3435 24.9135 32.2961 24.8007 32.269 24.6073C32.2555 24.5348 32.2419 24.4381 32.2149 24.3172C32.1675 24.0674 32.1065 23.729 32.0388 23.302C31.9982 23.0361 31.9576 22.8024 31.917 22.5848C31.8628 22.2625 31.8154 21.9886 31.7883 21.7791C31.7748 21.7066 31.7545 21.5051 31.7138 21.1587C31.6935 20.9733 31.6664 20.7397 31.6326 20.4657C31.5649 19.8694 31.5175 19.4746 31.4904 19.2812C31.4701 19.2812 31.3008 19.3135 31.2467 19.3215C31.1857 19.3296 30.9826 19.3618 30.9826 19.3618L30.7389 17.1621C30.7321 17.0976 30.7389 17.0332 30.7592 16.9929C30.7863 16.9365 30.8472 16.8882 30.9217 16.8559C30.9623 16.8398 31.0232 16.8156 31.0977 16.7834C31.1451 16.7673 31.2737 16.7109 31.2737 16.7109C31.4362 16.6464 31.5581 16.5981 31.6258 16.5739C31.7003 16.5497 31.8222 16.5094 31.9914 16.4611C32.1946 16.3966 32.3367 16.3886 32.3841 16.3886C32.4518 16.3886 32.6414 16.3161 32.7091 16.2838C32.8987 16.2113 33.0273 16.171 33.1018 16.171C33.1357 16.171 33.1628 16.1791 33.1831 16.1952C33.2237 16.2194 33.244 16.2677 33.4133 16.6223C33.569 16.9526 33.806 17.4602 34.1445 18.1129C34.3138 18.4433 34.5033 18.7575 34.7132 19.0476C34.7065 19.0073 34.7065 18.967 34.6997 18.9187C34.6929 18.83 34.6862 18.7575 34.6862 18.7092C34.6862 18.6769 34.6794 18.6528 34.6794 18.6366C34.6658 18.5077 34.6252 18.3224 34.5778 18.1129C34.5643 18.0404 34.544 17.9679 34.5304 17.8953C34.4695 17.5972 34.4086 17.3071 34.3544 17.0332C34.3002 16.7592 34.2596 16.5094 34.2257 16.2758V16.2597V16.2435C34.2257 16.2274 34.2257 16.2194 34.2257 16.2194C34.2122 16.171 34.2122 16.1307 34.219 16.0905V16.0743L34.2257 16.0582C34.2935 15.9051 34.4966 15.7762 34.9367 15.6151C35.1669 15.5345 35.4445 15.4297 35.7762 15.3008C35.8304 15.2766 35.8778 15.2686 35.9184 15.2686C35.9861 15.2686 36.0335 15.3008 36.0606 15.325C36.0944 15.3572 36.1215 15.4056 36.1351 15.47C36.3653 16.1952 36.5752 16.9526 36.7783 17.6778L36.8121 17.7987C37.022 18.5561 37.2455 19.3376 37.408 20.1273C37.6178 21.1184 37.8413 22.053 38.0918 22.9797C38.1324 23.1328 38.1392 23.2456 38.1121 23.3342C38.0782 23.447 37.9902 23.5356 37.8277 23.6162C37.2319 23.9385 36.5481 24.1722 35.9049 24.285C35.871 24.293 35.8439 24.3011 35.8169 24.3011C35.7762 24.3011 35.7356 24.285 35.7085 24.2608C35.6747 24.2286 35.6408 24.1802 35.6205 24.1238C35.5866 24.0352 35.4919 23.8418 35.3091 23.4873C35.0721 23.02 34.9028 22.6976 34.808 22.5365C34.7471 22.4479 34.6862 22.3431 34.6184 22.2142C34.5846 22.1417 34.5507 22.0692 34.5101 22.0047C34.5372 22.2142 34.5643 22.4317 34.5981 22.6412C34.6591 23.1166 34.7268 23.584 34.7877 24.0594C34.8013 24.1319 34.808 24.2044 34.8013 24.2689C34.7945 24.3414 34.7674 24.4058 34.7268 24.4623C34.6929 24.5025 34.6388 24.5589 34.544 24.5912C33.9211 24.849 33.3456 25.0102 32.831 25.0585C32.8107 25.0988 32.7768 25.0988 32.7497 25.0988Z" fill="black"/>
<path d="M35.9254 15.4217C35.9592 15.4217 35.9863 15.4297 35.9998 15.4539C36.0201 15.47 36.0337 15.5023 36.0472 15.5506C36.2842 16.308 36.5009 17.0815 36.7175 17.847C36.9342 18.6205 37.1576 19.4021 37.3201 20.1998C37.5232 21.1667 37.7467 22.1095 38.0039 23.0603C38.0378 23.1811 38.0446 23.2778 38.0243 23.3423C38.0039 23.4148 37.9227 23.4873 37.8008 23.5518C37.2118 23.866 36.5347 24.1077 35.8983 24.2125C35.8712 24.2205 35.8441 24.2286 35.8306 24.2286C35.8103 24.2286 35.7967 24.2205 35.7832 24.2125C35.7629 24.1964 35.7425 24.1641 35.7222 24.1158C35.6816 24.0191 35.5801 23.8096 35.4108 23.4712C35.167 22.9958 34.9978 22.6735 34.903 22.5123C34.8421 22.4318 34.7879 22.327 34.727 22.1981C34.666 22.0692 34.6051 21.9483 34.5374 21.8355C34.4764 21.7146 34.4155 21.6099 34.3546 21.5213C34.4697 22.3834 34.5848 23.2536 34.6999 24.1158C34.7134 24.1883 34.7202 24.2447 34.7134 24.2931C34.7066 24.3414 34.6931 24.3817 34.666 24.4139C34.6389 24.4461 34.5915 24.4864 34.5306 24.5106C33.8942 24.7765 33.3254 24.9296 32.8379 24.9699C32.8041 24.9699 32.777 24.9779 32.7499 24.9779C32.6281 24.9779 32.54 24.9457 32.4791 24.8974C32.4249 24.841 32.3843 24.7362 32.364 24.5912C32.3301 24.3817 32.2421 23.9385 32.1338 23.2778C32.0255 22.6251 31.9374 22.1095 31.8833 21.7549C31.8697 21.6502 31.8156 21.207 31.7276 20.4496C31.6395 19.6922 31.5854 19.2571 31.5718 19.1443C31.5312 19.1523 31.477 19.1604 31.4093 19.1685C31.3416 19.1765 31.2807 19.1926 31.2265 19.2007C31.1656 19.2087 31.1182 19.2168 31.064 19.2249C31.037 18.9992 31.0031 18.6528 30.9489 18.1854C30.8948 17.7181 30.8609 17.3716 30.8338 17.146C30.8271 17.0977 30.8338 17.0654 30.8406 17.0493C30.8541 17.0251 30.888 16.9929 30.9489 16.9687C31.0099 16.9446 31.1317 16.8962 31.301 16.8318C31.4703 16.7673 31.5854 16.719 31.6599 16.6948C31.7343 16.6706 31.8562 16.6303 32.0187 16.582C32.188 16.5336 32.3166 16.5175 32.3843 16.5175C32.452 16.5175 32.5807 16.4772 32.7432 16.4128C32.8786 16.3564 33.0275 16.308 33.102 16.308C33.1155 16.308 33.1291 16.308 33.1359 16.3161C33.1765 16.3483 33.4744 17.0493 34.0634 18.1935C34.3072 18.6769 34.5915 19.112 34.9233 19.5069C34.8827 19.4263 34.8556 19.3457 34.8421 19.2651C34.8285 19.1846 34.815 19.0718 34.8014 18.9187C34.7879 18.7736 34.7879 18.6689 34.7811 18.6367C34.7608 18.4513 34.6931 18.1854 34.6322 17.8792C34.5645 17.5811 34.5103 17.291 34.4561 17.0171C34.402 16.7431 34.3613 16.4933 34.3275 16.2677C34.3275 16.2436 34.3275 16.2194 34.3275 16.2033C34.3207 16.171 34.3207 16.1469 34.3207 16.1308C34.3749 16.0099 34.5915 15.889 34.9707 15.752C35.2009 15.6715 35.4785 15.5667 35.8103 15.4378C35.8577 15.4297 35.8983 15.4217 35.9254 15.4217ZM35.9254 15.18C35.8712 15.18 35.817 15.188 35.7561 15.2122C35.4582 15.325 35.1738 15.4297 34.9165 15.5264C34.4426 15.7037 34.2259 15.8407 34.1447 16.0341L34.1311 16.0582L34.1244 16.0905C34.1176 16.1388 34.1176 16.1952 34.1244 16.2597V16.2919L34.1311 16.3241C34.165 16.5497 34.2124 16.8076 34.2598 17.0815C34.3139 17.3555 34.3681 17.6456 34.4358 17.9437C34.4494 18.0162 34.4697 18.0968 34.4832 18.1613C34.5306 18.3627 34.5645 18.54 34.578 18.6689C34.578 18.6689 34.578 18.6769 34.578 18.685C34.4561 18.4916 34.341 18.2902 34.2327 18.0807C33.8942 17.428 33.6572 16.9204 33.5015 16.59C33.3187 16.2033 33.2983 16.163 33.2374 16.1146C33.1968 16.0905 33.1562 16.0744 33.102 16.0744C33.0681 16.0744 32.9801 16.0744 32.6822 16.1872C32.4791 16.2677 32.4114 16.2838 32.3843 16.2838C32.3301 16.2838 32.1812 16.2919 31.9645 16.3564C31.7953 16.4128 31.6734 16.445 31.5921 16.4772C31.5177 16.5014 31.4026 16.5497 31.2468 16.6142L31.2265 16.6223C31.1656 16.6464 31.1047 16.6706 31.0573 16.6867C30.9828 16.719 30.9219 16.7431 30.8812 16.7512C30.7729 16.7915 30.6984 16.8559 30.6578 16.9446C30.6239 17.009 30.6172 17.0977 30.6239 17.1944L30.739 18.2096V18.2338L30.8541 19.2732L30.8812 19.5149L31.0843 19.4827C31.1317 19.4746 31.1927 19.4666 31.2468 19.4585C31.2942 19.4505 31.3416 19.4424 31.3958 19.4344C31.4229 19.6438 31.4635 19.9903 31.5244 20.4979C31.5583 20.7638 31.5854 20.9975 31.6057 21.1828C31.6463 21.5374 31.6734 21.7388 31.6802 21.8113C31.714 22.0289 31.7546 22.3028 31.8088 22.6171C31.8427 22.8346 31.8833 23.0764 31.9307 23.3342C31.9984 23.7693 32.0593 24.1077 32.1067 24.3575C32.127 24.4784 32.1473 24.5751 32.1609 24.6476C32.1947 24.8651 32.2557 25.0021 32.3505 25.0908C32.4452 25.1794 32.5807 25.2277 32.7432 25.2277C32.777 25.2277 32.8109 25.2277 32.8447 25.2197C33.3661 25.1713 33.9551 25.0102 34.5848 24.7443C34.6728 24.712 34.7473 24.6556 34.8082 24.5831C34.8691 24.5106 34.903 24.4139 34.9098 24.3172C34.9165 24.2447 34.9098 24.1641 34.8962 24.0755C34.8353 23.6082 34.7743 23.1408 34.7066 22.6654C34.7066 22.6493 34.6999 22.6251 34.6999 22.609C34.7134 22.6251 34.7202 22.6413 34.7337 22.6654C34.8285 22.8266 34.9978 23.1569 35.228 23.6001C35.3363 23.8177 35.492 24.1158 35.5327 24.2205C35.5665 24.3011 35.6071 24.3656 35.6545 24.4059C35.7019 24.4461 35.7561 24.4623 35.8238 24.4623C35.8576 24.4623 35.8915 24.4542 35.9321 24.4461C36.5889 24.3333 37.2795 24.0916 37.8821 23.7693C38.0649 23.6807 38.1732 23.5598 38.2138 23.4228C38.2477 23.31 38.2409 23.165 38.1935 22.9877C37.943 22.0611 37.7196 21.1345 37.5097 20.1434C37.3404 19.3538 37.1238 18.5641 36.9071 17.8067L36.9003 17.7745L36.8732 17.6778C36.6701 16.9526 36.4602 16.1952 36.23 15.47C36.2097 15.3895 36.1691 15.3169 36.1285 15.2767C36.0946 15.2283 36.0269 15.18 35.9254 15.18Z" fill="black"/>
<path d="M23.3587 17.5738C23.2165 18.162 23.0676 18.7744 22.8983 19.419C22.7291 20.0636 22.6207 20.4262 22.5801 20.5148C22.5463 19.3545 22.5056 18.2023 22.4582 17.042C22.4582 16.9856 22.4515 16.9453 22.4379 16.9292C22.4108 16.8808 22.3567 16.8567 22.2822 16.8405C21.8083 16.768 21.3208 16.7277 20.84 16.7116C20.7588 17.0097 20.6234 17.4368 20.4406 17.9686C20.2781 18.4198 20.0276 19.1047 19.689 20.0152C19.7432 18.6535 20.1359 16.3329 19.8989 15.9381C19.7432 15.6722 18.2063 15.4063 17.3396 15.2935C17.1974 16.067 17.123 16.4538 16.9875 17.2273C17.1839 17.2998 17.3802 17.3482 17.5834 17.3562C17.5563 17.5335 17.5292 17.8155 17.5157 18.1942C17.5021 18.5729 17.4818 18.8549 17.4615 19.0483C17.3261 20.1602 17.211 21.2722 17.1297 22.3922C17.1297 22.4244 17.123 22.5131 17.1094 22.6581C17.0959 22.8031 17.0823 22.9079 17.0823 22.9804C17.0823 23.0529 17.0959 23.1335 17.1297 23.2382C17.1636 23.343 17.2178 23.4236 17.2855 23.4961C17.3396 23.5525 17.4209 23.6089 17.5089 23.6572C17.6037 23.7056 17.6849 23.7459 17.7662 23.7781C17.8407 23.8103 17.949 23.8426 18.0912 23.8828C18.2333 23.9231 18.3281 23.9473 18.3823 23.9554C18.4365 23.9634 18.538 23.9876 18.6938 24.0118C18.8495 24.0359 18.9307 24.052 18.9375 24.052C19.1203 24.0843 19.2557 24.0682 19.3302 24.0279C19.4047 23.9876 19.4724 23.899 19.5333 23.7459C19.9328 22.8192 20.3593 21.9732 20.8536 21.111C20.9078 22.1908 21.0025 23.2141 21.1447 24.2857C21.1583 24.3824 21.1854 24.4549 21.2327 24.4952C21.2666 24.5194 21.314 24.5355 21.3885 24.5597C21.3952 24.5597 21.3952 24.5597 21.402 24.5597C21.6322 24.6 22.0046 24.6402 22.5056 24.6805C23.0067 24.7128 23.3926 24.745 23.6566 24.7772C23.9478 23.9231 24.2254 23.0529 24.4759 22.1827C24.7061 21.4011 24.9092 20.5954 25.092 19.7977C25.2951 18.9274 25.4779 18.025 25.6066 17.1226C24.9701 16.8889 24.2525 16.7438 23.5822 16.7036C23.5686 16.6955 23.4941 16.9856 23.3587 17.5738Z" fill="white"/>
<path d="M29.3981 18.8466C29.2966 17.9683 29.2221 17.364 29.1882 17.0497C29.1815 17.0014 29.1747 16.9692 29.1612 16.945C29.1544 16.9369 29.1476 16.9289 29.1409 16.9208C29.1205 16.9047 29.0935 16.8967 29.0596 16.8967C28.8971 16.8564 28.6737 16.8402 28.3961 16.8483C27.7529 16.8644 26.6154 16.7597 26.4461 16.9692C26.3175 17.1303 26.3717 18.3067 26.3987 18.9755C26.4935 18.9755 26.656 18.9836 26.8998 18.9836C26.9133 18.9836 26.9269 19.1044 26.9472 19.3381C26.9675 19.5798 26.9742 19.8699 26.9878 20.2244C26.9946 20.579 27.0013 20.9335 27.0149 21.28C27.0216 21.6264 27.0284 21.9487 27.0352 22.2308C27.042 22.5208 27.0487 22.682 27.0487 22.7303C27.0555 22.8673 27.0623 23.0849 27.069 23.3749C27.0758 23.665 27.0826 23.9148 27.0961 24.1404C27.1097 24.366 27.1367 24.5755 27.1706 24.7769C27.1706 24.8172 27.1774 24.8414 27.1977 24.8575C27.2112 24.8736 27.2586 24.8817 27.3128 24.8897C27.3534 24.8978 27.5362 24.9059 27.868 24.8817C28.193 24.8575 28.3758 24.8414 28.4164 24.8414C28.931 24.8172 29.8789 24.8092 29.9804 24.6561C30.1564 24.3821 29.7705 22.0777 29.6351 20.8126C29.5539 20.168 29.4794 19.4992 29.3981 18.8466Z" fill="white"/>
<path d="M37.5431 22.6416C37.2858 21.6908 37.0624 20.7481 36.8593 19.7812C36.69 18.9835 36.4733 18.2019 36.2567 17.4284C36.04 16.6629 35.8234 15.8894 35.5864 15.132C35.5728 15.0837 35.5593 15.0514 35.539 15.0353C35.5051 14.995 35.4442 14.995 35.3562 15.0272C35.0244 15.1562 34.7401 15.2529 34.5166 15.3415C34.1375 15.4785 33.9208 15.5993 33.8666 15.7202C33.8666 15.7363 33.8666 15.7605 33.8734 15.7927C33.8734 15.8088 33.8802 15.8249 33.8734 15.8572C33.9073 16.0828 33.9479 16.3326 34.0021 16.6065C34.0562 16.8805 34.1104 17.1625 34.1781 17.4687C34.2458 17.7668 34.3067 18.0327 34.327 18.2261C34.3338 18.2664 34.3338 18.3631 34.3474 18.5081C34.3609 18.6531 34.3744 18.774 34.388 18.8546C34.4015 18.9352 34.4286 19.0157 34.4692 19.0963C34.1375 18.7015 33.8531 18.2664 33.6094 17.7829C33.0203 16.6388 32.7224 15.9297 32.6818 15.9055C32.6412 15.8813 32.4516 15.9378 32.2891 16.0022C32.1266 16.0667 31.9979 16.107 31.9302 16.107C31.8625 16.107 31.7271 16.1231 31.5646 16.1714C31.3954 16.2198 31.2735 16.2601 31.2058 16.2842C31.1313 16.3084 31.0162 16.3567 30.8469 16.4212C30.6777 16.4857 30.5626 16.534 30.4949 16.5582C30.4407 16.5743 30.4001 16.6065 30.3865 16.6388C30.3798 16.6549 30.373 16.6871 30.3798 16.7354C30.4068 16.9611 30.4407 17.3075 30.4949 17.7749C30.549 18.2422 30.5829 18.5887 30.61 18.8143C30.6574 18.8062 30.7115 18.7982 30.7725 18.7901C30.8266 18.7821 30.8943 18.774 30.9553 18.7579C31.023 18.7498 31.0771 18.7337 31.1178 18.7337C31.1313 18.8465 31.1855 19.2816 31.2735 20.039C31.3615 20.7965 31.4157 21.2396 31.4292 21.3444C31.4834 21.6989 31.5714 22.2146 31.6797 22.8672C31.7881 23.5199 31.8761 23.9711 31.9099 24.1806C31.9302 24.3257 31.9709 24.4304 32.025 24.4868C32.0927 24.5513 32.2146 24.5835 32.3839 24.5674C32.8714 24.519 33.4401 24.374 34.0765 24.1081C34.1442 24.0839 34.1849 24.0437 34.2119 24.0114C34.239 23.9792 34.2593 23.9389 34.2593 23.8906C34.2661 23.8422 34.2593 23.7778 34.2458 23.7133C34.1307 22.8511 34.0156 21.9809 33.9005 21.1188C33.9547 21.2074 34.0156 21.3121 34.0833 21.433C34.1442 21.5539 34.2119 21.6747 34.2729 21.7956C34.3338 21.9245 34.3947 22.0293 34.4489 22.1098C34.5437 22.271 34.713 22.5933 34.9567 23.0687C35.126 23.4071 35.2343 23.6166 35.2682 23.7133C35.2885 23.7536 35.3088 23.7858 35.3291 23.81C35.3494 23.8261 35.39 23.8261 35.4442 23.81C36.0806 23.6972 36.7645 23.4635 37.3468 23.1493C37.4754 23.0848 37.5499 23.0123 37.5702 22.9398C37.5837 22.8511 37.577 22.7625 37.5431 22.6416Z" fill="white"/>
<path d="M17.3397 15.2606C18.2063 15.3734 19.7433 15.6393 19.899 15.9052C20.136 16.3 19.7433 18.6206 19.6891 19.9823C20.0276 19.0799 20.2781 18.3869 20.4406 17.9357C20.6302 17.4039 20.7589 16.9769 20.8401 16.6787C21.3208 16.7029 21.8083 16.7351 22.2822 16.8077C22.3567 16.8157 22.4109 16.8479 22.438 16.8963C22.4515 16.9124 22.4583 16.9527 22.4583 17.0091C22.4989 18.1694 22.5395 19.3216 22.5802 20.4819C22.6208 20.3933 22.7291 20.0226 22.8984 19.3861C23.0676 18.7415 23.2234 18.1291 23.3588 17.5409C23.501 16.9527 23.5687 16.6626 23.5822 16.6626C24.2525 16.7029 24.9634 16.8479 25.6066 17.0816C25.4712 17.9841 25.2884 18.8865 25.0921 19.7567C24.9093 20.5464 24.7061 21.3521 24.4759 22.1418C24.2187 23.012 23.9478 23.8822 23.6567 24.7363C23.3926 24.7041 23.0067 24.6799 22.5057 24.6396C22.0047 24.6074 21.6323 24.559 21.4021 24.5187C21.3953 24.5187 21.3953 24.5187 21.3885 24.5187C21.314 24.4946 21.2599 24.4785 21.2328 24.4543C21.1854 24.414 21.1583 24.3415 21.1448 24.2448C20.9958 23.1812 20.901 22.1498 20.8536 21.0701C20.3594 21.9323 19.9396 22.7783 19.5334 23.7049C19.4724 23.85 19.4047 23.9467 19.3302 23.9869C19.2829 24.0111 19.2151 24.0272 19.1204 24.0272C19.0662 24.0272 19.0053 24.0192 18.9375 24.0111C18.9308 24.0111 18.8495 23.995 18.6938 23.9708C18.5381 23.9467 18.4365 23.9305 18.3824 23.9144C18.3282 23.9064 18.2334 23.8822 18.0912 23.8419C17.949 23.8016 17.8407 23.7694 17.7662 23.7372C17.6917 23.7049 17.6037 23.6646 17.5089 23.6163C17.4142 23.5679 17.3397 23.5115 17.2855 23.4551C17.2178 23.3826 17.1636 23.294 17.1298 23.1973C17.0959 23.0926 17.0824 23.012 17.0824 22.9395C17.0824 22.8669 17.0959 22.7622 17.1095 22.6172C17.123 22.4721 17.1298 22.3835 17.1298 22.3513C17.2178 21.2313 17.3261 20.1193 17.4615 19.0074C17.4819 18.814 17.5022 18.532 17.5157 18.1533C17.5293 17.7746 17.5563 17.5006 17.5834 17.3153C17.3803 17.2992 17.184 17.2589 16.9876 17.1864C17.123 16.4209 17.1975 16.0341 17.3397 15.2606ZM17.0756 14.8174L17.0079 15.172C16.859 15.9455 16.7913 16.3242 16.6491 17.1058L16.5881 17.4603L16.8793 17.5731C16.9808 17.6134 17.0892 17.6456 17.1975 17.6698C17.184 17.8068 17.1772 17.9599 17.1704 18.1372C17.1569 18.5159 17.1366 18.7818 17.1162 18.951C16.9808 20.079 16.8657 21.2151 16.7777 22.319V22.3432V22.3593C16.7777 22.3674 16.7709 22.4238 16.7574 22.5688C16.7371 22.7219 16.7303 22.8428 16.7303 22.9233C16.7235 23.0523 16.7506 23.1892 16.798 23.3504C16.8522 23.5115 16.9334 23.6485 17.0485 23.7694C17.1298 23.858 17.2381 23.9305 17.36 23.995C17.4615 24.0514 17.5563 24.0917 17.6444 24.1239C17.7324 24.1561 17.8542 24.1964 17.9964 24.2367C18.1386 24.277 18.2469 24.3012 18.3079 24.3173C18.3756 24.3334 18.4975 24.3495 18.6329 24.3737L18.7615 24.3898C18.8157 24.3979 18.8428 24.4059 18.8631 24.4059H18.8766C18.9579 24.422 19.0323 24.4301 19.1068 24.4301C19.249 24.4301 19.3641 24.4059 19.4589 24.3495C19.6078 24.269 19.7297 24.1078 19.8177 23.8822C20.0547 23.3343 20.2984 22.8105 20.5693 22.2868C20.6234 22.9636 20.6979 23.6324 20.7927 24.3012C20.8266 24.559 20.9349 24.696 21.0161 24.7685L21.0297 24.7846L21.0432 24.7927C21.1042 24.833 21.1854 24.8733 21.2937 24.8974H21.3073H21.3208H21.3276H21.3344C21.6187 24.9458 22.0182 24.9861 22.4651 25.0183C22.9864 25.0505 23.352 25.0828 23.6025 25.115L23.853 25.1472L23.9478 24.8652C24.2593 23.9547 24.5301 23.1006 24.7738 22.2546C24.9837 21.5294 25.1869 20.7397 25.3967 19.8454C25.6269 18.8382 25.7962 17.9518 25.9181 17.13L25.9722 16.7754L25.6879 16.6707C25.0244 16.429 24.2796 16.2759 23.589 16.2356H23.5822H23.5619C23.4536 16.2356 23.3046 16.292 23.2234 16.5579C23.2098 16.5982 23.1963 16.6626 23.176 16.7432C23.1421 16.8802 23.088 17.0816 23.0135 17.412C22.9525 17.6698 22.8916 17.9277 22.8239 18.1936C22.8104 17.7585 22.7968 17.3475 22.7833 16.9769C22.7833 16.8802 22.7697 16.7513 22.6953 16.6304C22.6343 16.5418 22.5192 16.429 22.3161 16.3967C21.8896 16.3323 21.4224 16.292 20.8401 16.2597L20.5896 16.2517L20.5083 16.5418C20.4542 16.7351 20.3662 17.0172 20.2511 17.3797C20.3323 16.4128 20.3255 15.9294 20.163 15.6635C20.0682 15.5104 19.899 15.3331 18.9375 15.1236C18.4907 15.0269 17.9016 14.9222 17.3668 14.8497L17.0756 14.8174Z" fill="black"/>
<path d="M27.286 16.7996C27.5906 16.7996 27.9224 16.8157 28.2 16.8157C28.2677 16.8157 28.3286 16.8157 28.3896 16.8157C28.437 16.8157 28.4776 16.8157 28.5182 16.8157C28.7349 16.8157 28.9177 16.8318 29.0531 16.8641C29.0869 16.8721 29.114 16.8802 29.1343 16.8882C29.1411 16.8963 29.1479 16.9044 29.1547 16.9124C29.1682 16.9366 29.1817 16.9688 29.1817 17.0172C29.2224 17.3314 29.2901 17.9357 29.3916 18.814C29.4661 19.4747 29.5473 20.1435 29.6151 20.7881C29.7505 22.0531 30.1364 24.3657 29.9604 24.6315C29.8588 24.7927 28.9109 24.7927 28.3963 24.8169C28.3557 24.8169 28.1729 24.833 27.8479 24.8572C27.6786 24.8652 27.55 24.8733 27.4552 24.8733C27.3672 24.8733 27.313 24.8733 27.2927 24.8652C27.2386 24.8572 27.1979 24.8491 27.1776 24.833C27.1573 24.8169 27.1505 24.7927 27.1505 24.7524C27.1167 24.551 27.0896 24.3415 27.0761 24.1159C27.0625 23.8903 27.049 23.6324 27.049 23.3504C27.0422 23.0603 27.0354 22.8428 27.0287 22.7058C27.0287 22.6574 27.0219 22.4882 27.0151 22.2062C27.0084 21.9162 27.0016 21.6019 26.9948 21.2554C26.988 20.909 26.9813 20.5544 26.9677 20.1999C26.961 19.8454 26.9474 19.5472 26.9271 19.3136C26.9068 19.0718 26.8933 18.959 26.8797 18.959C26.6427 18.951 26.4735 18.951 26.3787 18.951C26.3516 18.2822 26.2907 17.1058 26.4261 16.9446C26.5276 16.8238 26.8797 16.7996 27.286 16.7996ZM27.286 16.3967C26.6157 16.3967 26.3516 16.4612 26.1959 16.6465C26.0131 16.8721 25.9792 17.275 26.0469 18.8221L26.0537 18.959L26.0672 19.3377H26.3855C26.4329 19.3377 26.5073 19.3377 26.5953 19.3377C26.6089 19.5633 26.6224 19.8534 26.6292 20.1999C26.636 20.5544 26.6427 20.909 26.6563 21.2554C26.6631 21.6019 26.6698 21.9242 26.6834 22.2143C26.6901 22.3674 26.6901 22.4882 26.6901 22.5769C26.6901 22.6494 26.6901 22.7058 26.6969 22.7219V22.8025C26.7037 22.9395 26.7104 23.1248 26.7104 23.3585C26.7172 23.6566 26.724 23.9225 26.7375 24.1562C26.7511 24.3898 26.7782 24.6154 26.8188 24.8169C26.8323 25.0103 26.9203 25.115 26.9745 25.1633C27.0557 25.2359 27.137 25.252 27.1979 25.2681C27.2047 25.2681 27.2182 25.2681 27.225 25.2762C27.2453 25.2842 27.2927 25.2923 27.4484 25.2923C27.5297 25.2923 27.6651 25.2923 27.8615 25.2762C28.0781 25.26 28.2271 25.252 28.3219 25.2439C28.3693 25.2439 28.3963 25.2359 28.4099 25.2359C28.5047 25.2278 28.6198 25.2278 28.7349 25.2198C29.764 25.1795 30.0687 25.1392 30.2244 24.8894C30.414 24.5993 30.3666 24.0031 30.1025 21.9564C30.0416 21.5133 29.9874 21.0862 29.9536 20.7478C29.8926 20.1596 29.8182 19.5472 29.7505 18.951L29.7302 18.7656C29.6489 18.0646 29.588 17.5328 29.5473 17.1864L29.5203 16.9688C29.5067 16.848 29.4729 16.7432 29.4187 16.6546L29.3984 16.6223L29.3713 16.5982C29.3645 16.5901 29.3578 16.5901 29.3578 16.5821L29.3307 16.5579L29.2968 16.5418C29.2427 16.5095 29.1817 16.4854 29.1073 16.4692C28.9515 16.429 28.7552 16.4128 28.5182 16.4128C28.4708 16.4128 28.4302 16.4128 28.3828 16.4128C28.3286 16.4128 28.2677 16.4128 28.2 16.4128C28.0646 16.4128 27.9224 16.4128 27.7667 16.4048C27.6109 16.3967 27.4484 16.3967 27.286 16.3967Z" fill="black"/>
<path d="M35.458 14.9706C35.4919 14.9706 35.519 14.9786 35.5325 15.0028C35.5528 15.0189 35.5664 15.0511 35.5799 15.0995C35.8169 15.8569 36.0336 16.6304 36.2502 17.3959C36.4669 18.1694 36.6903 18.951 36.8528 19.7487C37.0559 20.7156 37.2794 21.6583 37.5366 22.6091C37.5705 22.73 37.5773 22.8267 37.557 22.8911C37.5366 22.9637 37.4554 23.0362 37.3335 23.1006C36.7445 23.4149 36.0674 23.6566 35.431 23.7614C35.4039 23.7694 35.3768 23.7775 35.3633 23.7775C35.3429 23.7775 35.3294 23.7694 35.3159 23.7614C35.2956 23.7452 35.2752 23.713 35.2549 23.6647C35.2143 23.568 35.1127 23.3585 34.9435 23.0201C34.6997 22.5447 34.5305 22.2224 34.4357 22.0612C34.3747 21.9806 34.3206 21.8759 34.2596 21.747C34.1987 21.618 34.1378 21.4972 34.0701 21.3844C34.0091 21.2635 33.9482 21.1588 33.8873 21.0701C34.0024 21.9323 34.1175 22.8025 34.2326 23.6647C34.2461 23.7372 34.2529 23.7936 34.2461 23.8419C34.2393 23.8903 34.2258 23.9306 34.1987 23.9628C34.1716 23.995 34.1242 24.0353 34.0633 24.0595C33.4269 24.3254 32.8581 24.4785 32.3706 24.5188C32.3368 24.5188 32.3097 24.5268 32.2826 24.5268C32.1607 24.5268 32.0727 24.4946 32.0118 24.4462C31.9576 24.3898 31.917 24.2851 31.8967 24.1401C31.8628 23.9306 31.7748 23.4874 31.6665 22.8267C31.5582 22.174 31.4701 21.6583 31.416 21.3038C31.4024 21.1991 31.3483 20.7559 31.2602 19.9985C31.1722 19.2411 31.1181 18.806 31.1045 18.6932C31.0639 18.7012 31.0097 18.7093 30.942 18.7173C30.8743 18.7254 30.8134 18.7415 30.7592 18.7496C30.6983 18.7576 30.6509 18.7657 30.5967 18.7737C30.5696 18.5481 30.5358 18.2016 30.4816 17.7343C30.4275 17.267 30.3936 16.9205 30.3665 16.6949C30.3598 16.6465 30.3665 16.6143 30.3733 16.5982C30.3868 16.574 30.4207 16.5418 30.4816 16.5176C30.5426 16.4934 30.6644 16.4451 30.8337 16.3806C31.003 16.3162 31.1181 16.2678 31.1925 16.2437C31.267 16.2195 31.3889 16.1792 31.5514 16.1309C31.7207 16.0825 31.8493 16.0664 31.917 16.0664C31.9847 16.0664 32.1134 16.0261 32.2758 15.9616C32.4113 15.9052 32.5602 15.8569 32.6347 15.8569C32.6482 15.8569 32.6618 15.8569 32.6685 15.865C32.7092 15.8972 33.0071 16.5982 33.5961 17.7424C33.8399 18.2258 34.1242 18.6609 34.456 19.0557C34.4154 18.9752 34.3883 18.8946 34.3747 18.814C34.3612 18.7334 34.3477 18.6206 34.3341 18.4675C34.3206 18.3225 34.3206 18.2178 34.3138 18.1855C34.2935 18.0002 34.2258 17.7343 34.1649 17.4281C34.0971 17.13 34.043 16.8399 33.9888 16.566C33.9347 16.292 33.894 16.0422 33.8602 15.8166C33.8602 15.7924 33.8602 15.7683 33.8602 15.7521C33.8534 15.7199 33.8534 15.6957 33.8534 15.6796C33.9076 15.5588 34.1242 15.4379 34.5034 15.3009C34.7336 15.2203 35.0112 15.1156 35.3429 14.9867C35.3903 14.9786 35.431 14.9706 35.458 14.9706ZM35.458 14.5677C35.3903 14.5677 35.3226 14.5838 35.2482 14.608C34.9502 14.7208 34.6659 14.8255 34.4086 14.9222C33.8873 15.1156 33.6571 15.2687 33.5555 15.5104L33.5352 15.5507L33.5284 15.5991C33.5149 15.6635 33.5149 15.736 33.5284 15.8166V15.8408L33.5352 15.8891C33.569 16.1228 33.6164 16.3806 33.6638 16.6546C33.7045 16.8883 33.7586 17.13 33.806 17.3798C33.5149 16.7996 33.2982 16.3565 33.156 16.0503C32.9597 15.6393 32.9326 15.5829 32.8378 15.5185C32.7769 15.4782 32.7092 15.454 32.6347 15.454C32.5941 15.454 32.4857 15.454 32.1743 15.5749C31.9982 15.6474 31.9373 15.6555 31.917 15.6635C31.8425 15.6635 31.6868 15.6796 31.4701 15.7441C31.2941 15.8005 31.1722 15.8327 31.0978 15.865C31.0233 15.8891 30.9082 15.9375 30.7457 16.0019L30.7254 16.01C30.6644 16.0342 30.6035 16.0583 30.5561 16.0744C30.4816 16.1067 30.4207 16.1309 30.3868 16.1389C30.2447 16.1873 30.1363 16.2839 30.0822 16.4048C30.0348 16.5015 30.0212 16.6224 30.0348 16.7513L30.1499 17.7746V17.7988L30.265 18.8382L30.3124 19.2411L30.6509 19.1847C30.7051 19.1766 30.7592 19.1686 30.8134 19.1605C30.8202 19.1605 30.8202 19.1605 30.8269 19.1605C30.854 19.37 30.8879 19.6681 30.9353 20.0629C30.9691 20.3288 30.9962 20.5625 31.0165 20.7478C31.0571 21.1024 31.0842 21.3038 31.091 21.3763C31.1248 21.5939 31.1722 21.8678 31.2196 22.1901C31.2535 22.4077 31.2941 22.6494 31.3415 22.9073C31.416 23.3424 31.4769 23.6808 31.5175 23.9306C31.5378 24.0514 31.5582 24.1481 31.5717 24.2206C31.5988 24.3818 31.6529 24.6155 31.8087 24.7605C31.9305 24.8733 32.0863 24.9297 32.2894 24.9297C32.3232 24.9297 32.3639 24.9297 32.4045 24.9216C32.9394 24.8733 33.5352 24.7041 34.1784 24.4382C34.2867 24.3979 34.3815 24.3254 34.456 24.2367C34.5372 24.132 34.5846 24.0111 34.5982 23.8742C34.6049 23.7855 34.5982 23.6888 34.5779 23.5841C34.544 23.3424 34.5169 23.1006 34.4831 22.867C34.5372 22.9717 34.5982 23.0926 34.6659 23.2215C34.7268 23.3424 34.9232 23.7211 34.9638 23.8339C35.0044 23.9386 35.0586 24.0192 35.1331 24.0837C35.1805 24.1239 35.2617 24.1723 35.3768 24.1723C35.4174 24.1723 35.4648 24.1642 35.5122 24.1562C36.1757 24.0434 36.8799 23.7936 37.4892 23.4632C37.7059 23.3504 37.8413 23.2054 37.8955 23.0201C37.9429 22.867 37.9361 22.6978 37.8752 22.4802C37.6247 21.5616 37.4012 20.635 37.1981 19.6439C37.0288 18.8462 36.8054 18.0566 36.5955 17.2911L36.5887 17.2589L36.5617 17.1622C36.3585 16.437 36.1487 15.6796 35.9117 14.9464C35.8778 14.8336 35.8304 14.745 35.7695 14.6805C35.7018 14.6321 35.6002 14.5677 35.458 14.5677Z" fill="black"/>
</g>
<defs>
<linearGradient id="paint0_linear_38_546" x1="5.97052" y1="9.98408" x2="10.5417" y2="9.98408" gradientUnits="userSpaceOnUse">
<stop stop-color="white"/>
<stop offset="1"/>
</linearGradient>
<linearGradient id="paint1_linear_38_546" x1="44.24" y1="9.98335" x2="48.8112" y2="9.98335" gradientUnits="userSpaceOnUse">
<stop stop-color="white"/>
<stop offset="1"/>
</linearGradient>
<linearGradient id="paint2_linear_38_546" x1="8.23565" y1="1.42306" x2="8.23565" y2="14.969" gradientUnits="userSpaceOnUse">
<stop stop-color="#FF0400"/>
<stop offset="0.14" stop-color="#FF2B00"/>
<stop offset="0.4549" stop-color="#FF7F00"/>
<stop offset="0.713" stop-color="#FFBD00"/>
<stop offset="0.9012" stop-color="#FFE300"/>
<stop offset="1" stop-color="#FFF100"/>
</linearGradient>
<linearGradient id="paint3_linear_38_546" x1="22.0387" y1="1.17066" x2="22.0387" y2="12.8673" gradientUnits="userSpaceOnUse">
<stop stop-color="#FF0400"/>
<stop offset="0.14" stop-color="#FF2B00"/>
<stop offset="0.4549" stop-color="#FF7F00"/>
<stop offset="0.713" stop-color="#FFBD00"/>
<stop offset="0.9012" stop-color="#FFE300"/>
<stop offset="1" stop-color="#FFF100"/>
</linearGradient>
<linearGradient id="paint4_linear_38_546" x1="34.875" y1="0.816783" x2="34.875" y2="12.9782" gradientUnits="userSpaceOnUse">
<stop stop-color="#FF0400"/>
<stop offset="0.14" stop-color="#FF2B00"/>
<stop offset="0.4549" stop-color="#FF7F00"/>
<stop offset="0.713" stop-color="#FFBD00"/>
<stop offset="0.9012" stop-color="#FFE300"/>
<stop offset="1" stop-color="#FFF100"/>
</linearGradient>
<linearGradient id="paint5_linear_38_546" x1="46.9106" y1="0.630579" x2="46.9106" y2="14.9894" gradientUnits="userSpaceOnUse">
<stop stop-color="#FF0400"/>
<stop offset="0.14" stop-color="#FF2B00"/>
<stop offset="0.4549" stop-color="#FF7F00"/>
<stop offset="0.713" stop-color="#FFBD00"/>
<stop offset="0.9012" stop-color="#FFE300"/>
<stop offset="1" stop-color="#FFF100"/>
</linearGradient>
<linearGradient id="paint6_linear_38_546" x1="1.78996" y1="8.21037" x2="14.681" y2="8.21037" gradientUnits="userSpaceOnUse">
<stop stop-color="#FF0400"/>
<stop offset="0.14" stop-color="#FF2B00"/>
<stop offset="0.4549" stop-color="#FF7F00"/>
<stop offset="0.713" stop-color="#FFBD00"/>
<stop offset="0.9012" stop-color="#FFE300"/>
<stop offset="1" stop-color="#FFF100"/>
</linearGradient>
<linearGradient id="paint7_linear_38_546" x1="15.7246" y1="7.03338" x2="28.3531" y2="7.03338" gradientUnits="userSpaceOnUse">
<stop stop-color="#FF0400"/>
<stop offset="0.14" stop-color="#FF2B00"/>
<stop offset="0.4549" stop-color="#FF7F00"/>
<stop offset="0.713" stop-color="#FFBD00"/>
<stop offset="0.9012" stop-color="#FFE300"/>
<stop offset="1" stop-color="#FFF100"/>
</linearGradient>
<linearGradient id="paint8_linear_38_546" x1="29.3303" y1="6.91131" x2="40.4193" y2="6.91131" gradientUnits="userSpaceOnUse">
<stop stop-color="#FF0400"/>
<stop offset="0.14" stop-color="#FF2B00"/>
<stop offset="0.4549" stop-color="#FF7F00"/>
<stop offset="0.713" stop-color="#FFBD00"/>
<stop offset="0.9012" stop-color="#FFE300"/>
<stop offset="1" stop-color="#FFF100"/>
</linearGradient>
<linearGradient id="paint9_linear_38_546" x1="40.8082" y1="7.82424" x2="53.0122" y2="7.82424" gradientUnits="userSpaceOnUse">
<stop stop-color="#FF0400"/>
<stop offset="0.14" stop-color="#FF2B00"/>
<stop offset="0.4549" stop-color="#FF7F00"/>
<stop offset="0.713" stop-color="#FFBD00"/>
<stop offset="0.9012" stop-color="#FFE300"/>
<stop offset="1" stop-color="#FFF100"/>
</linearGradient>
<clipPath id="clip0_38_546">
<rect width="56" height="28" fill="white"/>
</clipPath>
</defs>
</svg>
