<svg fill="none" height="36" viewBox="0 0 204 36" width="204" xmlns="http://www.w3.org/2000/svg" xmlns:xlink="http://www.w3.org/1999/xlink"><linearGradient id="a" gradientUnits="userSpaceOnUse" x1="202.404" x2="16.6825" y1=".000003" y2="74.4729"><stop offset="0" stop-color="#ff0daf"/><stop offset="1" stop-color="#ff751f"/></linearGradient><path d="m136.468 0h-130.28421l-6.18379 36h130.284z" fill="url(#a)"/><g fill="#fff"><path d="m7.57541 31.217 4.62639-26.23359h8.0287c2.5682 0 4.3503.88286 5.3464 2.64858.9961 1.75372 1.2061 4.25211.6301 7.49531l-1.0981 6.1801c-.5521 3.171-1.7222 5.6154-3.5103 7.3331-1.7762 1.7177-3.8643 2.5765-6.2645 2.5765zm7.23659-5.0089h.7741c.636 0 1.1521-.2462 1.5481-.7387.408-.5045.7081-1.2972.9001-2.3783l1.7101-9.7836c.204-1.093.186-1.8738-.054-2.3423-.24-.4804-.666-.7146-1.2781-.7026h-.792z"/><path d="m23.2727 31.217 9.2888-26.25161h8.1727l-.09 26.25161h-6.5346l.5041-13.6933c.024-.4685.084-1.1712.18-2.1081.096-.9489.15-1.5435.162-1.7837h-.072c-.072.2402-.222.8288-.45 1.7657-.2281.9369-.4081 1.6456-.5401 2.1261l-4.1223 13.6933zm4.9324-4.7746 1.3682-4.6846h8.2626l-.252 4.6846z"/><path d="m44.4065 31.217 1.6021-9.0808-2.4122-17.15279h6.8226l.324 9.29709c.024.2162.03.4745.018.7747v.6847h.072c.048-.1682.12-.4024.216-.7027.1081-.3003.2041-.5525.2881-.7567l3.5823-9.29709h6.2825l-8.5507 17.08069-1.6202 9.1529z"/><path d="m62.3625 10.8391 1.026-5.85569h14.6173l-1.0261 5.85569h-3.9784l-3.6003 20.3779h-6.6245l3.5823-20.3779z"/><path d="m75.4496 21.3254 1.188-6.7566c.6001-3.3994 1.7882-5.9098 3.5644-7.53139 1.7761-1.62158 3.9543-2.43237 6.5345-2.43237 2.6402 0 4.5544.81079 5.7425 2.43237 1.2001 1.62159 1.5061 4.12599.918 7.51339l-1.2061 6.7746c-.588 3.3873-1.7881 5.9458-3.6003 7.6755-1.8001 1.7176-3.9963 2.5765-6.5885 2.5765-2.5682 0-4.4524-.8589-5.6525-2.5765-1.2001-1.7177-1.5001-4.2762-.9-7.6755zm6.4625 2.2161c-.192 1.0811-.198 1.8318-.018 2.2522.18.4084.522.6126 1.0261.6126.492 0 .906-.2102 1.2421-.6306.348-.4204.618-1.1651.8101-2.2342l1.9081-10.8646c.18-.997.174-1.7056-.018-2.1261-.18-.4324-.522-.64859-1.0261-.64859-.504 0-.9241.21619-1.2601.64859-.324.4205-.576 1.1291-.7561 2.1261z"/><path d="m92.0829 31.217 4.6264-26.23359h6.1567l.666 11.65739c.024.2402.042.6426.054 1.2072.012.5525.012.9849 0 1.2972h.072c.048-.3123.12-.7507.216-1.3152.096-.5646.168-.967.216-1.2072l2.052-11.63939h6.049l-4.627 26.23359h-5.994l-.846-11.3691c-.036-.2162-.066-.6006-.09-1.1531-.024-.5646-.036-.997-.036-1.2973h-.054c-.048.2883-.12.7207-.216 1.2973s-.162.979-.198 1.2072l-1.9986 11.315z"/><path d="m108.356 31.217 9.289-26.25161h8.173l-.09 26.25161h-6.535l.504-13.6933c.024-.4685.084-1.1712.18-2.1081.096-.9489.15-1.5435.162-1.7837h-.072c-.072.2402-.222.8288-.45 1.7657s-.408 1.6456-.54 2.1261l-4.122 13.6933zm4.933-4.7746 1.368-4.6846h8.263l-.253 4.6846z"/><path d="m187.513 4.39252-4.826 27.21498h5.22l2.573-14.486c.05-.2991.119-.7165.206-1.2523.088-.5483.157-.9907.207-1.3271h.075c.012.3364.037.7601.075 1.271s.081.9096.131 1.1962l2.31 14.5982h5.69l4.826-27.21498h-5.22l-2.629 14.78508c-.063.299-.144.7227-.244 1.271-.088.5483-.157.9907-.207 1.3271h-.075c-.013-.3364-.038-.7664-.075-1.2897-.025-.5358-.063-.9471-.113-1.2337l-2.141-14.85978z"/><path d="m178.518 4.39252-4.826 27.21498h5.878l4.826-27.21498z"/><path d="m169.091 4.39252c2.391 0 4.075.76013 5.052 2.28038.976 1.50779 1.195 3.8318.657 6.972-.551 3.1401-1.602 5.4641-3.155 6.9719-1.552 1.5078-3.518 2.2617-5.896 2.2617h-2.836l-1.577 8.729h-5.84l4.826-27.21498zm-5.408 14.13088h2.009c.914 0 1.609-.3178 2.085-.9533.476-.648.882-1.9252 1.22-3.8318.313-1.7944.345-3.0343.094-3.7196-.238-.68537-.826-1.02181-1.765-1.00935h-1.99z"/><path d="m144.022 26.9346c.351.4735.933.7103 1.746.7103.789 0 1.428-.2243 1.916-.6729s.832-1.2337 1.033-2.3552c.2-1.0218.075-1.838-.376-2.4486-.438-.6106-1.308-1.3208-2.61-2.1308-1.953-1.0966-3.361-2.3427-4.225-3.7383-.852-1.3957-1.096-3.0655-.733-5.0094.439-2.44235 1.471-4.26789 3.099-5.47662 1.64-1.20872 3.674-1.81308 6.103-1.81308 2.416 0 4.193.60436 5.333 1.81308 1.139 1.19627 1.521 2.85359 1.145 4.97192l-.338 1.944h-5.427l.301-1.6075c.15-.8723.081-1.52648-.207-1.96262-.275-.4486-.782-.6729-1.521-.6729-.726 0-1.296.18692-1.709.56075-.413.36137-.701.99687-.863 1.90657-.151.7601.012 1.433.488 2.0187.488.5856 1.339 1.2398 2.554 1.9626 1.99 1.0592 3.398 2.2741 4.225 3.6448.826 1.3583 1.026 3.2275.601 5.6075-.464 2.5919-1.515 4.5421-3.155 5.8505s-3.75 1.9626-6.328 1.9626c-2.554 0-4.451-.5794-5.69-1.7383-1.24-1.1714-1.646-2.9907-1.221-5.458l.376-2.0187h5.596l-.32 1.7944c-.2 1.0966-.131 1.8817.207 2.3552z"/></g></svg>
