<svg width="184" height="26" viewBox="0 0 184 26" fill="none" xmlns="http://www.w3.org/2000/svg">
<g clip-path="url(#clip0_18803_32892)">
<path d="M8.18854 16.6097H14.3832V10.2088H8.18854V7.5437H16.2121V1.25837H0.663086V24.5819H8.18854V16.6097Z" fill="#2A5FBF"/>
<path d="M25.6519 1.25837H17.9864V24.5819H25.6519V1.25837Z" fill="#2A5FBF"/>
<path d="M37.0296 18.4891C36.7417 18.674 36.2592 18.7972 35.6522 18.7972C33.442 18.7972 31.0451 17.7574 29.1073 16.5789L28.6248 16.2862L27.3407 22.9027L27.5664 23.0414C29.473 24.2045 32.5859 25.1211 35.9401 25.1211C38.8662 25.1211 41.1542 24.3662 42.7029 22.9797C44.2593 21.5933 45.0453 19.606 45.0453 17.2644C45.0453 15.0229 44.1893 13.4054 42.9208 12.2808C41.6601 11.1485 40.018 10.4784 38.4304 9.97003C37.551 9.68503 36.7028 9.35382 36.1113 8.9995C35.8156 8.82234 35.5821 8.62977 35.4342 8.46032C35.2864 8.28316 35.2319 8.13681 35.2319 7.99046C35.2319 7.62073 35.3331 7.45898 35.5199 7.31263C35.7144 7.17398 36.0724 7.07385 36.5938 7.07385C38.3915 7.07385 40.8818 8.05208 42.8819 9.25369L43.3644 9.54638L44.6095 2.92214L44.3683 2.78349C42.4383 1.67431 39.769 0.75 36.2047 0.75C33.4264 0.75 31.2863 1.45094 29.8388 2.77579C28.3913 4.09293 27.6831 6.01088 27.6831 8.28316C27.6831 10.6402 28.6403 12.327 29.9633 13.4824C31.2863 14.6455 32.9517 15.3156 34.407 15.7932C35.4576 16.1321 36.267 16.4402 36.7728 16.756C37.0296 16.9178 37.2008 17.0718 37.302 17.2259C37.4032 17.3799 37.4576 17.534 37.4576 17.7343C37.4576 18.0809 37.3253 18.2889 37.0374 18.4814L37.0296 18.4891Z" fill="#2A5FBF"/>
<path d="M54.602 16.1783H59.1157V24.5819H66.7812V1.25837H59.1157V9.48476H54.602V1.25837H46.9364V24.5819H54.602V16.1783Z" fill="#2A5FBF"/>
<path d="M108.992 12.2885C107.731 11.1562 106.089 10.4861 104.502 9.97773C103.622 9.69273 102.774 9.36152 102.183 9.0072C101.887 8.83004 101.654 8.63748 101.506 8.46802C101.358 8.29086 101.303 8.14451 101.303 7.99816C101.303 7.62843 101.405 7.46668 101.591 7.32033C101.786 7.18168 102.144 7.08155 102.665 7.08155C104.463 7.08155 106.953 8.05978 108.953 9.26139L109.436 9.55409L110.681 2.92984L110.44 2.79119C108.502 1.67431 105.84 0.75 102.268 0.75C99.4901 0.75 97.35 1.45094 95.9025 2.77579C94.455 4.09293 93.7468 6.00318 93.7468 8.28316C93.7468 10.6402 94.704 12.327 96.027 13.4824C97.35 14.6455 99.0154 15.3156 100.471 15.7932C101.521 16.1321 102.331 16.4402 102.836 16.756C103.093 16.9178 103.264 17.0718 103.366 17.2259C103.467 17.3799 103.521 17.534 103.521 17.7343C103.521 18.0809 103.389 18.2889 103.101 18.4814C102.813 18.6663 102.331 18.7895 101.724 18.7895C99.5134 18.7895 97.1165 17.7497 95.1787 16.5712L94.6962 16.2785L93.4121 22.895L93.6378 23.0337C95.5445 24.2045 98.6574 25.1134 102.012 25.1134C104.938 25.1134 107.226 24.3585 108.774 22.972C110.331 21.5856 111.117 19.5983 111.117 17.2567C111.117 15.0152 110.261 13.3977 108.992 12.2731V12.2885Z" fill="#2A5FBF"/>
<path d="M121.74 1.25837H113V24.5896H120.705V18.5276H121.335C124.533 18.5276 127.024 17.7651 128.72 16.2554C130.425 14.7456 131.281 12.5119 131.273 9.73125C131.273 7.2279 130.409 5.08657 128.759 3.59226C127.109 2.09796 124.72 1.25837 121.732 1.26608L121.74 1.25837ZM122.915 11.8726C122.518 12.2885 121.887 12.535 120.93 12.5581H120.526V7.44357H121.047C121.911 7.44357 122.518 7.66695 122.915 8.05208C123.312 8.43721 123.537 9.02261 123.545 9.8776C123.545 10.8173 123.319 11.4566 122.922 11.8803L122.915 11.8726Z" fill="#2A5FBF"/>
<path d="M133.055 24.5819H140.728V1.25837H133.055V24.5819Z" fill="#2A5FBF"/>
<path d="M156.869 11.7339L151.592 1.25837H143.374V24.5819H150.573V14.1063L155.958 24.7976H164.067V1.25837H156.869V11.7339Z" fill="#2A5FBF"/>
<path d="M181.546 12.2885C180.286 11.1562 178.643 10.4861 177.056 9.97773C176.177 9.69273 175.328 9.36152 174.737 9.0072C174.441 8.83004 174.208 8.63748 174.06 8.46802C173.912 8.29086 173.857 8.14451 173.857 7.99816C173.857 7.62843 173.959 7.46668 174.145 7.32033C174.34 7.18168 174.698 7.08155 175.219 7.08155C177.017 7.08155 179.507 8.05978 181.507 9.26139L181.99 9.55409L183.235 2.92984L182.994 2.79119C181.048 1.67431 178.387 0.75 174.815 0.75C172.036 0.75 169.896 1.45094 168.449 2.77579C167.001 4.09293 166.293 6.00318 166.293 8.28316C166.293 10.6402 167.25 12.327 168.573 13.4824C169.896 14.6455 171.562 15.3156 173.017 15.7932C174.068 16.1321 174.877 16.4402 175.383 16.756C175.64 16.9178 175.811 17.0718 175.912 17.2259C176.013 17.3799 176.068 17.534 176.068 17.7343C176.068 18.0809 175.935 18.2889 175.647 18.4814C175.359 18.6663 174.877 18.7895 174.27 18.7895C172.06 18.7895 169.663 17.7497 167.725 16.5712L167.242 16.2785L165.958 22.895L166.184 23.0337C168.091 24.2045 171.204 25.1134 174.558 25.1134C177.484 25.1134 179.772 24.3585 181.321 22.972C182.877 21.5856 183.663 19.5983 183.663 17.2567C183.663 15.0152 182.807 13.3977 181.539 12.2731L181.546 12.2885Z" fill="#2A5FBF"/>
<path d="M84.626 23.3341C84.2213 22.4406 83.6921 21.4084 83.1162 20.4148C81.3418 22.6023 79.2328 23.4958 77.4196 23.4958C74.0732 23.4958 71.4895 21.3776 71.4895 17.896C71.4895 15.1462 73.2327 13.0588 75.4429 12.458C74.1666 11.6261 72.8981 9.90841 72.8981 7.78249C72.8981 4.86319 75.0771 1.81296 79.1628 1.81296C82.6415 1.81296 85.4275 3.63848 85.4275 6.81966C85.4275 9.10734 83.7543 10.6325 82.1123 11.1947C82.5792 11.5568 83.1862 12.0574 83.7855 12.6197L84.8594 9.86989H90.3537C86.5715 15.8702 86.5326 15.8702 86.5715 15.901L90.7273 22.2018L84.6337 23.3264L84.626 23.3341ZM77.8632 14.1525C77.2951 14.7842 76.9215 15.6777 76.9215 16.5095C76.9215 18.104 77.8242 18.8665 78.6959 18.8665C79.6686 18.8665 80.3379 18.1733 80.9761 17.0795C79.9021 15.7547 78.9371 14.9228 77.8632 14.1602V14.1525ZM79.2017 5.7644C78.5013 5.7644 77.9643 6.55777 77.9643 7.5206C77.9643 8.68369 78.7348 9.37693 79.6064 9.90841C80.1434 9.27679 80.5403 8.68369 80.5403 7.62073C80.5403 6.42683 79.941 5.7644 79.2017 5.7644Z" fill="#2A5FBF"/>
</g>
<defs>
<clipPath id="clip0_18803_32892">
<rect width="183" height="25" fill="white" transform="translate(0.5 0.5)"/>
</clipPath>
</defs>
</svg>
