<svg width="172" height="136" viewBox="0 0 172 136" fill="none" xmlns="http://www.w3.org/2000/svg">
<g clip-path="url(#clip0_16360_350018)">
<path d="M9.26925 88.8865V67.8846C9.26925 65.3102 8.67516 63.0879 6.29883 61.3167H19.9407C17.5204 63.0989 16.9703 65.3212 16.9703 67.8846V75.8387H30.7663V67.8846C30.7663 65.3102 30.1722 63.0879 27.7959 61.3167H41.4378C39.0174 63.0989 38.4674 65.3212 38.4674 67.8846V88.8865C38.4674 91.4609 39.0064 93.6832 41.4378 95.4655H27.7959C30.1722 93.6832 30.7663 91.4609 30.7663 88.8865V80.0853H16.9703V88.8865C16.9703 91.4609 17.5094 93.6832 19.9407 95.4655H6.29883C8.67516 93.6832 9.26925 91.4609 9.26925 88.8865Z" fill="#CB9D64"/>
<path d="M46.7845 88.6114C50.393 80.5803 54.8157 68.8966 54.8157 66.8283C54.8157 65.9702 54.1776 64.749 53.7265 64.298H63.1548C64.277 69.2597 68.2485 80.1732 72.0441 88.6554C73.3533 91.5818 74.5744 94.1122 75.6526 95.4654H64.013C65.2781 94.5632 65.9052 93.6611 65.9052 92.0879C65.9052 88.7984 63.3749 86.7191 58.3252 86.7191C55.4428 86.7191 53.0444 87.3572 51.3392 88.2043C51.0201 89.2385 50.8441 90.0966 50.8441 90.7237C50.8441 92.0769 51.4822 94.4202 52.5603 95.4654H43C43.9021 94.6512 45.2993 91.9449 46.7845 88.6114ZM60.4485 82.8796C61.0755 82.8796 61.7136 82.9236 62.3407 83.0116C61.1196 79.8102 59.0513 74.6174 57.7421 71.0969C56.6089 74.9365 54.1776 80.3932 52.5053 84.7608C54.7607 83.5397 57.6981 82.8686 60.4485 82.8686V82.8796Z" fill="#CB9D64"/>
<path d="M79.4056 89.4585V70.2938C79.4056 67.9505 78.8665 65.9152 76.6992 64.298H92.5745C98.4823 64.298 102.047 67.0484 102.047 71.9661C102.047 76.4327 99.0764 79.5461 95.3688 80.8113C99.2524 82.2525 101.013 86.092 102.223 90.5587C102.63 92.1429 103.532 94.2112 105.424 95.4764H94.0597C95.0498 94.7063 95.4569 93.4521 95.4129 91.8679C95.3688 87.6763 92.0354 83.1656 87.2057 83.1656C86.8867 83.1656 86.5676 83.1656 86.2596 83.2096V89.4805C86.2596 91.8238 86.7986 93.8591 88.9659 95.4764H76.6992C78.8665 93.8481 79.4056 91.8238 79.4056 89.4805V89.4585ZM89.7361 79.6231C92.7175 79.6231 95.1928 77.2798 95.1928 73.0882C95.1928 69.3037 93.1685 67.6314 90.2311 67.6314H86.2596V79.6341H89.7361V79.6231Z" fill="#CB9D64"/>
<path d="M109.548 89.4585V70.2938C109.548 67.9505 109.009 65.9152 106.842 64.298H122.717C128.625 64.298 132.189 67.0484 132.189 71.9661C132.189 76.4327 129.219 79.5461 125.511 80.8113C129.395 82.2525 131.155 86.092 132.365 90.5587C132.772 92.1429 133.675 94.2112 135.567 95.4764H124.202C125.192 94.7063 125.599 93.4521 125.555 91.8679C125.511 87.6763 122.178 83.1656 117.348 83.1656C117.029 83.1656 116.721 83.1656 116.402 83.2096V89.4805C116.402 91.8238 116.941 93.8591 119.109 95.4764H106.842C109.009 93.8481 109.548 91.8238 109.548 89.4805V89.4585ZM119.879 79.6231C122.86 79.6231 125.335 77.2798 125.335 73.0882C125.335 69.3037 123.311 67.6314 120.374 67.6314H116.402V79.6341H119.879V79.6231Z" fill="#CB9D64"/>
<path d="M146.196 89.4585V84.0458C143.985 80.0742 141.146 75.1565 138.572 71.0529C136.768 68.2145 135.194 65.9042 133.742 64.287H146.548C145.426 64.7821 144.832 65.7282 144.832 66.6303C144.832 68.4346 147.582 73.3523 151.466 79.6672C154.711 74.7055 157.693 69.7878 157.693 67.6205C157.693 66.4873 157.054 65.1451 156.02 64.287H165.625C164.183 65.9152 162.555 68.2585 160.795 71.0529C158.221 75.2005 155.382 80.0742 153.171 84.0898V89.4585C153.171 91.8019 153.71 93.8371 155.921 95.4544H143.468C145.635 93.8261 146.174 91.8019 146.174 89.4585H146.196Z" fill="#CB9D64"/>
<path d="M0.298828 118.437C0.298828 105.587 9.00105 99.855 17.9893 99.855C22.687 99.855 25.8444 101.483 28.7158 101.483V112.606C25.6464 106.225 22.0379 103.86 17.5933 103.86C13.1486 103.86 8.79202 106.137 8.79202 116.951C8.79202 127.766 13.2366 131.484 18.3304 131.484C22.1369 131.484 25.7454 129.46 28.7158 124.862V133.806C25.5034 133.806 21.9389 135.489 16.8562 135.489C8.30796 135.489 0.298828 130.747 0.298828 118.437Z" fill="#CB9D64"/>
<path d="M35.2845 127.898C38.893 119.867 43.3157 108.183 43.3157 106.115C43.3157 105.257 42.6776 104.036 42.2265 103.585H51.6548C52.777 108.546 56.7486 119.46 60.5441 127.942C61.8533 130.868 63.0744 133.399 64.1526 134.752H52.513C53.7781 133.85 54.4052 132.948 54.4052 131.375C54.4052 128.085 51.8749 126.006 46.8252 126.006C43.9428 126.006 41.5444 126.644 39.8392 127.491C39.5201 128.525 39.3441 129.383 39.3441 130.01C39.3441 131.364 39.9822 133.707 41.0603 134.752H31.5C32.4021 133.938 33.7993 131.231 35.2845 127.898ZM48.9595 122.166C49.5865 122.166 50.2246 122.21 50.8517 122.298C49.6306 119.097 47.5623 113.904 46.2531 110.384C45.1199 114.223 42.6886 119.68 41.0163 124.047C43.2717 122.826 46.2091 122.155 48.9595 122.155V122.166Z" fill="#CB9D64"/>
<path d="M66.1094 134.257V124.245C68.8598 129.834 73.3704 132.101 76.9789 132.101C80.0923 132.101 81.4015 130.615 81.4015 128.492C81.4015 121.682 66.1974 121.594 66.1974 111.803C66.1974 106.478 70.752 102.913 76.9789 102.913C80.6754 102.913 83.1178 104.223 85.8241 104.223V113.739C83.5248 108.733 79.7403 106.258 76.3518 106.258C73.7334 106.258 72.2922 107.567 72.2922 109.635C72.2922 116.082 87.4964 115.862 87.4964 125.962C87.4964 131.506 82.9857 135.434 76.3078 135.434C72.6553 135.434 69.2228 134.257 66.1094 134.257Z" fill="#CB9D64"/>
<path d="M93.5931 128.756V109.591C93.5931 107.248 93.054 105.213 90.8867 103.596H103.34C101.129 105.224 100.634 107.248 100.634 109.591V128.756C100.634 131.099 101.129 133.135 103.34 134.752H90.8867C93.054 133.124 93.5931 131.099 93.5931 128.756Z" fill="#CB9D64"/>
<path d="M108.797 128.756V109.591C108.797 107.204 108.258 105.213 106.135 103.596H116.597C118.082 110.593 126.972 119.119 130.712 127.051V111.121C130.712 107.644 129.491 105.301 125.927 103.585H137.247C135.08 105.213 134.541 107.237 134.541 109.58V134.752H126.873C125.343 127.623 116.234 118.965 112.67 110.802V127.172C112.67 130.736 113.891 133.08 117.455 134.752H106.135C108.258 133.124 108.797 131.099 108.797 128.756Z" fill="#CB9D64"/>
<path d="M140.568 119.867C140.568 108.139 148.555 102.902 156.807 102.902C164.343 102.902 171.604 107.281 171.604 118.514C171.604 129.746 163.617 135.434 155.409 135.434C147.917 135.434 140.568 131.099 140.568 119.867ZM156.576 131.914C160.371 131.914 163.98 129.394 163.98 119.867C163.98 109.624 159.788 106.467 155.585 106.467C151.933 106.467 148.148 108.766 148.148 118.426C148.148 128.624 152.384 131.914 156.587 131.914H156.576Z" fill="#CB9D64"/>
<path d="M116.062 34.5938C113.895 35.936 109.153 38.3013 109.153 38.3013C103.894 24.0763 112.212 0.5 112.212 0.5H112.157C112.146 1.13809 100.341 2.16123 85.962 2.16123C71.5829 2.16123 60.6034 1.67717 60.0313 1.06108H59.9323C59.9323 1.06108 62.8807 4.57057 65.6971 16.9473C68.5025 29.3131 64.0689 40.6116 64.0689 40.6116C64.0689 40.6116 62.2756 41.2057 58.3041 39.0604C54.3765 36.9371 52.6713 36.156 51.9782 35.87C51.7251 35.771 51.4281 35.837 51.2521 36.046L50.383 37.0691C50.1519 37.3442 50.1079 37.7292 50.2729 38.0483C51.5491 40.5456 55.7407 42.988 55.7407 42.988C67.2263 50.7221 84.5208 53.5605 102.046 50.6781C119.572 47.7957 121.937 40.6777 121.53 36.9701C121.123 33.2626 118.229 33.2626 116.062 34.5938ZM88.5473 30.4572C88.6133 31.4694 88.7563 32.4705 88.9984 33.4606C89.2404 34.1867 89.5375 34.8908 89.8785 35.5729C90.2416 36.31 90.6376 37.0361 91.0667 37.7402C91.4957 38.4443 91.9468 39.1374 92.4199 39.8085C92.8599 40.4246 93.311 41.0297 93.7841 41.6128C93.9491 41.8108 94.1141 42.0088 94.2901 42.2069C94.6862 42.6579 95.0932 43.131 95.4563 43.6151C95.5223 43.7691 95.4013 44.0221 95.3133 44.1541C95.2033 44.3192 95.0602 44.4622 94.9062 44.5832C94.4662 44.9243 93.9381 45.1333 93.41 45.3093C92.6949 45.5513 91.9468 45.7054 91.1987 45.8154C90.2966 45.9474 89.3944 46.0134 88.4813 46.0354C88.3383 46.0354 88.1843 46.0354 88.0412 46.0354C87.1171 46.0354 86.193 45.9804 85.2799 45.8704C84.4988 45.7714 83.7286 45.6284 82.9805 45.4083C82.4195 45.2433 81.8584 45.0343 81.3633 44.7152C81.1763 44.5942 80.9893 44.4512 80.8572 44.2642C80.7802 44.1651 80.7142 44.0441 80.6702 43.9231C80.5932 43.7141 80.6702 43.461 80.7802 43.274C80.8572 43.153 80.9783 43.054 81.0663 42.944C81.1873 42.812 81.3083 42.6799 81.4293 42.5479C81.6714 42.2839 81.9134 42.0088 82.1444 41.7338C82.6175 41.1727 83.0575 40.5896 83.4866 39.9956C83.9597 39.3465 84.3997 38.6864 84.8288 38.0043C85.2579 37.3222 85.6539 36.6291 86.006 35.925C86.336 35.2759 86.633 34.6048 86.8751 33.9117C86.9301 33.7687 86.9741 33.6257 87.0181 33.4716C87.3041 32.3165 87.4032 30.2592 87.3151 30.5342C83.1016 36.123 74.4543 33.5377 74.4543 26.8707C74.4543 18.8946 84.5538 14.813 88.0633 7.38697C91.4737 14.813 101.573 18.8836 101.573 26.8707C101.573 33.6807 92.6619 36.5191 88.5473 30.4572Z" fill="#CB9D64"/>
</g>
<defs>
<clipPath id="clip0_16360_350018">
<rect width="171.305" height="135" fill="white" transform="translate(0.347656 0.5)"/>
</clipPath>
</defs>
</svg>
