<svg width="240" height="69" viewBox="0 0 240 69" fill="none" xmlns="http://www.w3.org/2000/svg">
<path d="M54.8539 39.787L54.7127 39.2801L54.3901 38.172L54.1683 37.4247L52.3836 31.4207L49.7721 31.8244C48.9755 31.9446 48.2497 31.4292 48.2497 30.7421L48.1387 23.7072C48.1387 23.252 47.927 22.8054 47.564 22.4704L23.3554 0L20.754 16.7067L15.9647 13.666L7.596 22.0151L5.53912 16.7497L0.911133 25.9319L4.15779 41.7367L0.971629 43.446C0.971629 43.446 0.921216 43.5062 0.941381 43.5406L3.08901 46.796L3.77464 47.8525L4.29894 48.6514L4.54092 49.0293L5.4383 50.4036L5.58953 50.6527L6.32557 51.7693L7.00111 52.8173L7.49517 53.5645L7.77749 53.9941L8.66476 55.3684L12.2946 60.9344C12.345 61.0203 12.4256 61.089 12.5265 61.1319L17.1645 63.3824L17.5678 63.5714L18.0821 63.8291L19.4029 64.4733L20.5624 65.0403L22.0546 65.7617L28.6891 69L47.433 59.8608C47.7154 59.7233 47.9472 59.5172 48.0985 59.2767L52.1719 52.7829L56.1848 45.9455C56.3865 45.6021 56.4369 45.2155 56.326 44.8462L54.8438 39.7783L54.8539 39.787ZM17.709 38.1893V39.1856L16.6201 38.4899L17.709 38.1893Z" fill="#CC66FF"/>
<path d="M17.1694 24.7891C17.0484 24.8601 16.9374 24.9514 16.8164 25.0225C16.8164 25.0225 16.8467 25.0123 16.8467 24.9921C16.9475 24.921 17.0484 24.8601 17.1694 24.7891Z" fill="black"/>
<path d="M44.8752 53.08C42.848 56.0024 39.923 57.3722 38.7732 57.7475C30.0388 60.5786 22.0811 58.9145 19.237 58.1941C14.668 57.0272 13.2156 55.5761 12.6508 55.0384C11.1076 53.4859 7.46665 48.3617 10.7849 33.9527C10.9866 33.1004 12.0053 29.2243 15.3135 26.2004C15.7673 25.7843 16.2716 25.3886 16.8163 25.0234C15.8278 25.7033 15.2025 26.8093 15.1118 28.0067C14.7688 32.7047 15.3639 40.1525 16.9071 43.7143C18.4199 47.1845 21.7382 45.2668 23.7554 45.9568C25.9843 46.7279 26.8517 49.1125 26.9021 49.2647C27.0736 49.9142 27.0636 50.4925 27.0333 52.3493C27.709 52.8263 28.3848 53.2829 29.0605 53.77C29.1009 51.8624 29.1513 49.975 29.1917 48.0674C29.7465 48.2297 30.3112 48.392 30.866 48.5543L30.6139 53.78C32.0359 53.9018 31.3905 53.8409 32.8226 53.9526C33.0142 52.2986 33.1856 50.6345 33.3774 48.9806C33.8211 48.9908 34.2548 49.0211 34.6986 49.0517C34.6683 50.5433 34.6582 52.045 34.6279 53.5367C35.3137 53.8918 36.0198 54.2468 36.7258 54.5818C36.7965 53.2727 36.8771 51.9536 36.9275 50.6447C37.2907 50.3301 37.6738 50.0359 38.047 49.7315C38.0572 51.2231 38.0874 52.7249 38.1177 54.2165C39.3985 54.2875 38.8842 54.257 40.1651 54.3179C40.2559 53.6076 40.3366 52.8872 40.4274 52.1768C41.799 51.6899 43.1708 51.1926 44.5526 50.7056C44.6432 51.4768 44.724 52.2683 44.8146 53.0393L44.8551 53.08H44.8752Z" fill="black"/>
<path d="M46.8727 44.353C46.8627 47.3971 46.8425 49.4367 45.6726 51.7503C45.4204 52.2271 45.1582 52.6635 44.8758 53.0796C44.785 52.2982 44.7044 51.5169 44.6136 50.7457C43.2318 51.2328 41.86 51.7198 40.4884 52.2171C40.3976 52.9273 40.3169 53.6478 40.2261 54.358C38.9453 54.2871 39.4597 54.3175 38.1787 54.2566C38.1484 52.765 38.1385 51.2632 38.1082 49.7716C37.7249 50.0862 37.3618 50.3803 36.9885 50.6848C36.918 52.0039 36.8575 53.3128 36.7868 54.6219C36.0809 54.2667 35.395 53.9116 34.6889 53.5767C34.7192 52.0851 34.7294 50.5833 34.7596 49.0917C34.3158 49.0612 33.8821 49.0512 33.4384 49.0207C33.2467 50.6746 33.0752 52.3387 32.8836 53.9928C31.4716 53.871 32.107 53.9319 30.6749 53.8203L30.9069 48.5946C30.3521 48.4321 29.7873 48.2698 29.2326 48.1075C29.1922 49.9948 29.1418 51.9025 29.1014 53.8101C28.4257 53.3332 27.7499 52.8664 27.0742 52.4098C27.1045 50.5528 27.1144 49.9746 26.943 49.3251C26.9027 49.1728 26.0353 46.7985 23.7963 46.0375C21.7791 45.3271 18.4608 47.2653 16.9479 43.795C15.3947 40.2333 14.8198 32.7853 15.1526 28.0873C15.2434 26.8596 15.8687 25.7535 16.8874 25.0737C18.5616 23.9473 20.6594 23.0544 23.3222 22.6992C25.6419 22.3746 30.9471 21.5628 36.7567 24.1908C38.7737 25.1041 42.2937 27.1537 44.0184 30.3196C46.9534 35.6976 46.9434 41.1262 46.9131 44.4342L46.8829 44.3733L46.8727 44.353Z" fill="#FE398D"/>
<path d="M45.4504 45.4479C45.2991 45.7015 44.6838 46.5945 43.6147 46.9801C43.4936 47.0206 43.3626 47.0511 43.2315 47.0815C41.0126 47.5585 38.8543 45.3363 37.775 43.8954C36.8976 42.7183 36.3327 41.5006 36.0302 40.354C35.6367 38.8522 35.667 37.4622 35.9697 36.417C36.1007 35.9706 36.3932 35.5038 36.7967 35.1081C37.5028 35.037 38.5315 34.9558 39.6813 35.2704C43.2113 36.2547 44.7645 40.2628 44.8957 40.6179C45.5311 42.3022 45.6319 44.0679 45.4504 45.4479Z" fill="#292927"/>
<path d="M45.4504 45.4479C45.2991 45.7015 44.6838 46.5945 43.6147 46.9801C42.949 45.529 41.8699 44.0679 40.5586 42.8503C39.2778 41.6428 37.6338 40.8411 36.0302 40.354C35.6367 38.8522 35.667 37.4622 35.9697 36.417C36.1007 35.9706 36.3932 35.5038 36.7967 35.1081C37.5028 35.037 38.5315 34.9558 39.6813 35.2704C43.2113 36.2547 44.7645 40.2628 44.8957 40.6179C45.5311 42.3022 45.6319 44.0679 45.4504 45.4479Z" fill="#000200"/>
<path d="M45.4504 45.4479C45.3596 45.5799 45.1378 45.9247 44.7746 46.2597C43.8468 42.972 43.2315 41.6731 40.7806 39.2278C39.6611 38.1217 37.7548 36.9244 35.9897 36.3967C36.121 35.9503 36.4135 35.4936 36.7966 35.1081C37.5027 35.037 38.5314 34.9558 39.6611 35.2704C43.1911 36.2547 44.7443 40.2628 44.8755 40.6179C45.5109 42.3022 45.6117 44.0679 45.4303 45.4479H45.4403H45.4504Z" fill="#292929"/>
<path d="M17.9363 40.1019C17.5833 38.3871 17.9766 36.8853 18.2994 36.2055C19.8728 32.8264 23.4836 31.761 23.9575 31.6392C24.8855 31.4058 28.7383 30.3303 31.1589 33.0396C32.4801 34.5312 33.0651 37.3014 32.1573 39.7467C31.411 41.7558 29.0712 43.3389 26.9531 43.9374C25.3696 44.394 22.4447 44.3839 21.0124 43.9374C20.0241 43.623 18.4809 42.7908 17.9262 40.1019H17.9363Z" fill="#CC0066"/>
<path d="M29.989 42.4453C29.0812 43.1253 28.0021 43.6528 26.9732 43.9369C25.3696 44.3935 22.4649 44.3835 21.0327 43.9369C20.0442 43.6224 18.5012 42.7903 17.9363 40.1014C17.5833 38.3865 17.9766 36.8847 18.2994 36.2049C18.9146 34.896 19.8324 33.9319 20.7502 33.2217C21.9302 33.0289 23.5844 32.968 25.3897 33.6378C26.5092 34.0335 28.4862 34.764 29.6359 36.8239C30.5436 38.4576 30.7051 40.5885 29.9587 42.4353H29.9687L29.989 42.4453Z" fill="black"/>
<path d="M29.989 42.4453C29.0812 43.1253 28.0021 43.6528 26.9732 43.9369C25.3696 44.3935 22.4649 44.3835 21.0327 43.9369C20.0442 43.6224 18.5012 42.7903 17.9363 40.1014C17.5833 38.3865 17.9766 36.8847 18.2994 36.2049C18.9146 34.896 19.8324 33.9319 20.7502 33.2217C21.9302 33.0289 23.5844 32.968 25.3897 33.6378C26.5092 34.0335 28.4862 34.764 29.6359 36.8239C30.5436 38.4576 30.7051 40.5885 29.9587 42.4353H29.9687L29.989 42.4453Z" fill="#292929"/>
<path d="M28.0521 43.5512C27.6991 43.7135 27.3361 43.8455 26.983 43.9367C25.3794 44.3933 22.4747 44.3833 21.0424 43.9367C20.0541 43.6223 18.5108 42.7901 17.9461 40.1012C17.593 38.3864 17.9864 36.8846 18.3091 36.2048C18.6924 35.3828 19.1867 34.703 19.7313 34.1348C22.1115 34.3682 23.8463 35.951 24.7137 36.7324C25.1373 37.118 26.7711 38.6501 27.5478 41.2174C27.8403 42.1814 28.0623 42.9119 28.0521 43.5308V43.5512Z" fill="#7E893B"/>
<path d="M28.0521 43.5512C27.6991 43.7135 27.3361 43.8455 26.983 43.9367C25.3794 44.3933 22.4747 44.3833 21.0424 43.9367C20.0541 43.6223 18.5108 42.7901 17.9461 40.1012C17.593 38.3864 17.9864 36.8846 18.3091 36.2048C18.6924 35.3828 19.1867 34.703 19.7313 34.1348C22.1115 34.3682 23.8463 35.951 24.7137 36.7324C25.1373 37.118 26.7711 38.6501 27.5478 41.2174C27.8403 42.1814 28.0623 42.9119 28.0521 43.5308V43.5512Z" fill="#000200"/>
<path d="M45.4807 45.3978C45.4807 45.3978 45.4706 45.4282 45.4505 45.4384C45.6219 44.0685 45.5212 42.2928 44.8957 40.6084C44.7647 40.2534 43.1912 36.2553 39.6813 35.2609C38.5315 34.9362 37.5028 35.0275 36.7969 35.0985C37.2708 34.6216 37.8658 34.2564 38.471 34.1244C41.4665 33.5157 44.9967 37.9803 45.8035 41.8767C46.2271 43.9875 45.6825 45.0325 45.4807 45.3876V45.3978Z" fill="#CC0066"/>
<path d="M41.4965 46.9517C40.0744 46.5255 38.7531 45.176 37.7949 43.8975C37.7949 43.8975 38.9246 43.3394 40.377 44.5367C41.1435 45.1557 41.7486 46.4544 41.4965 46.9619V46.9517Z" fill="#727373"/>
<path d="M29.1923 36.1434C28.9603 35.9911 28.6777 35.8084 28.3651 35.6259C28.3651 35.6259 26.3176 34.4791 23.7459 34.2559C21.648 34.0834 21.3655 34.053 19.4795 34.4082C19.8728 33.9516 20.3166 33.5659 20.7402 33.2412C21.9202 33.0484 23.5744 32.9875 25.3797 33.6573C26.3479 34.0125 28.0122 34.6009 29.172 36.1332L29.1923 36.1434Z" fill="#000200"/>
<path d="M41.638 36.2344C40.9018 36.204 40.0242 36.2445 39.1064 36.549C38.3702 36.7722 37.9264 36.9142 37.5735 37.036C37.049 36.7722 36.5044 36.549 35.9697 36.3967C36.1009 35.9503 36.3933 35.4936 36.7766 35.1081C37.4827 35.037 38.5114 34.9558 39.6411 35.2704C40.3874 35.4733 41.0328 35.8183 41.6077 36.2344H41.6178H41.638Z" fill="#000200"/>
<path d="M24.7946 44.2507C23.4128 44.3216 21.91 44.2202 21.0224 43.9361C20.034 43.6215 18.4909 42.7895 17.926 40.1006C17.8353 39.7048 17.805 39.2989 17.7949 38.9336C19.3683 39.0959 20.5989 40.0802 22.1117 41.2979C23.4026 42.3329 24.1793 43.3781 24.7844 44.2507H24.7946Z" fill="#292927"/>
<path d="M21.7685 44.0998C21.4861 44.0593 21.244 43.9984 21.0323 43.9375C20.3867 43.7446 19.489 43.2982 18.8032 42.2734C19.2773 42.2125 20.0337 42.3039 20.9214 43.0243C21.2643 43.3084 21.5568 43.7041 21.7786 44.1202L21.7685 44.0998Z" fill="#727373"/>
<path d="M42.021 27.7114C41.3352 27.5795 40.377 27.2243 39.2878 26.4532C37.9767 25.5197 37.4018 24.7993 37.2202 24.373C38.602 25.0529 40.4678 26.1691 42.0312 27.7114H42.021Z" fill="#FFCCFF"/>
<path d="M43.6248 46.9808C42.596 47.6606 39.4492 46.778 37.9969 44.5253C37.9263 44.4035 37.3615 43.5206 37.2305 43.0742C37.3918 43.3583 37.5833 43.6221 37.7851 43.8962C37.8153 43.9367 37.8456 43.9874 37.886 44.028C37.9465 44.1194 38.017 44.2005 38.0877 44.2919C38.118 44.3324 38.1582 44.3831 38.1885 44.4239C38.2592 44.5151 38.3398 44.5964 38.4205 44.6876C38.4205 44.6876 38.4306 44.6978 38.4508 44.718C38.5517 44.8398 38.6827 44.9717 38.8038 45.1037C39.4695 45.7835 40.2863 46.443 41.174 46.8287C41.2748 46.8692 41.3758 46.9199 41.4967 46.9505C42.0514 47.1431 42.6566 47.2142 43.2416 47.0823C43.3727 47.0519 43.5039 47.0214 43.6248 46.9808Z" fill="#FFCCFF"/>
<path d="M23.3622 44.2612C20.4272 44.4946 18.6924 43.2973 17.9864 41.0142C17.7241 40.1721 17.5426 39.3298 17.8855 37.7266C17.8452 38.0919 17.8149 38.4978 17.825 38.9239C17.825 39.0153 17.825 39.1167 17.8351 39.208C17.8351 39.2994 17.8452 39.4008 17.8653 39.5023C17.8754 39.6951 17.9258 39.898 17.9561 40.0908C18.1477 41.0041 18.4604 41.7144 18.8236 42.2623C18.8537 42.3028 18.8941 42.3637 18.9243 42.4146C18.9546 42.4551 18.9849 42.5058 19.0253 42.5464C19.1261 42.6783 19.227 42.8001 19.3479 42.9016C19.4084 42.9625 19.4488 43.003 19.5094 43.0639C19.5094 43.0639 19.5194 43.0639 19.5194 43.0741C19.5194 43.0842 19.5496 43.1046 19.5496 43.1046C19.5799 43.135 19.6101 43.1653 19.6404 43.1755C19.6808 43.206 19.7312 43.2466 19.7716 43.2771C19.7716 43.2771 19.7816 43.2771 19.8019 43.2871H19.8119L19.9833 43.4191C20.0439 43.4496 20.0843 43.4901 20.1448 43.5205C20.1751 43.5307 20.185 43.551 20.2053 43.551C20.2758 43.5916 20.3565 43.6221 20.4272 43.6728C20.4977 43.7032 20.5582 43.7337 20.6289 43.7641C20.7599 43.825 20.9113 43.8655 21.0222 43.896C21.113 43.9264 21.1936 43.9569 21.3147 43.9671C21.3248 43.9671 21.3551 43.9771 21.3752 43.9771C21.466 43.9873 21.5365 44.0076 21.6375 44.038C21.6777 44.038 21.7283 44.0482 21.7685 44.0482C21.8392 44.0583 21.9199 44.0787 21.9905 44.0787C22.061 44.0787 22.1417 44.0887 22.2223 44.1091C22.3131 44.1192 22.394 44.1396 22.4846 44.1396C22.6158 44.1496 22.7468 44.17 22.8982 44.17H23.0696C23.1604 44.17 23.2411 44.17 23.352 44.1801V44.2512L23.3622 44.2612Z" fill="#FFCCFF"/>
<path d="M16.7356 25.082L16.6348 25.1531C16.6348 25.1531 16.6449 25.1429 16.665 25.1226C16.6852 25.1024 16.7054 25.0922 16.7255 25.082H16.7356Z" fill="#CC66FF"/>
<path d="M17.1492 24.8203C17.0483 24.8914 16.9475 24.9523 16.8265 25.0232C16.8164 25.0334 16.7861 25.0537 16.7559 25.0639C16.7861 25.0334 16.8164 25.0232 16.8567 24.9928C16.9475 24.9319 17.0483 24.871 17.1391 24.8203H17.1492Z" fill="#CC66FF"/>
<path d="M17.1392 24.8203C17.0383 24.8914 16.9374 24.9523 16.8164 25.0232C16.8164 25.0232 16.8265 25.013 16.8467 24.9928C16.9374 24.9319 17.0383 24.871 17.1291 24.8203H17.1392Z" fill="black"/>
<path d="M16.7356 25.082L16.6348 25.1531C16.6348 25.1531 16.6449 25.1429 16.665 25.1226C16.6852 25.1024 16.7054 25.0922 16.7255 25.082H16.7356Z" fill="black"/>
<path d="M16.8167 25.0332C16.8167 25.0332 16.7763 25.0637 16.7461 25.0737C16.7562 25.0737 16.7864 25.0434 16.8066 25.0332H16.8167Z" fill="black"/>
<path d="M16.7356 25.082L16.6348 25.1531C16.6348 25.1531 16.6449 25.1429 16.665 25.1226C16.6852 25.1024 16.7054 25.0922 16.7255 25.082H16.7356Z" fill="#FE398D"/>
<path d="M17.1492 24.8203C17.0483 24.8914 16.9475 24.9523 16.8265 25.0232C16.8164 25.0334 16.7861 25.0537 16.7559 25.0639C16.7861 25.0334 16.8164 25.0232 16.8567 24.9928C16.9475 24.9319 17.0483 24.871 17.1391 24.8203H17.1492Z" fill="#FE398D"/>
<path fill-rule="evenodd" clip-rule="evenodd" d="M110.958 21.2464L93.6305 22.525C93.1868 22.5553 92.8538 22.9309 92.864 23.3773L93.7617 54.9144C93.7716 55.3609 94.1448 55.7261 94.5887 55.7261H112.844C113.318 55.7261 113.691 55.3203 113.671 54.8434L111.836 22.0177C111.805 21.5509 111.412 21.2059 110.948 21.2362L110.958 21.2464ZM100.207 33.9202L105.562 33.9607C105.996 33.9607 106.359 34.3057 106.379 34.742L107.246 49.4653C107.277 49.9423 106.893 50.3482 106.419 50.3482H101.982C101.568 50.3482 101.215 50.0336 101.165 49.6177L99.3795 34.8536C99.319 34.3564 99.7123 33.9202 100.207 33.9202Z" fill="#FF3399"/>
<path fill-rule="evenodd" clip-rule="evenodd" d="M166.451 55.6569H185.715C186.159 55.6569 186.532 55.3019 186.542 54.8453L187.44 22.3746C187.45 21.8978 187.067 21.5019 186.592 21.5222L168.266 22.1006C167.843 22.1108 167.49 22.4558 167.47 22.8819L165.634 54.7742C165.604 55.251 165.987 55.6569 166.461 55.6569H166.451ZM178.776 42.6788H174.319C173.865 42.6788 173.491 42.3035 173.491 41.8469V30.5937C173.491 30.1371 173.854 29.7617 174.308 29.7617L179.653 29.721C180.138 29.721 180.521 30.1371 180.48 30.614L179.583 41.9078C179.553 42.344 179.189 42.6687 178.755 42.6687L178.776 42.6788Z" fill="#FF3399"/>
<path fill-rule="evenodd" clip-rule="evenodd" d="M208.801 22.1007L191.453 21.5223C190.991 21.5021 190.597 21.8774 190.597 22.3544L190.537 53.8103C190.537 54.2669 190.91 54.6423 191.364 54.6423H210.607C211.082 54.6423 211.463 54.2364 211.434 53.7596L209.598 22.8821C209.568 22.4558 209.224 22.1108 208.801 22.1007ZM197.969 34.8657L203.316 34.9064C203.749 34.9064 204.101 35.2514 204.132 35.6774L204.979 48.3714C205.009 48.8483 204.636 49.2542 204.151 49.2542H199.715C199.3 49.2542 198.948 48.9498 198.898 48.5339L197.142 35.7992C197.071 35.3021 197.465 34.8455 197.969 34.8555V34.8657Z" fill="#FF3399"/>
<path d="M89.1321 55.1289L79.4295 55.5957C78.9556 55.6159 78.5621 55.2405 78.5621 54.7738L78.4814 39.4821C78.4814 39.0255 78.1083 38.6602 77.6544 38.6602H74.0538C73.5999 38.6602 73.2367 39.0255 73.2268 39.472L72.9442 54.2766C72.9442 54.7332 72.5711 55.0884 72.1172 55.0884H63.5845C63.1206 55.0884 62.7474 54.7027 62.7575 54.2359L63.5745 23.7643C63.5845 23.2977 63.978 22.9323 64.442 22.9527L73.5797 23.3788C74.0436 23.3991 74.3967 23.805 74.3664 24.2616L73.8017 32.5416C73.7714 33.0184 74.1446 33.4345 74.6287 33.4345H77.9671C78.4209 33.4345 78.7941 33.0693 78.7941 32.6025L78.8345 23.0236C78.8345 22.5568 79.2178 22.1814 79.6816 22.1916L88.4262 22.425C88.8699 22.4352 89.2229 22.7902 89.2331 23.2368L89.929 54.2664C89.929 54.7129 89.5861 55.0984 89.1423 55.1188L89.1321 55.1289Z" fill="#FF3399"/>
<path d="M140.379 22.0097L140.298 31.6393C140.298 32.0858 139.945 32.4409 139.501 32.4611L134.317 32.6743C133.873 32.6945 133.52 33.0701 133.52 33.5165L133.793 54.5311C133.793 55.0079 133.399 55.3936 132.925 55.3733L123.949 54.937C123.525 54.9167 123.182 54.5717 123.162 54.1454L122.275 34.0543C122.254 33.5977 121.861 33.2324 121.407 33.2627L116.274 33.5368C115.82 33.557 115.436 33.2222 115.406 32.7656L114.65 22.1111C114.619 21.6343 114.993 21.2183 115.477 21.2183L139.552 21.1777C140.016 21.1777 140.379 21.5531 140.379 22.0199V22.0097Z" fill="#FF3399"/>
<path d="M239.291 22.0386L239.211 32.754C239.211 33.1497 238.929 33.4947 238.535 33.5658L233.068 34.6008C232.684 34.6717 232.413 34.9965 232.392 35.382L231.727 53.6163C231.706 54.0526 231.364 54.3976 230.941 54.4179L220.996 54.844C220.511 54.8644 220.108 54.4585 220.138 53.9715L221.095 35.1283C221.116 34.6413 220.722 34.2354 220.229 34.2558L214.157 34.5399C213.713 34.5601 213.329 34.2151 213.29 33.7686L212.533 23.0736C212.502 22.6069 212.856 22.201 213.329 22.1808L238.414 21.1863C238.887 21.166 239.271 21.5515 239.271 22.0183L239.291 22.0386Z" fill="#FF3399"/>
<path d="M143.203 53.8589L143.899 22.2608C143.899 21.8042 144.272 21.4492 144.726 21.4492H154.852C155.336 21.4492 155.71 21.8651 155.679 22.3421L154.136 42.6767C154.096 43.1639 154.479 43.5698 154.963 43.5698H162.407C162.891 43.5698 163.274 43.9858 163.234 44.4728L162.417 54.4271C162.376 54.8633 162.013 55.1983 161.569 55.1882L144.02 54.7112C143.566 54.701 143.203 54.3155 143.213 53.8589H143.203Z" fill="#FF3399"/>
</svg>
