<svg width="140" height="49" viewBox="0 0 140 49" fill="none" xmlns="http://www.w3.org/2000/svg">
<path d="M28.8252 0.733167C30.6927 0.770898 31.8512 1.6278 32.3008 3.30641C32.7848 5.50583 31.853 8.11664 29.4981 11.1365C28.3395 12.5908 26.4614 14.4545 23.8653 16.7293C21.2675 19.004 18.9619 20.9074 16.9434 22.4353L13.917 24.7273C14.5521 25.3627 15.3824 26.1735 16.4112 27.1609C17.3318 28.0469 18.7958 29.3399 20.7979 31.0349C21.8269 31.8129 22.8288 32.6278 23.8643 33.4041C23.8765 33.415 26.0676 35.3732 31.2618 37.867C34.8591 39.5948 38.8558 40.3416 42.8487 40.7527H42.8448C43.854 40.8559 44.3481 42.0186 43.7295 42.8211C43.229 43.4712 42.6758 44.0812 42.0801 44.6463C41.8816 44.8574 41.6274 45.0866 41.3077 45.3338C41.3027 45.337 41.2989 45.3402 41.294 45.3435C40.8296 45.73 40.3421 46.0889 39.835 46.4197C36.6153 48.6599 34.9411 48.7943 32.3204 48.2244C32.2812 48.2162 32.2404 48.2078 32.2012 48.198C32.17 48.1915 32.1396 48.185 32.1084 48.1785C28.9839 47.4709 25.8741 45.3338 25.8741 45.3338C25.7707 45.2683 25.6656 45.2039 25.5606 45.1384C25.0635 44.8257 24.5664 44.5033 24.125 44.117C24.084 44.0809 24.0268 44.1333 24.0596 44.1775C25.2674 45.7561 26.644 47.2168 28.2735 48.3533C28.4852 48.5007 28.702 48.6422 28.9219 48.7781C28.2852 48.6831 27.6516 48.549 27.0313 48.3738C23.8131 47.4681 20.9505 45.545 18.543 43.2293C16.1372 40.9136 14.1504 38.2028 12.2452 35.4597C11.5329 34.4361 10.8314 33.4042 10.2061 32.325C9.88289 31.8665 9.60377 31.457 9.37407 31.1033L8.58989 29.9295C8.85083 32.3909 9.24315 34.8329 9.76665 37.2566C10.1391 38.7485 9.7843 39.9965 8.70122 41.0037C7.50492 42.1957 6.17892 42.2335 4.72172 41.115C3.60085 40.1831 2.5914 38.6548 1.69536 36.5291C0.72387 34.0676 0.172658 31.1128 0.0430136 27.6638C-0.088255 24.2149 0.080815 21.0082 0.551803 18.0457C1.01788 15.0797 1.68112 12.2003 2.54106 9.40309C3.9606 4.631 5.97894 2.09543 8.59477 1.79567C10.5362 1.53527 11.7987 2.2909 12.378 4.06129C12.9572 5.83326 12.7417 7.87557 11.7325 10.1863C11.4321 10.9692 10.9841 12.3664 10.3868 14.3806C9.78943 16.3949 9.26641 18.2211 8.8184 19.8621L8.14555 22.323C8.36868 21.9874 8.66713 21.5306 9.04106 20.9529C9.41359 20.3748 10.1428 19.2838 11.2276 17.6804C12.3107 16.0788 13.3381 14.5771 14.3096 13.1785C15.2811 11.7799 16.3556 10.3072 17.5323 8.75953C18.7089 7.21188 19.727 6.01028 20.587 5.15211C23.4638 2.09446 26.2093 0.621801 28.8252 0.733167Z" fill="#18BEBC"/>
<path fill-rule="evenodd" clip-rule="evenodd" d="M130.323 7.07789C130.932 7.03532 131.531 7.15884 132.125 7.44703C132.717 7.73521 133.267 8.18983 133.774 8.81032C134.282 9.43102 134.723 10.1754 135.099 11.0418C136.052 13.2937 137.167 17.1131 138.44 22.4978C139.712 27.8822 140.205 31.7306 139.916 34.0398C139.8 35.0796 139.481 35.9821 138.961 36.7468C138.439 37.5117 137.874 38.0101 137.267 38.241C136.66 38.4733 136.038 38.3569 135.401 37.8953C134.765 37.4334 134.274 36.6241 133.926 35.4695C133.839 35.1811 133.723 34.5099 133.578 33.4558C133.434 32.4012 133.302 31.4117 133.188 30.4881L133.014 29.1023C132.84 29.2481 132.347 29.3632 131.538 29.45C130.727 29.5368 130.048 29.5789 129.498 29.5789C128.948 32.0044 128.601 33.477 128.456 33.9978C127.645 37.3189 126.227 39.541 124.202 40.6677C122.64 41.5341 121.279 41.4758 120.122 40.4949C118.675 39.2518 118.256 37.0711 118.863 33.9529L119.037 33.1316C119.326 31.9492 120.578 28.0639 122.792 21.4802C125.006 14.8965 126.358 11.1277 126.851 10.1746C127.343 9.22153 127.893 8.47796 128.5 7.9441C129.107 7.41029 129.716 7.12216 130.323 7.07789ZM131.886 17.1931C131.162 20.1671 130.671 22.3747 130.41 23.8191C131.596 23.9059 132.362 23.8628 132.71 23.6892C132.595 21.4949 132.319 19.3301 131.886 17.1931Z" fill="#18BEBC"/>
<path fill-rule="evenodd" clip-rule="evenodd" d="M56.5596 3.7566C57.4342 3.81557 58.2792 3.99408 59.0948 4.28883C59.9104 4.58526 60.5493 4.90228 61.0088 5.24293C61.4682 5.58346 61.8158 5.91616 62.0538 6.24196C63.0909 7.48493 63.6555 9.07547 63.7442 11.0144C63.8328 12.9535 63.4325 14.7226 62.543 16.3211C62.0392 17.2381 61.4089 18.0517 60.6524 18.7625C59.8959 19.4732 59.1983 20.0202 58.5616 20.405C57.9233 20.7898 57.2195 21.1147 56.4483 21.3816C55.6773 21.6468 55.1371 21.8109 54.8252 21.8699C54.5135 21.9288 54.1947 21.9877 53.8682 22.0466H53.7793C53.8386 22.5807 55.3224 24.2969 58.2286 27.197C61.135 30.0991 63.3146 32.11 64.7686 33.2351L64.7647 33.2341C66.6042 34.6834 67.3616 36.2226 67.0352 37.8504C66.7972 39.0934 66.0254 39.9079 64.7207 40.2927C62.9401 40.766 61.0577 40.1892 59.0704 38.5613C58.6256 38.2075 58.1282 37.6966 57.5801 37.03C57.032 36.3652 56.5048 35.6541 56.001 34.8992C55.4957 34.1443 54.9776 33.345 54.4444 32.5017C53.911 31.6583 53.4281 30.8593 52.9981 30.1043C52.5681 29.3493 52.1822 28.6612 51.8409 28.0388C51.4996 27.4166 51.2407 26.9283 51.0635 26.573L50.7959 25.9968C50.6778 27.9195 50.5135 29.4739 50.3067 30.658C50.0983 31.8124 49.7123 32.656 49.1495 33.1882C48.5867 33.7203 48.0074 33.9205 47.4151 33.7879C46.821 33.6552 46.2734 33.2696 45.7696 32.6326C45.2658 31.9972 44.9686 31.2196 44.8799 30.3025C44.7913 29.4443 44.7317 28.4907 44.7022 27.4392C44.6727 26.3895 44.6727 25.0938 44.7022 23.5545C44.7317 22.0168 44.857 20.4775 45.0801 18.9382C45.3033 17.4004 45.6066 15.8605 45.9922 14.3211C46.3779 12.7817 46.9342 11.3176 47.6612 9.92555C48.3881 8.53526 49.2546 7.38072 50.2637 6.46364C51.3321 5.48755 52.4292 4.7766 53.5567 4.33278C54.684 3.88906 55.685 3.69765 56.5596 3.7566ZM56.7383 10.2136C56.4561 10.0516 56.0932 10.0747 55.6485 10.281C54.5802 10.9034 53.6312 12.0581 52.8008 13.7449C51.9706 15.4315 51.451 16.912 51.2442 18.1843C54.5063 16.9414 56.4794 15.1961 57.1622 12.9461C57.3394 12.3238 57.3835 11.7535 57.295 11.2361C57.2063 10.7169 57.0206 10.3774 56.7383 10.2136Z" fill="#18BEBC"/>
<path d="M88.6309 4.2361C89.5531 4.20992 90.4491 4.55533 91.3155 5.27907C92.182 6.0013 92.8141 7.02995 93.2129 8.36305C94.0089 11.4535 94.5767 14.5737 94.918 17.7214C95.4858 13.3258 96.011 10.3184 96.4952 8.70192C96.807 7.65397 97.3256 6.79614 98.0508 6.12965C98.7762 5.46473 99.5361 5.08786 100.332 5.0027C101.128 4.91756 101.888 5.2282 102.613 5.93727C103.337 6.64635 103.828 7.73887 104.084 9.21266H104.082C104.45 11.2532 104.784 14.7354 105.083 19.655C105.382 24.5763 105.545 28.4825 105.573 31.3748C105.601 34.2964 104.778 36.3797 103.101 37.6277C101.849 38.5644 100.628 38.6909 99.4346 38.0115C97.956 37.1893 97.3058 35.1339 97.3877 33.0339C97.4218 32.1607 97.5769 30.2277 97.6436 29.2263C97.7864 27.0858 97.885 25.4691 97.9424 24.3767C97.9999 23.2845 98.0767 21.9237 98.1768 20.2927C98.2769 18.6616 98.348 17.4702 98.3907 16.7185C98.4303 16.0211 98.4514 15.6594 98.4541 15.6345C98.2556 16.1177 97.8799 18.2222 97.3252 21.9509C96.7722 25.6801 96.3097 27.972 95.9405 28.822C95.6566 29.5311 95.2591 30.0698 94.7471 30.4382C94.2353 30.8082 93.7382 30.9767 93.2559 30.949C92.7734 30.9211 92.3167 30.6523 91.8916 30.1414C91.4668 29.6305 91.1963 28.9365 91.0831 28.0574C90.9977 27.4908 90.9116 26.8238 90.8262 26.0574C90.7409 25.2909 90.6557 24.5193 90.5704 23.7381C90.485 22.9585 90.3998 22.1642 90.3145 21.3552C90.2292 20.5479 90.1507 19.7957 90.0801 19.1013C90.0096 18.4071 89.9452 17.7895 89.8877 17.2507C89.8303 16.7121 89.7877 16.2881 89.7598 15.9754C89.7303 15.6625 89.7168 15.5217 89.7168 15.5496C89.6036 15.9742 89.2772 18.4637 88.7374 23.0144C88.1974 27.5656 87.6296 30.6641 87.0323 32.3084C85.8671 35.4856 84.1896 37.4132 82.002 38.0945C80.3251 38.6053 78.8762 38.2929 77.6553 37.1599C76.3211 35.8842 75.9221 34.1969 76.462 32.0974C76.718 31.1901 77.1429 30.2695 77.7403 29.3328C79.0203 27.4609 80.2696 24.6261 81.4922 20.825C82.7132 17.0254 83.6365 13.3807 84.2618 9.89235C84.5736 8.10741 85.1498 6.72353 85.9883 5.74586C86.8253 4.76813 87.707 4.26558 88.6309 4.2361Z" fill="#18BEBC"/>
<path fill-rule="evenodd" clip-rule="evenodd" d="M35.8252 7.42067C36.3093 7.38628 36.7872 7.4844 37.2598 7.71364C37.7307 7.94287 38.1687 8.30513 38.5723 8.79957C38.9744 9.29417 39.3257 9.88743 39.626 10.5769C40.3875 12.3702 41.2739 15.4118 42.2881 19.7009C43.3023 23.99 43.6927 27.0542 43.4629 28.8933C43.371 29.7203 43.1183 30.4394 42.7032 31.0486C42.288 31.6593 41.8386 32.0556 41.3545 32.239C40.8704 32.4241 40.3743 32.3321 39.8672 31.9636C39.3603 31.5951 38.9697 30.9512 38.6924 30.031C38.6219 29.8016 38.5299 29.268 38.4151 28.4285C38.2986 27.5885 38.1954 26.8004 38.1036 26.0652L37.9659 24.9607C37.828 25.077 37.435 25.1693 36.7901 25.2381C36.1455 25.3068 35.6041 25.3406 35.1661 25.3406C34.7279 27.2715 34.4499 28.4448 34.335 28.8591C33.69 31.5038 32.5613 33.2742 30.9483 34.1716C29.7043 34.8611 28.6206 34.8151 27.6983 34.0339C26.5464 33.0464 26.2122 31.3086 26.6963 28.8259L26.834 28.1707L26.8389 28.1697C27.0687 27.2264 28.0666 24.1318 29.8291 18.8894C31.5916 13.6474 32.6684 10.6458 33.0606 9.88746C33.4512 9.12755 33.889 8.53593 34.3731 8.11012C34.8571 7.68605 35.3412 7.45512 35.8252 7.42067ZM37.0665 15.4754C36.4904 17.8451 36.0974 19.604 35.8907 20.7537C36.8343 20.8225 37.4454 20.7877 37.7227 20.6502C37.6308 18.9028 37.4127 17.1769 37.0665 15.4754Z" fill="#18BEBC"/>
<path fill-rule="evenodd" clip-rule="evenodd" d="M114.814 4.88356C116.213 4.73467 117.544 5.19358 118.806 6.25953C119.682 7.02758 120.168 7.91358 120.265 8.91578C120.362 9.91972 120.164 10.8962 119.673 11.8445C119.181 12.7943 118.465 13.77 117.524 14.7722C116.52 15.7319 115.44 16.5969 114.286 17.365C114.329 17.365 114.383 17.3541 114.447 17.3328C116.351 16.8218 118.028 17.034 119.482 17.9724C120.122 18.3999 120.576 19.0443 120.844 19.9089C121.111 20.7735 121.223 21.6101 121.181 22.4207C121.138 23.2313 121.01 24.0208 120.797 24.7888L120.79 24.7869C120.534 25.6401 120.117 26.4984 119.539 27.3631C118.962 28.2277 118.294 28.9963 117.536 29.6677C116.778 30.3392 115.949 30.8727 115.051 31.2673C114.153 31.662 113.282 31.8643 112.439 31.8757C111.593 31.8872 110.776 31.6145 109.985 31.0593C109.194 30.5041 108.532 29.6611 107.997 28.531C107.206 26.8459 106.645 24.9097 106.314 22.7234C105.982 20.5371 105.972 18.2276 106.282 15.7957C106.592 13.3638 107.251 11.2085 108.255 9.3318C108.897 8.20176 109.8 7.21625 110.965 6.37282C112.13 5.52939 113.414 5.03259 114.814 4.88356ZM114.301 20.739C113.863 20.6654 113.408 20.7879 112.939 21.1072C112.51 21.4265 112.186 21.8855 111.961 22.4832C111.738 23.0809 111.629 23.6884 111.641 24.3074C111.651 24.9263 111.693 25.4912 111.769 26.0037C111.844 26.5163 111.946 26.9234 112.074 27.2214C112.844 27.0937 113.528 26.6414 114.127 25.8621C114.724 25.0841 115.164 24.2025 115.441 23.2214L115.439 23.2185C115.611 22.6013 115.573 22.0508 115.327 21.5711C115.081 21.0912 114.739 20.8144 114.301 20.739ZM114.768 9.87574C114.233 9.59899 113.614 9.76952 112.908 10.3884C112.693 10.58 112.501 10.804 112.33 11.0593C111.902 11.6996 111.556 12.3927 111.288 13.1394C111.021 13.8861 110.855 14.4727 110.791 14.9002C110.727 15.3275 110.663 15.9351 110.599 16.7244C110.62 16.7047 110.668 16.667 110.743 16.613V16.6101C110.817 16.5577 110.967 16.4445 111.191 16.2742C111.416 16.1039 111.636 15.9286 111.85 15.7468C112.063 15.5651 112.314 15.3257 112.603 15.0261C112.891 14.7281 113.164 14.4235 113.42 14.114C113.678 13.8062 113.939 13.4429 114.206 13.0271C114.474 12.6111 114.704 12.2008 114.896 11.7947C115.365 10.7929 115.322 10.1526 114.768 9.87574Z" fill="#18BEBC"/>
<path fill-rule="evenodd" clip-rule="evenodd" d="M70.7354 3.99489C71.2162 3.96217 71.689 4.05829 72.1582 4.2859C72.6259 4.51355 73.0606 4.87439 73.461 5.36403C73.8597 5.85531 74.2099 6.44126 74.5069 7.12575C75.2618 8.90433 76.1415 11.9214 77.1475 16.1746C78.1518 20.4276 78.5407 23.4674 78.3125 25.2918C78.2206 26.1138 77.9695 26.8262 77.5577 27.4304V27.4285C77.1457 28.0344 76.7006 28.4283 76.2198 28.6101C75.7407 28.7934 75.2482 28.7017 74.7461 28.3367C74.244 27.9715 73.8552 27.3319 73.5811 26.4197C73.5122 26.1919 73.4215 25.6631 73.3067 24.8298C73.1918 23.9979 73.0884 23.2165 72.9981 22.4861L72.8604 21.3923C72.7241 21.5069 72.3352 21.597 71.6954 21.6658C71.0555 21.7346 70.5172 21.7693 70.084 21.7693C69.651 23.6847 69.3767 24.8472 69.2618 25.2586C68.6218 27.882 67.5023 29.6378 65.9024 30.5271C64.6683 31.21 63.5928 31.1649 62.6788 30.3904C61.5365 29.4094 61.2038 27.6875 61.6846 25.2244L61.8223 24.574C62.0506 23.6385 63.0405 20.5691 64.7881 15.3699C66.5358 10.1703 67.6043 7.19451 67.9932 6.44117C68.3821 5.68801 68.8168 5.10194 69.2959 4.67946C69.7752 4.25692 70.2562 4.02928 70.7354 3.99489ZM71.9698 11.9851C71.3987 14.3336 71.0089 16.0796 70.8038 17.2195C71.7408 17.2866 72.3471 17.2555 72.6211 17.1179C72.5292 15.3836 72.3127 13.6736 71.9698 11.9851Z" fill="#18BEBC"/>
<path d="M24.5182 44.7623C24.5331 44.7801 24.9883 45.3251 25.2692 45.6441C26.1702 46.653 27.1605 47.5801 28.2682 48.3531C28.4798 48.5005 28.6942 48.642 28.9157 48.7779C28.4597 48.7092 28.0071 48.62 27.5592 48.5103C26.2348 47.4638 24.3747 45.2858 24.0563 44.1754L24.5182 44.7623Z" fill="#76D7EB"/>
<path d="M13.9127 24.7291C14.4854 25.2957 15.5772 26.3668 16.4059 27.1627C17.3265 28.0486 18.7908 29.341 20.7926 31.0357C21.8231 31.8135 22.8227 32.6297 23.8581 33.4059C23.8783 33.424 26.0721 35.3797 31.2565 37.8687C34.8536 39.5947 38.8499 40.3434 42.8424 40.7545C43.6744 40.8396 44.1532 41.6468 43.9499 42.3756C43.8152 41.8976 43.4117 41.5029 42.8424 41.4439C38.8499 41.0329 34.8536 40.2858 31.2565 38.5582C26.0706 36.0684 23.8771 34.1123 23.8581 34.0953C22.8227 33.3191 21.8214 32.503 20.7926 31.7252C20.7475 31.6855 16.9763 28.3674 13.9127 24.7291Z" fill="#76D7EB"/>
<path d="M8.58755 29.9293C8.8452 32.1058 9.29792 35.1104 9.76236 37.2574C9.88861 37.7648 9.9293 38.2428 9.88833 38.693C9.867 38.4508 9.82627 38.2021 9.76236 37.9469C9.23884 35.523 8.69422 32.5382 8.58755 29.9293Z" fill="#76D7EB"/>
<path d="M54.1012 22.692C54.6888 23.5403 56.0614 25.0403 58.2223 27.1969C61.1284 30.0986 63.3083 32.1097 64.7624 33.235C66.4573 34.5711 67.2306 35.9848 67.0866 37.4732C66.9665 36.237 66.1931 35.0526 64.7624 33.9244C63.3083 32.7992 61.1284 30.7864 58.2223 27.8863C55.315 24.9866 53.8346 22.5792 53.7751 22.0465L54.1012 22.692Z" fill="#76D7EB"/>
<path d="M130.328 7.07773C130.936 7.03517 131.536 7.15883 132.13 7.44687C132.722 7.73506 133.272 8.19062 133.779 8.81113C134.286 9.43172 134.727 10.1754 135.103 11.0416C136.057 13.2934 137.172 17.113 138.445 22.4977C139.535 27.1059 140.05 30.5834 139.996 32.94C139.948 30.6129 139.433 27.3647 138.445 23.1871C137.172 17.8024 136.058 13.9829 135.103 11.7311C134.726 10.8649 134.284 10.1212 133.779 9.50058C133.272 8.88007 132.722 8.42451 132.13 8.13633C131.536 7.84829 130.935 7.72462 130.328 7.76718C129.721 7.81152 129.112 8.10066 128.505 8.63437C127.898 9.16822 127.347 9.91197 126.855 10.8648C126.363 11.8186 125.01 15.5869 122.797 22.1695C120.583 28.7529 119.331 32.6366 119.042 33.8209L118.868 34.6432C118.719 35.4126 118.632 36.125 118.607 36.7799C118.578 35.9432 118.663 35.0031 118.868 33.9537L119.042 33.1314C119.331 31.9488 120.583 28.0634 122.797 21.4801C125.01 14.8975 126.363 11.1292 126.855 10.1754C127.347 9.22252 127.898 8.47877 128.505 7.94492C129.112 7.4112 129.721 7.12207 130.328 7.07773Z" fill="#76D7EB"/>
<path d="M88.6276 4.23593C89.5498 4.20974 90.4467 4.55524 91.3131 5.2789C92.1795 6.00102 92.8108 7.03012 93.2096 8.36289C94.0055 11.4532 94.5733 14.5737 94.9147 17.7213C95.4825 13.3257 96.0077 10.3182 96.4918 8.70176C96.8036 7.65403 97.3225 6.79589 98.0475 6.12949C98.7727 5.4648 99.5331 5.08784 100.329 5.00254C101.125 4.91739 101.885 5.22919 102.61 5.93808C103.334 6.64717 103.825 7.73976 104.081 9.21347H104.079C104.446 11.254 104.781 14.7358 105.08 19.6549C105.378 24.5759 105.543 28.4824 105.571 31.3746C105.573 31.5121 105.57 31.6457 105.567 31.7799C105.531 28.9171 105.371 25.1067 105.082 20.3443C104.783 15.4269 104.45 11.9451 104.081 9.90293C103.825 8.42921 103.335 7.33662 102.61 6.62754C101.885 5.92028 101.125 5.60684 100.329 5.69199C99.5331 5.77729 98.7727 6.15262 98.0475 6.81894C97.3225 7.48534 96.8036 8.34349 96.4918 9.39121C96.0077 11.0076 95.4825 14.0152 94.9147 18.4107C94.5733 15.2631 94.0055 12.1443 93.2096 9.05234C92.8108 7.71958 92.1795 6.69211 91.3131 5.96836C90.4467 5.2447 89.5498 4.89755 88.6276 4.92539C87.704 4.95346 86.8243 5.45796 85.986 6.43515C85.1475 7.41284 84.5712 8.79602 84.2594 10.5826C83.6342 14.0709 82.7098 17.7149 81.4889 21.5143C80.2663 25.3153 79.0154 28.1502 77.737 30.0221C77.1413 30.9571 76.7146 31.8795 76.4586 32.7867C76.3356 33.2615 76.2652 33.7138 76.2389 34.1461C76.1996 33.5124 76.27 32.8308 76.4586 32.0973C76.7146 31.1901 77.1397 30.2693 77.737 29.3326C79.017 27.4607 80.2663 24.6258 81.4889 20.8248C82.7098 17.0254 83.6342 13.3814 84.2594 9.89316C84.5712 8.1082 85.1475 6.72339 85.986 5.7457C86.8226 4.7685 87.704 4.26564 88.6276 4.23593Z" fill="#76D7EB"/>
<path d="M35.818 7.42441C36.302 7.39003 36.7801 7.48825 37.2526 7.71738C37.7234 7.94661 38.1615 8.30898 38.5651 8.80332C38.967 9.29773 39.3186 9.89053 39.6188 10.5797C40.3803 12.3729 41.2668 15.4148 42.2809 19.7037C43.1605 23.4212 43.571 26.2175 43.5153 28.0943C43.4677 26.2453 43.0571 23.6799 42.2809 20.3932C41.2668 16.1042 40.3786 13.0624 39.6188 11.2691C39.3202 10.58 38.9687 9.98718 38.5651 9.49277C38.1632 9.00007 37.725 8.6377 37.2526 8.40683C36.7801 8.17771 36.302 8.07948 35.818 8.11386C35.3341 8.14836 34.8498 8.3777 34.3659 8.80332C33.8835 9.22906 33.4445 9.82165 33.0524 10.5797C32.6601 11.3381 31.5834 14.3405 29.8209 19.5826C28.0587 24.8257 27.0617 27.918 26.8317 28.8619L26.693 29.5172C26.5782 30.1083 26.5109 30.6557 26.4879 31.1617C26.4568 30.4739 26.524 29.6969 26.693 28.8258L26.8317 28.1715C27.0617 27.2276 28.0587 24.1346 29.8209 18.8932C31.5834 13.651 32.6601 10.6486 33.0524 9.89023C33.4429 9.13055 33.8819 8.53961 34.3659 8.11386C34.8498 7.68988 35.3341 7.4589 35.818 7.42441Z" fill="#76D7EB"/>
<path d="M115.512 22.8443C115.566 23.1733 115.54 23.5304 115.435 23.9117C115.158 24.8927 114.717 25.7745 114.12 26.5523C113.521 27.33 112.837 27.784 112.067 27.9117C111.939 27.6121 111.838 27.2071 111.762 26.6949C111.687 26.1824 111.644 25.6166 111.634 24.9977C111.631 24.8817 111.638 24.767 111.644 24.651C111.662 25.1371 111.702 25.5897 111.762 26.0055C111.838 26.5177 111.939 26.9243 112.067 27.2223C112.837 27.0945 113.521 26.6421 114.12 25.8629C114.717 25.085 115.158 24.2032 115.435 23.2223C115.47 23.0931 115.494 22.9669 115.512 22.8443Z" fill="#76D7EB"/>
<path d="M70.7331 3.99082C71.2136 3.95816 71.6868 4.05539 72.1559 4.28281C72.6233 4.51041 73.0584 4.87065 73.4586 5.35996C73.8573 5.85118 74.2066 6.43826 74.5036 7.12265C75.2584 8.90118 76.1383 11.9178 77.1442 16.1705C78.0156 19.8601 78.4226 22.6336 78.3668 24.4957C78.3209 22.6631 77.9138 20.1208 77.1442 16.8619C76.1382 12.6089 75.2585 9.59162 74.5036 7.81308C74.2066 7.12891 73.8589 6.54247 73.4586 6.05136C73.0584 5.56196 72.6234 5.20083 72.1559 4.97324C71.6868 4.74418 71.2136 4.64793 70.7331 4.68222C70.254 4.71671 69.7726 4.94606 69.2936 5.36679C68.8129 5.78929 68.3788 6.37531 67.9899 7.12851C67.6009 7.88033 66.5325 10.8579 64.7848 16.0572C63.0374 21.2574 62.0484 24.3254 61.82 25.2613L61.6823 25.9117C61.5674 26.4979 61.5012 27.0405 61.4782 27.5416C61.447 26.8587 61.5133 26.0869 61.6823 25.2223L61.82 24.5709C62.0482 23.6356 63.0372 20.5661 64.7848 15.3668C66.5321 10.1684 67.6007 7.19241 67.9899 6.43808C68.3788 5.68487 68.8145 5.09789 69.2936 4.67539C69.7726 4.2531 70.2541 4.0253 70.7331 3.99082Z" fill="#76D7EB"/>
<path d="M56.5592 3.76425C57.4336 3.82321 58.279 4.00185 59.0944 4.29648C59.9098 4.59282 60.549 4.91102 61.0085 5.25156C61.4676 5.592 61.8155 5.92486 62.0534 6.25058C63.0905 7.49356 63.6551 9.08411 63.7438 11.023C63.7586 11.3177 63.7566 11.6097 63.7467 11.8961C63.7435 11.834 63.7471 11.7745 63.7438 11.7125C63.6551 9.77519 63.0905 8.18301 62.0534 6.94004C61.8155 6.61431 61.4677 6.28146 61.0085 5.94101C60.5473 5.60048 59.9098 5.28228 59.0944 4.98593C58.279 4.69131 57.4336 4.51266 56.5592 4.45371C55.6848 4.39485 54.6833 4.58629 53.5563 5.02988C52.429 5.47371 51.3316 6.18313 50.2633 7.16074C49.2542 8.07781 48.3877 9.23336 47.6608 10.6236C46.9339 12.0155 46.3775 13.4815 45.9918 15.0191C45.6063 16.5583 45.3029 18.0978 45.0797 19.6353C44.8582 21.1747 44.7314 22.7132 44.7018 24.2525V24.2545C44.6903 24.8863 44.682 25.4759 44.6803 26.026C44.677 25.2891 44.6838 24.4685 44.7018 23.5631C44.7314 22.0253 44.8566 20.4853 45.0797 18.9459C45.3029 17.4083 45.6063 15.8689 45.9918 14.3297C46.3775 12.7903 46.9338 11.3252 47.6608 9.9332C48.3877 8.54309 49.2543 7.38828 50.2633 6.47129C51.3316 5.49531 52.429 4.78425 53.5563 4.34043C54.6833 3.89684 55.6848 3.7054 56.5592 3.76425Z" fill="#76D7EB"/>
<path d="M8.58853 1.79746C10.5299 1.53712 11.7914 2.29279 12.3708 4.06308C12.6152 4.80979 12.7161 5.60552 12.6784 6.44883C12.6488 5.85771 12.5479 5.2929 12.3708 4.75254C11.7914 2.98224 10.5315 2.22657 8.58853 2.48691C5.97265 2.78499 3.9534 5.32023 2.53384 10.0924C1.67392 12.8895 1.01163 15.7708 0.545559 18.735L0.543606 18.7369C0.202283 20.9068 0.0219853 23.211 0.000637362 25.6412C-0.00919291 22.9539 0.169772 20.4204 0.545559 18.0475C1.01163 15.0816 1.67391 12.2021 2.53384 9.40488C3.9534 4.63257 5.97261 2.09718 8.58853 1.79746Z" fill="#76D7EB"/>
<path d="M132.759 24.3619C132.411 24.5354 131.472 24.601 130.286 24.5143C130.324 24.3047 130.368 24.0749 130.416 23.8326C131.485 23.903 132.369 23.8413 132.718 23.6891C132.733 23.9131 132.748 24.1378 132.759 24.3619Z" fill="#76D7EB"/>
<path d="M114.281 17.3668C116.451 16.7936 118.013 17.055 119.469 17.9762C120.119 18.3872 120.564 19.0482 120.832 19.9127C121.099 20.7771 121.21 21.614 121.168 22.4244V22.4391C121.138 21.8399 121.026 21.2274 120.833 20.6021C120.565 19.7393 120.112 19.093 119.47 18.6656C118.017 17.7264 116.09 17.2365 114.281 17.3668Z" fill="#76D7EB"/>
<path d="M28.8229 0.733005C30.6901 0.770776 31.8485 1.62795 32.2965 3.30625C32.4016 3.78439 32.4367 4.28264 32.4088 4.79843C32.3908 4.52512 32.3539 4.25788 32.2965 3.99765C31.8485 2.31933 30.6901 1.46218 28.8229 1.42441C26.2071 1.31323 23.4603 2.78592 20.5836 5.84336C19.7238 6.70146 18.7063 7.90353 17.5299 9.45078C16.3534 10.9983 15.2787 12.4712 14.3073 13.8697C13.3358 15.2683 12.4979 16.2999 11.0407 18.3092C11.0264 18.3294 9.08181 21.0836 8.14322 22.3238H8.14126C8.30871 22.0683 8.81752 21.2917 9.03579 20.9527C9.40838 20.3745 10.1368 19.2833 11.2213 17.6803C12.3044 16.0771 13.3319 14.5768 14.3034 13.1783C15.2748 11.7798 16.3488 10.3079 17.527 8.76035C18.7036 7.21284 19.7208 6.01009 20.5807 5.15195C23.4591 2.09451 26.2071 0.620182 28.8229 0.733005Z" fill="#76D7EB"/>
<path d="M37.7438 21.3414C37.4679 21.4788 36.7013 21.4834 35.7565 21.4146C35.7926 21.2084 35.8372 20.9802 35.8864 20.733C36.7096 20.7854 37.4167 20.784 37.696 20.6695C37.7124 20.8938 37.7323 21.1172 37.7438 21.3414Z" fill="#76D7EB"/>
<path d="M114.81 4.88828C116.21 4.73929 117.541 5.19737 118.803 6.26328C119.679 7.03116 120.164 7.91759 120.261 8.91953C120.288 9.20112 120.29 9.48007 120.27 9.7584C120.267 9.70936 120.266 9.658 120.261 9.60898C120.164 8.60706 119.679 7.72061 118.803 6.95273C117.541 5.88682 116.21 5.42875 114.81 5.57773C113.409 5.72845 112.127 6.22432 110.962 7.06601C109.797 7.90762 108.894 8.89529 108.253 10.025C107.247 11.9034 106.59 14.0579 106.28 16.4898C106.144 17.5525 106.072 18.5911 106.059 19.608C106.041 18.3733 106.114 17.1055 106.28 15.8004C106.59 13.3685 107.248 11.2123 108.253 9.33554C108.894 8.20583 109.797 7.21981 110.962 6.37656C112.127 5.53323 113.411 5.03736 114.81 4.88828Z" fill="#76D7EB"/>
<path d="M57.3092 12.1373C57.3551 12.599 57.3071 13.0968 57.153 13.6353C56.472 15.8855 53.0606 18.1849 51.2389 18.1852C54.4061 16.9454 56.4818 15.1584 57.153 12.9459C57.2333 12.6661 57.283 12.3975 57.3092 12.1373Z" fill="#76D7EB"/>
<path d="M72.6637 17.8014C72.3889 17.937 71.6038 17.9648 70.6676 17.8961C70.7037 17.6898 70.7483 17.4616 70.7975 17.2145C71.6127 17.2668 72.3316 17.2493 72.6159 17.1119C72.6323 17.3344 72.6522 17.5773 72.6637 17.8014Z" fill="#76D7EB"/>
<path d="M115.213 10.6402C115.326 10.9842 115.185 11.8555 114.888 12.4908C114.531 13.2538 113.938 14.179 113.413 14.8111C113.396 14.8282 111.827 16.4177 110.593 16.7291V16.7271C110.617 16.7102 110.703 16.6387 110.736 16.6158C110.812 16.5633 110.961 16.4499 111.184 16.2799C111.409 16.1097 111.627 15.9325 111.841 15.7525C112.055 15.5708 112.307 15.3323 112.595 15.0328C112.884 14.7348 113.157 14.4292 113.413 14.1197C113.669 13.8103 113.932 13.4485 114.199 13.0328C114.466 12.6169 114.696 12.2058 114.888 11.8014C115.021 11.5017 115.201 11.1248 115.213 10.6402Z" fill="#76D7EB"/>
</svg>
