<svg xmlns="http://www.w3.org/2000/svg" width="119" height="28" fill="none"><g clip-path="url(#a)"><path fill="#D13039" d="M91.144 14.07c1.726-.715 2.628-1.877 2.628-3.525 0-.338-.05-.636-.119-.924-.734.358-1.567.656-1.398.536.139-.675.347-1.28.664-1.836-.724-.705-1.874-1.093-3.49-1.093h-6.665c.992.775 1.23 1.748 1.23 2.87v1.45c.377.337.665.804 1.081 1.092l-1.08 1.082v5.55c0 1.122-.249 2.095-1.23 2.87h2.548v-.01c.803-.785 1.051-.497 1.19.01h2.29c3.829 0 5.782-1.966 5.782-4.389s-1.765-3.584-3.43-3.713zm-5.96-3.783c-.208-.209-.119-.497-.198-.735.248-.06.416.04.545.268.03.248-.099.397-.347.466m1.934-1.49h1.359c1.358 0 2.26.665 2.26 2.224 0 1.708-1.11 2.701-2.489 2.701h-1.13zm4.413 9.631c-.07-.04-.149-.08-.218-.119-.238 1.44-1.22 2.304-2.45 2.304h-1.745v-5.074l1.854-.407c1.458 0 2.41.755 2.41 2.482 0 .179-.02.338-.04.497.01 0 .03-.03.04-.03.12.03.228.1.347.159l-.178.178zm10.531 1.966h-2.201V15.47h.228c1.854 0 3.491.148 4.115 1.856l.228-4.835c-.843 1.191-2.32 1.3-4.294 1.3h-.267V9.016h1.457c1.627 0 2.916.238 4.116 1.896l-.595-3.952c-1.051.258-2.34.278-3.56.278H98.75c-.228.219-.456.427-.654.626-.318-.209-.377-.417-.387-.626h-2.28c.99.775 1.229 1.748 1.229 2.87v9.184c0 1.122-.248 2.095-1.23 2.87h6.605c1.209 0 2.508.02 3.56.298l.743-4.856c-1.229 2.443-2.588 2.79-4.254 2.79zm-4.442.795c-.1.07-.228.109-.347.159-.14-.358-.238-.725-.02-1.093.158.13.317.259.466.398.07.198.08.397-.11.536zM118.405 6.96c-1.051.258-2.34.278-3.56.278h-4.135c-1.21 0-2.509-.02-3.56-.278l-.576 3.952c1.19-1.668 2.45-1.896 4.116-1.896h.496v10.276c0 1.122-.248 2.095-1.25 2.87h2.033c-.129-.1-.248-.189-.377-.288-.099-.08-.149-.219-.218-.318.169-.298.446-.218.694-.248.367.288.744.576 1.111.854h2.429c-.991-.775-1.229-1.748-1.229-2.87v-2.77c-.327.04-.655-.03-1.051-.06.277-.307.426-.476.585-.645l-.456-.486c.198-.358.644-.2.932-.457V9.006h.515c1.647 0 2.896.238 4.116 1.896l-.595-3.952zm-5.98 5.432c.06 0 .139-.04.159-.02.059.07.079.149.119.228-.06 0-.109.01-.179.02-.029-.08-.069-.159-.109-.238zm.298 4.756s-.02-.13-.02-.2c.109.03.218.04.317.08.03.02.02.13.02.199-.109-.03-.218-.04-.317-.08m3.104-9.334c-.07.06-.149.08-.228.12 0-.06-.01-.11-.02-.18.079-.03.158-.069.238-.109 0 .06.039.14.02.16zM47.154 19.8l-.328.436-.833 1.132 2.54-1.648 3.49-2.313s-.754-1.827-1.14-3.982c-.695-3.823 1.824-7.506 5.662-8.211a7.07 7.07 0 0 1 6.317 1.966 84 84 0 0 1 1.874-1.718q.938-.819 1.844-1.579s-2.28.725-3.708 1.46c0 0 1.06-1.658 2.459-2.612A12.07 12.07 0 0 0 55.632.318c-.307.06-.614.139-.912.218-.387.566-.902.507-1.378.447-5.236 2.095-8.519 7.635-7.349 13.315.338 1.658.863 2.89 1.34 3.763l2.28-1.608-1.785 2.422-.684.933zM61.939 1.986l-1.16 2.631a7.5 7.5 0 0 0-1.963-.556c-.774-.11-1.924-.01-1.924-.01l-.387-2.78c1.864-.189 3.719.07 5.435.725zm-9.57.625 1.33 2.373c-.476.308-1.041.735-1.617 1.301-.545.536-1.25 1.52-1.25 1.52l-.465-.279c-.387.12-.724 0-1.041-.347-.04-.11-.05-.209-.06-.298l-.793-.467a12.2 12.2 0 0 1 3.907-3.803zm-6.098 8.35c-.06-.109-.129-.218-.159-.347 0-.04.1-.109.16-.169l.178.328-.179.179zm1.24 4.697a11 11 0 0 1-.387-1.5 11.4 11.4 0 0 1-.06-3.762l2.569.456a9.5 9.5 0 0 0 0 1.847c.08.775.406 1.946.406 1.946l-2.518 1.013zm2.4.795c.277.357.109.526.04.675-.02.05-.19.04-.288.03-.03 0-.08-.13-.07-.17.07-.158.169-.307.318-.546zm4.363 4.646-1.706-.615-2.905 1.499c1.06.159 2.221.377 3.46.705 1.567.407 2.956.904 4.146 1.4a46 46 0 0 0-5.732-.834c-1.25-.1-2.44-.14-3.55-.14-.684.507-1.369 1.014-2.053 1.51 0 0 5.474-.337 12.317 1.003a.75.75 0 0 0-.338-.288c.397-.496.913-.278 1.389-.248.307.159.178.456.228.735.109.04.238.099.357.139a46 46 0 0 1 6.257 1.896l-.466-.377a39.8 39.8 0 0 0-11.404-6.405zm2.48 2.244c-.07-.06-.12-.109-.18-.159.11-.06.209-.139.318-.168.04-.01.109.089.168.139-.099.06-.208.129-.297.188zm-6.13 1.301c-.059-.11-.138-.208-.168-.318-.01-.04.09-.109.139-.169.06.1.129.209.188.298-.06.07-.109.12-.158.179z"/><path fill="url(#b)" d="M17.473 20.394h-2.201V15.47h.228c1.854 0 3.49.148 4.115 1.856l.228-4.835c-.843 1.191-2.32 1.3-4.294 1.3h-.267V9.016h1.457c1.627 0 2.916.238 4.116 1.896L20.26 6.96c-1.051.258-2.34.278-3.56.278h-5.861c.992.775 1.23 1.748 1.23 2.87v7.953c.148 0 .307 0 .456-.05.07.318.129.626.198.954a1.3 1.3 0 0 1-.654-.229v.546c0 1.122-.248 2.095-1.23 2.87h6.604c1.21 0 2.51.02 3.56.298l.744-4.856c-1.23 2.443-2.588 2.79-4.254 2.79zm2.142-12.689c.06.12.139.228.159.347 0 .04-.1.11-.159.17-.06-.11-.119-.23-.178-.338zm-2.836.774c-.347.368-.684.368-1.031 0 .347-.367.684-.367 1.031 0m-4.492.348c-.08 0-.149.01-.218.02.03-.11.04-.219.079-.318.02-.03.129-.02.198-.02-.02.11-.04.219-.06.318m.119 3.624s-.02-.129-.02-.199c.109.03.218.04.317.08.03.02.02.129.02.198-.109-.03-.218-.04-.317-.079m.773 1.658c.199-.129.367-.08.536.13.168.347.268.744.05 1.161a19 19 0 0 1-.506-.427c-.02-.288-.05-.576-.07-.864zm.714 1.728c-.476.04-.238-.229-.149-.437.199.11.248.427.15.437m-7.765 4.557H4.444V13.95s-.04.06-.07.07c-.972.278-1.2-.397-1.686-.437-.03-.526.724-.834.238-1.34.556-.527 1.21-.884 1.518-1.55v-.536c-.01-.07 0-.129 0-.198.02-1.063.267-1.986 1.23-2.73H0c.992.774 1.23 1.747 1.23 2.869v9.184c0 1.122-.248 2.095-1.23 2.87h6.069c1.23 0 2.529.02 3.56.298l.744-4.856c-1.23 2.443-2.569 2.79-4.235 2.79zm-2.727.09c-.416-.08-.575-.467-.862-.695.238-.288.525-.318.872-.15.238.279.238.557-.01.855zm33.122-5.58H30.96c.991.774 1.23 1.747 1.23 2.869v2.462a4.2 4.2 0 0 1-2.033.497c-2.162 0-3.987-1.638-3.987-6.285 0-2.175.397-3.585 1.041-4.468l-.466-.467c.06-.486.437-.288.714-.328.1.09.169.189.209.278.664-.595 1.487-.814 2.37-.814 2.013 0 3.738 1.102 4.998 3.823V7.616c-1.3 0-2.985-.715-4.979-.715-3.808 0-7.417 2.502-7.417 8.122 0 2.194.555 3.832 1.448 5.004.148-.238.644-.328.971-.487.16.398.288.705.407 1.013-.03.238-.327.437-.188.586.297.437.833.407 1.08.715.943.427 1.974.625 3.025.625 2.41 0 4.75-.973 6-.973v-2.472s-.07.09-.11.13c-1.21-.329-.118-1.053-.307-1.5.179.11.308.218.407.337v-.228c0-1.082.238-2.025 1.14-2.79v-.08zm-12.783.03c-.059-.11-.118-.229-.178-.338l.178-.179c.06.12.14.228.16.348 0 .04-.1.109-.16.168m19.288 7.228h-5.672c.486-.387.793-.814.982-1.291.198.02.396-.06.565-.268-.04-.229.11-.507-.248-.725h-.09c.02-.189.03-.387.03-.586v-9.184c0-1.122-.247-2.095-1.229-2.87h2.033l.367.368a.8.8 0 0 0 .208-.368h3.064c-1.011.775-1.23 1.748-1.23 2.87v1.946c-.227 0-.465-.02-.684-.14-.099 1.788-.109 1.788.457 2.781.069 0 .148-.01.228-.02v4.607c0 1.122.228 2.095 1.23 2.87zm35.413-11.32v.03s.09-.08.129-.129c.06.11.119.229.178.328l-.178.179c-.04-.09-.09-.18-.13-.268v2.273c.18-.01.388.11.645.288-.257.199-.456.278-.644.258v4.647c-1.706-3.803-5.752-7.883-6.436-11.23h-4.77c.962.775 1.21 1.728 1.21 2.87v1.062c.109-.03.287.02.615.12 0 .258-.04.526-.02.794.01.139.109.268.178.417-.248.665-.505 1.33-.773 2.025v4.756c0 1.122-.248 2.095-1.21 2.87h5.157c-1.518-.745-2.103-1.787-2.162-3.316-.03-.06-.06-.12-.07-.18 0-.019.02-.049.06-.079v-7.893c1.1 2.641 3.342 5.381 4.899 7.943-.02-.129-.05-.248-.11-.387.774.387 1.24.625 1.696.874.04.02 0 .159 0 .248h-.803c-.05.119-.109.248-.168.367.446.844.783 1.658.942 2.433h3.49v-3.465c-.158-.03-.317-.06-.486-.09.05-.357.278-.526.486-.725v-7.774c0-1.122.248-2.095 1.23-2.87h-5.157c1.627.825 2.182 1.947 2.182 3.605zm-5.117 2.92s-.11-.1-.169-.16c.11-.059.228-.118.328-.178l.178.179c-.119.06-.228.139-.347.159zm1.051 3.465c0-.08-.01-.149-.02-.218.11.03.218.04.317.079.03.02.02.129.02.198zm.387-.854s-.1.02-.159.03c.02-.09.02-.179.06-.258.01-.03.099-.02.158-.03-.02.09-.02.179-.06.258m.912.199c-.07-.08-.1-.199-.139-.298.07 0 .14-.01.218-.02l.12.298c-.07 0-.18.04-.199.01zM63.15 11.14c-.595-1.787-2.162-2.75-2.162-2.75-1.011.11-3.391.258-5.682 1.837.823-2.77 3.977-3.296 4.354-3.217-2.995-.636-4.84.725-5.861 1.976.218.407.08.874.05 1.28-.01.18-.506.378-.814.457-.05.01-.148-.05-.238-.139-.04.1-.07.16-.07.16s-.535 1.3-.366 2.342a10 10 0 0 1 2.32-.546c.962-.099 1.795-.05 2.44.04-.704.328-1.487.755-2.32 1.31a19 19 0 0 0-2.133 1.659v.01c1.438.417 3.848.516 4.622.546.099-.179.218-.367.376-.636.447.586.179.845.06 1.103 0 .02-.03.03-.07.04.278 1.588-.495 3.197-.495 3.197 1.17.675 2.37 1.39 3.59 2.154 1.13.715 2.22 1.42 3.252 2.125-.506-2.582-1.001-5.173-1.507-7.755l-2.192-.516c-1.398-.218-1.616-2.591-1.616-2.591l4.78.982.416 3.436 1.418 1.172c-.327-4.627-1.527-10.098-1.527-10.098l-.645 2.412zm-5.632-.695c-.06-.109-.13-.218-.159-.347 0-.04.1-.11.159-.169l.178.328-.178.178zm1.487 8.291-.337.338c-.11-.209-.248-.417-.297-.636-.02-.08.188-.208.297-.307.11.208.228.407.337.605"/></g><defs><linearGradient id="b" x1="40.698" x2="40.698" y1="24.088" y2="6.848" gradientUnits="userSpaceOnUse"><stop stop-color="#AD7F50"/><stop offset="1" stop-color="#FFE0C1"/></linearGradient><clipPath id="a"><path fill="#fff" d="M0 0h119v28H0z"/></clipPath></defs></svg>