<svg width="126" height="112" viewBox="0 0 126 112" fill="none" xmlns="http://www.w3.org/2000/svg">
<path d="M105.259 9.46038L98.3791 16.1452L107.879 17.5134L108.895 19.5853L112.14 26.1529L116.401 17.5134L125.9 16.1452L119.02 9.46038L120.623 0L112.14 4.45654L103.657 0L105.22 9.10855L105.259 9.46038Z" fill="white"/>
<path d="M90.9515 18.5689L99.0437 10.6723L20.6632 31.0004L103.109 20.3281L90.9515 18.5689Z" fill="white"/>
<path d="M19.8423 50.5466C16.2458 50.6639 12.6102 50.8202 9.01367 50.9375V38.7798C6.51175 39.0143 4.00983 39.288 1.50791 39.5225V56.4887C7.60633 56.4496 13.7439 56.4105 19.8423 56.3323V50.5075V50.5466Z" fill="white"/>
<path d="M21.7187 37.4897V46.1682C21.7187 49.8429 22.266 56.5668 33.5247 56.5668H34.3065C45.1351 56.5668 45.9561 48.9438 45.9561 44.8V35.1442C43.4542 35.3787 40.9522 35.6524 38.4894 35.8869V45.23C38.4894 47.5756 37.7076 49.9211 33.9547 50.0384H33.8374C29.9672 50.1557 29.1854 47.9665 29.1854 45.7382V36.7469C26.6835 36.9815 24.1816 37.2551 21.7187 37.4897Z" fill="white"/>
<path d="M60.4594 39.8353C64.8768 39.5225 65.1114 42.1808 65.1896 42.689C67.8088 42.5326 70.3889 42.3763 73.0081 42.2199V41.8681C73.0081 38.1152 71.6789 32.0168 61.0067 33.1504C60.6549 33.1504 60.2639 33.2286 59.9121 33.2677C49.7871 34.3623 47.9889 40.9689 47.9889 44.9955V45.8555C47.9889 49.9211 49.8262 56.4496 59.9121 56.4496H61.0067C71.6789 56.4496 73.0081 49.8038 73.0081 46.4419V46.051C70.3889 46.1682 67.8088 46.2855 65.1896 46.4028C65.1114 46.7937 64.8378 49.5302 60.4985 49.6475C56.4329 49.7647 55.8074 46.8328 55.8074 45.1127V44.8C55.8074 43.1581 56.3547 40.148 60.4594 39.8353Z" fill="white"/>
<path d="M112.218 37.4897C110.615 34.5969 109.012 31.7431 107.409 28.9675C104.399 29.2803 101.35 29.5539 98.34 29.8667C95.7208 30.1403 93.1407 30.3749 90.5215 30.6485C88.2151 34.0105 85.9086 37.2551 83.5631 40.4607V31.3131L76.0964 32.0558V55.9023C78.5983 55.9023 81.1002 55.8632 83.5631 55.8241V45.2691C85.8695 48.6702 88.1369 52.1885 90.4433 55.785C93.5707 55.785 96.659 55.7459 99.7864 55.7068C96.7372 50.9375 93.6489 46.3637 90.5997 41.9072C93.2971 38.1543 95.9945 34.3232 98.6918 30.3749C101.858 35.496 105.025 40.7735 108.191 46.2073V55.6286C110.693 55.6286 113.195 55.5895 115.658 55.5504V45.8946C118.824 39.8353 121.991 33.6195 125.197 27.1693C122.538 27.4429 119.841 27.6775 117.183 27.9511C115.541 31.1567 113.899 34.3232 112.257 37.4506L112.218 37.4897Z" fill="white"/>
<path d="M15.073 79.3187V66.5354C17.5749 66.6136 20.0768 66.7309 22.5397 66.8091V61.0625C15.073 60.9843 7.56725 60.9452 0.100586 60.867V65.9881C2.60251 66.0663 5.10441 66.1836 7.56724 66.2618V78.5759C10.0692 78.8105 12.5711 79.0841 15.0339 79.3187H15.073Z" fill="white"/>
<path d="M39.5449 81.7424C40.6395 77.8723 41.7732 73.9239 42.8678 69.9365C43.9623 74.0412 45.096 78.185 46.1906 82.407C49.1226 82.6806 52.0154 82.9934 54.9473 83.267C56.9802 76.1522 59.013 68.8419 61.0849 61.3752C58.622 61.3752 56.1983 61.3752 53.7355 61.3361C52.6018 65.8708 51.5072 70.3665 50.3735 74.7839C49.2398 70.2101 48.1453 65.7145 47.0116 61.2579L39.2713 61.1798C38.1376 65.4408 37.0039 69.6628 35.8702 73.8066C34.7756 69.5065 33.6419 65.2845 32.5474 61.1016C29.85 61.1016 27.1526 61.0625 24.4943 61.0234C26.5662 67.4346 28.6772 74.0412 30.7491 80.8433C33.681 81.1169 36.613 81.4297 39.5449 81.7033V81.7424Z" fill="white"/>
<path d="M63.1959 84.0489C65.6978 84.2834 68.1997 84.5571 70.7016 84.7916V61.4143L63.1959 61.3361V84.0489Z" fill="white"/>
<path d="M86.8859 61.1407H85.7913C75.6664 61.1407 73.8681 68.2555 73.8681 72.7511V73.6894C73.8681 78.185 75.7055 85.6517 85.7913 86.7072C86.1432 86.7072 86.5341 86.7853 86.8859 86.8244C97.5582 87.9581 98.8873 80.8042 98.8873 77.1295V76.6995C96.2681 76.5431 93.688 76.3867 91.0688 76.2304C90.9906 76.6604 90.717 79.6314 86.3777 79.3187C82.3121 79.0059 81.6866 75.6831 81.6866 73.7675V73.4157C81.6866 71.5784 82.2339 68.3337 86.3386 68.451C90.7561 68.6073 90.9906 71.5784 91.0688 72.1257C93.688 72.2429 96.2681 72.3602 98.8873 72.4775V72.0866C98.8873 67.9818 97.5582 61.1016 86.8859 61.1016V61.1407Z" fill="white"/>
<path d="M109.481 78.5368C113.234 78.7714 116.987 79.0059 120.74 79.2796V71.9693C116.987 71.8129 113.234 71.6565 109.481 71.5002V68.6073C113.352 68.7246 117.222 68.8419 121.092 68.9592V61.8443C114.72 61.8052 108.309 61.7271 101.937 61.688V87.8799C108.387 88.5054 114.798 89.1309 121.248 89.7955V82.6024C117.3 82.2897 113.391 82.0161 109.442 81.7033V78.5759L109.481 78.5368Z" fill="white"/>
<path d="M91.6943 99.0213L92.007 97.2621L92.9844 91.6328L86.3777 95.112L79.7711 91.6328L80.3966 95.3466L81.022 99.0213L78.2074 101.719L75.6664 104.221L83.0549 105.276L86.3777 112L89.6615 105.276L91.0688 105.081L95.6426 104.416L97.0499 104.221L94.1962 101.406L91.6943 99.0213Z" fill="white"/>
<path d="M76.761 94.7602C52.4845 90.7337 8.03636 83.3843 7.76271 83.3843C7.64022 83.3843 7.64022 83.3843 7.76271 83.3843L74.2981 100.741L77.3083 97.8094L76.8001 94.7602H76.761Z" fill="white"/>
</svg>
