<svg xmlns="http://www.w3.org/2000/svg" width="167" height="30" fill="none"><g clip-path="url(#a)"><path fill="#fff" d="M35.349 4.5h3.987v19.167H35.35zM50.967 18c0 1-.333 1.667-.831 2.167-.499.5-1.163.833-1.994.833-.83 0-1.163-.167-1.495-.667-.332-.333-.499-1-.499-1.833v-8h-3.987v8c0 1.833.332 3.167 1.163 4.167.83.833 1.994 1.333 3.655 1.333 1.662 0 1.828-.167 2.658-.667A5.1 5.1 0 0 0 50.967 22v1.833h3.82V10.667H50.8V18zm13.79-4.667c.498 0 .996 0 1.66.334.5.166.998.5 1.496.833l1.163-2.667c-.498-.5-1.163-.833-1.993-1.166-.831-.334-1.662-.334-2.659-.334-1.329 0-2.658.334-3.655.834S58.941 12.5 58.277 13.5c-.499 1-.83 2.167-.83 3.667s.331 2.666.83 3.666 1.329 1.834 2.492 2.334c.997.5 2.326.833 3.655.833 1.33 0 1.662 0 2.492-.333.831-.334 1.496-.667 2.16-1.167l-1.163-2.667c-.498.334-.997.667-1.495.834S65.255 21 64.756 21q-1.494 0-2.492-1c-.664-.667-.83-1.667-.83-2.833s.332-2.167.83-2.834q.998-1 2.492-1m29.74-2.833-3.49 8.5-3.323-8.5h-7.642L75.224 16V4.5h-3.988v19.167h3.988V18l5.15 5.667h4.818l-5.981-6.834 4.984-5.5 5.15 11.834-.332.666c-.166.5-.498 1-.83 1.334-.333.333-.83.666-1.33.833-.498.167-1.328.333-1.993.5l.83 3c.831 0 1.496-.333 2.327-.5.664-.167 1.329-.5 1.827-.833.499-.334 1.163-.834 1.662-1.5.498-.667.997-1.5 1.329-2.5l5.981-13.834h-3.821z"/><path fill="url(#b)" d="M118.919 10.5h3.822l-5.317 13.167h-3.323L111.111 16l-2.825 7.667h-3.323L99.647 10.5h3.987l3.157 8.667 3.157-8.667h2.658l3.157 8.833zm14.787 0h3.822v13.167h-3.822v-1.834c-.332.5-.83 1-1.329 1.334-.831.5-1.827.833-2.824.833s-2.16-.333-2.991-.833-1.495-1.334-1.994-2.334-.664-2.333-.664-3.666c0-1.334.166-2.667.664-3.667.499-1 1.163-1.833 1.994-2.333a5.73 5.73 0 0 1 2.991-.834c1.163 0 1.993.334 2.824.834a3.26 3.26 0 0 1 1.495 1.5v-2zm-.332 6.667c0-1.334-.332-2.334-.831-3-.498-.667-1.329-1-2.16-1-.83 0-1.661.333-2.159 1-.499.666-.831 1.666-.831 3 0 1.333.332 2.333.831 3s1.329 1 2.159 1c.831 0 1.662-.334 2.16-1 .499-.667.831-1.667.831-3M145.835 19l-3.323-8.5h-4.154l5.649 13.167h3.323l5.815-13.167h-3.821zm20.103-1.167h-8.639c0 1 .332 1.834.997 2.334.664.666 1.495 1 2.824 1s1.329 0 1.994-.334c.664-.166 1.163-.5 1.827-.833l1.163 2.667c-.664.5-1.495.833-2.326 1.166-.83.334-1.827.334-2.824.334-2.326 0-4.154-.667-5.317-1.834q-1.993-1.75-1.993-5c0-2.166.332-2.5.83-3.666.499-1 1.33-1.834 2.326-2.334.997-.5 2.16-.833 3.489-.833 1.33 0 2.326.333 3.323.833.831.5 1.496 1.334 1.994 2.334s.665 2.166.665 3.5V18zm-7.975-4c-.332.5-.664 1.167-.664 2h5.316c0-1-.332-1.666-.664-2.166-.499-.5-.997-.834-1.994-.834s-1.661.334-2.16 1z"/><path fill="url(#c)" d="M30.032 15.667c0-1.5-.332-3-1.495-4.167l-8.141-8.167L19.066 2c-1.993-2-5.316-2-7.31 0l-9.304 9.5c-1.329 1.333-1.661 3-1.329 4.667 0 .5.333 1 .499 1.5.332.5 3.323 5 10.3 1C14.914 17 17.573 16 20.065 15.333v-.666c0-.834.498-1.5.997-2 .332-.167.83-.334 1.329-.334.498 0 .664 0 .997.167.83.333 1.329 1.167 1.329 2 3.489 0 5.482.833 5.482.833zM8.766 17c-1.33 0-2.326-1-2.326-2.333s.997-2.334 2.326-2.334 2.326 1 2.326 2.334C11.092 16 10.095 17 8.766 17m6.646-6.667c-1.33 0-2.326-1-2.326-2.333s.996-2.333 2.326-2.333c1.329 0 .664 0 .996.166.831.334 1.33 1.167 1.33 2 0 1.334-.997 2.334-2.326 2.334z"/><path fill="#fff" d="M5.941 22.333 5.61 22c1.163.667 4.154.667 9.138-1.667 8.141-4 12.793-1.333 13.292-1L24.383 23c-2.824-1.333-6.978 0-10.633.833-4.32 1-6.978-.5-7.809-1.333zM15.744 26c-3.157.667-5.15.333-6.646-.5l2.825 2.833c1.993 2 5.316 2 7.31 0L20.563 27l.996-1s-1.662-1-5.649 0z"/></g><defs><linearGradient id="b" x1="132.709" x2="132.709" y1="10.167" y2="24" gradientUnits="userSpaceOnUse"><stop stop-color="#00F76A"/><stop offset=".2" stop-color="#19EE5C"/><stop offset=".5" stop-color="#3DE249"/><stop offset=".8" stop-color="#53DA3D"/><stop offset="1" stop-color="#5BD839"/></linearGradient><linearGradient id="c" x1="15.412" x2="15.412" y1=".667" y2="20.333" gradientUnits="userSpaceOnUse"><stop stop-color="#00F76A"/><stop offset=".2" stop-color="#19EE5C"/><stop offset=".5" stop-color="#3DE249"/><stop offset=".8" stop-color="#53DA3D"/><stop offset="1" stop-color="#5BD839"/></linearGradient><clipPath id="a"><path fill="#fff" d="M.479 0h166v31h-166z"/></clipPath></defs></svg>