<?xml version="1.0" encoding="UTF-8"?>
<svg id="Layer_1" data-name="Layer 1" xmlns="http://www.w3.org/2000/svg" xmlns:xlink="http://www.w3.org/1999/xlink" version="1.1" viewBox="0 0 200 141">
  <defs>
    <style>
      .cls-1 {
        fill: url(#linear-gradient);
      }

      .cls-1, .cls-2 {
        stroke-width: 0px;
      }

      .cls-2 {
        fill: #f7e893;
      }
    </style>
    <linearGradient id="linear-gradient" x1="1.1" y1="124.4" x2="199" y2="124.4" gradientUnits="userSpaceOnUse">
      <stop offset="0" stop-color="#d4ab56"/>
      <stop offset=".4" stop-color="#fef39e"/>
      <stop offset=".6" stop-color="#fef39e"/>
      <stop offset="1" stop-color="#d4ab56"/>
    </linearGradient>
  </defs>
  <path class="cls-1" d="M10,140H1.1v-31.3h3.5c.9,0,2.4,0,4.3-.1,1.9,0,3.5-.1,4.7-.1,3.4,0,6.1.9,7.8,2.7,1.8,1.8,2.7,4.6,2.7,8.2s-.3,4.2-.9,6c-.6,1.8-1.3,3.3-2.3,4.4-1,1.2-2.1,2-3.3,2.7-1.2.6-2.6.9-3.9.9h-1.1c-.1,0-.3,0-.5,0-.2,0-.4,0-.5,0-.1,0-.3,0-.5,0-.2,0-.3,0-.4,0s-.2,0-.4,0c-.2,0-.3,0-.3,0v6.6ZM15.4,118.3c0-1.3-.4-2.4-1.1-3.2-.7-.8-1.7-1.2-3.1-1.2h-1.3v13.9h1c1.4,0,2.5-.5,3.3-1.4.8-.9,1.2-2.3,1.2-4.1v-3.9ZM38.1,129.6v10.4h-8.9v-31.3h3.5c.9,0,2.1,0,3.8-.1,1.7,0,3.1-.1,4.2-.1,3.8,0,6.7.8,8.6,2.5,1.9,1.7,2.9,4.3,2.9,7.8s-.5,3.9-1.4,5.5c-.9,1.6-2.1,2.9-3.5,3.8.8.2,1.5.6,2.1,1.4.6.7,1,1.6,1.4,2.5.3,1,.6,1.9.8,2.9.2,1,.5,1.9.8,2.9.3,1,.7,1.7,1,2.2h-9.8c-.2-.2-.3-.9-.5-2.1-.1-1.2-.3-2.5-.5-4.1-.2-1.6-.4-3-.8-4.1h-1.2c-.4,0-.7,0-1,0-.3,0-.6,0-.9,0-.3,0-.5,0-.7,0ZM38.1,124.6h.9c.4,0,.8,0,1.1,0,.3,0,.6,0,1-.2.4-.1.7-.3.9-.5.2-.2.5-.5.7-.8.2-.3.4-.8.5-1.3.1-.5.2-1.2.2-1.9v-2.1c0-1.5-.4-2.6-1.2-3.2-.8-.6-2-.9-3.5-.9h-.5v11ZM77.2,140h-18.9v-31.3h18.5l-.5,6.3-9.1-.3v6h7.2v6.2l-7.2-.5v7.1l10.1-.3v6.7ZM92.2,140.6c-1.4,0-2.6-.1-3.8-.4-1.2-.2-2.2-.5-3-.9-.8-.4-1.5-.8-2-1.1-.5-.4-.9-.7-1.3-1.1l.7-6.5c.7,1,1.7,1.8,2.9,2.6,1.2.7,2.6,1.1,4,1.1s2.4-.2,3.1-.5c.6-.3,1-.9,1-1.7s-.4-1.6-1.1-2.2c-.7-.6-1.9-1.3-3.7-2.2-.6-.3-1.2-.6-1.6-.9-.4-.3-1-.7-1.8-1.3-.7-.6-1.3-1.2-1.8-1.9-.5-.7-.9-1.5-1.2-2.5-.4-1-.5-2.1-.5-3.3,0-6.3,3.6-9.5,10.7-9.5s2.2.1,3.2.4c1,.2,1.8.5,2.4.8.6.3,1.1.6,1.5,1,.5.4.8.6.9.8.1.1.2.3.3.3l-1.3,5.1c-.7-.8-1.6-1.4-2.6-1.8-1-.4-2-.6-3-.6-2.3,0-3.4.7-3.4,2.1s0,.7.2,1c.1.3.4.6.7.8s.6.5.9.6c.3.2.7.4,1.1.7.5.2.9.5,1.1.6,2.6,1.1,4.5,2.4,5.7,3.9,1.2,1.5,1.8,3.4,1.8,5.5,0,3.5-.9,6.2-2.6,8.1-1.7,1.8-4.2,2.7-7.5,2.7ZM113.3,140v-24.2h-6.2v-7.1h21.5v7.1h-6.2v24.2h-9ZM134.2,140v-31.3h9.1v31.3h-9.1ZM169.1,137.2c-2.3,2.3-4.9,3.4-8.1,3.4s-4.1-.4-5.7-1.1c-1.6-.8-2.9-1.9-3.8-3.3-.9-1.4-1.6-3.1-2.1-4.9-.4-1.8-.6-4-.6-6.3s0-3.3.3-4.7c.2-1.4.5-2.7.9-4,.4-1.3,1-2.4,1.8-3.3.7-.9,1.7-1.8,2.7-2.5,1.1-.7,2.4-1.2,3.9-1.5,1.5-.4,3.3-.5,5.3-.5s1.7,0,2.5.2c.8.1,1.5.2,2.1.4.6.1,1.1.3,1.6.6.5.2.9.4,1.2.6.3.2.6.3.8.5.2.2.4.3.5.4,0,0,.1.1.2.2l-.4,6.1h-4.9l-1.5-3.5c-.4-.2-1-.3-1.9-.3s-1.3,0-1.8.2c-.5.1-.9.4-1.4.8-.4.4-.8,1-1.1,1.7-.2.7-.5,1.8-.6,3.1-.2,1.3-.2,2.8-.2,4.7,0,3.9.2,6.7.6,8.6.4,1.9,1.3,2.8,2.5,2.8s1.1,0,1.6-.2c.4-.1.8-.3,1.2-.6.4-.3.6-.8.8-1.4.2-.6.3-1.4.3-2.4v-2.7l-3.5-.8v-5.4h11.9v18.3h-4.8l-.3-2.8ZM199,140h-18.9v-31.3h18.5l-.5,6.3-9.1-.3v6h7.2v6.2l-7.2-.5v7.1l10.1-.3v6.7Z"/>
  <g>
    <path class="cls-2" d="M160.4,37c6.6,6.7,5.3,16,0,24-5.3,8-23.6,13.3-34.1,8-10.5-5.3-13.1-14.7-15.8-20-1.5-3-1.3-5.8,0-6.7l9.2-13.3,1.3-2.7L100,1l-22.3,25.3,2.6,4,3.9,5.3,3.9,5.3,1.3,1.3v5.3l-1.3,4c-2.6,4-3.9,9.3-14.4,16-10.5,6.7-26.3,1.3-35.5-8-7.4-7.5-3.1-19.1,0-24l-26.3-13.3,26.3,66.7h123.5l26.3-66.7-27.6,14.7Z"/>
    <path class="cls-2" d="M51.7,43.7c.8.8,1.9,1.8,3.4,3.3,1.3,1.3,2,1.8,2.4,3.3.9,4.5,1.6,9.1,2.2,13.8,0,0,0,0,.1,0,4,.2,7.8-.5,11.4-2,0,0,.1-.1.1-.2-1.1-4.1-2-7.9-2.6-11.4-.2-1.3-.4-2.1-.4-2.3,0-.6.3-1.4.8-2.2.6-.9,1.7-2.9,3.5-6,.1-.2.3-.6.4-1.1,0-.1,0-.3-.1-.4-.6-.6-1-1-1.3-1.3-3.7-3.3-7.7-6.9-12.1-10.6h0s0,0-.1,0c-2.3,3.5-4.8,7.3-7.3,11.3-.7,1.1-1.4,2.3-2,3.4,0,.2,0,.4,0,.6.4.5.9,1.1,1.6,1.8Z"/>
    <path class="cls-2" d="M120.7,38.9c.1.5.3.9.4,1.1,1.8,3.1,2.9,5.1,3.5,6,.5.8.8,1.6.8,2.2,0,.3-.1,1-.4,2.3-.7,3.6-1.5,7.4-2.6,11.4,0,0,0,.2.1.2,3.6,1.6,7.4,2.2,11.4,2,0,0,0,0,.1,0,.5-4.7,1.3-9.3,2.2-13.8.3-1.6,1-2.1,2.4-3.3,1.5-1.4,2.7-2.5,3.4-3.3.7-.7,1.3-1.3,1.6-1.8.1-.2.1-.4,0-.6-.6-1.2-1.3-2.3-2-3.4-2.5-4-5-7.7-7.3-11.3,0,0,0,0,0,0,0,0,0,0-.1,0-4.4,3.7-8.5,7.2-12.1,10.6-.3.2-.7.7-1.3,1.3-.1.1-.1.2-.1.4Z"/>
  </g>
</svg>
