<svg width="61" height="34" viewBox="0 0 61 34" fill="none" xmlns="http://www.w3.org/2000/svg"><g clip-path="url(#a)"><g filter="url(#b)"><path d="M11.37 19.2c-1.63-1.26-1.63-3.3.01-4.57L26.92 2.57a5.15 5.15 0 0 1 5.96-.03L48.7 14.62c1.66 1.27 1.65 3.34-.03 4.61l-15.8 11.98a5.15 5.15 0 0 1-5.93 0z" fill="url(#c)"/></g><path d="M11.37 19.56c-1.63-1.26-1.63-3.3.01-4.58L26.92 2.92a5.15 5.15 0 0 1 5.96-.03L48.7 14.98c1.66 1.27 1.65 3.34-.03 4.61l-15.8 11.98a5.15 5.15 0 0 1-5.93-.01z" stroke="#006aa8" stroke-width="1.34638" stroke-linejoin="round"/><path d="M42.93 22.36a2.4 2.4 0 0 1 2.39 2.39v2.96a2.4 2.4 0 0 1-2.39 2.39H17.24a2.4 2.4 0 0 1-2.39-2.4v-2.95a2.4 2.4 0 0 1 2.4-2.4z" fill="#034477" stroke="url(#d)" stroke-width="0.354867"/><path d="M39.67 29.32a.2.2 0 0 1-.12-.05.2.2 0 0 1-.05-.13v-4.25q0-.08.05-.13a.2.2 0 0 1 .12-.05h1.04q.14 0 .2.06l.07.09 1.12 1.82v-1.8a.2.2 0 0 1 .05-.12.2.2 0 0 1 .13-.05h1.19q.07 0 .12.05a.2.2 0 0 1 .05.13v4.25q0 .07-.05.13a.2.2 0 0 1-.12.05h-1.04q-.14 0-.2-.06l-.07-.1-1.12-1.67v1.65q0 .07-.05.13a.2.2 0 0 1-.12.05z" fill="url(#e)"/><path d="M33.18 27.52a.2.2 0 0 1-.13-.05.2.2 0 0 1-.05-.12v-4.26q0-.08.05-.12a.2.2 0 0 1 .13-.06h1.34q.08 0 .13.06a.2.2 0 0 1 .05.12v4.25q0 .08-.05.13a.2.2 0 0 1-.13.05z" fill="url(#f)"/><path d="M24.6 28.42a.2.2 0 0 1-.13-.05.2.2 0 0 1-.05-.13V24q0-.08.05-.13a.2.2 0 0 1 .13-.05h2q.6 0 1.03.18a1.4 1.4 0 0 1 .95 1.43q0 .56-.25.9-.25.35-.7.5-.5.18-1.04.17h-.46v1.25q0 .08-.05.13a.2.2 0 0 1-.13.05zm1.5-2.65h.46q.1 0 .2-.08t.1-.28a1 1 0 0 0-.06-.25q-.06-.12-.24-.12h-.46z" fill="url(#g)"/><path d="M18.88 28.49q-.72 0-1.2-.2t-.71-.52a1.2 1.2 0 0 1-.25-.69q0-.06.04-.1a.2.2 0 0 1 .1-.04h1.25q.11 0 .16.03l.13.08.13.09.16.05a2 2 0 0 0 .55-.03q.14-.06.14-.14t-.08-.13a1 1 0 0 0-.26-.1l-.51-.08a3 3 0 0 1-.9-.25q-.37-.16-.6-.46a1.3 1.3 0 0 1-.2-.74q0-.45.25-.79t.7-.53q.52-.2 1.06-.2.5 0 .87.14.38.13.65.33.26.21.4.44a1 1 0 0 1 .15.46q0 .06-.05.1a.1.1 0 0 1-.1.04h-1.3l-.16-.02-.11-.08-.13-.07a1 1 0 0 0-.22-.05.5.5 0 0 0-.25.05.2.2 0 0 0-.07.13q0 .06.06.12t.22.09l.45.08q.67.08 1.06.25.4.18.58.46.18.3.18.72 0 .48-.29.83-.3.38-.78.54-.54.2-1.12.19" fill="url(#h)"/><path d="M22.2 22.14h.5v8h-.5z" fill="url(#i)"/><path d="M29.8 22.14h.5v8h-.5z" fill="url(#j)"/><path d="M37.35 22.14h.5v8h-.5z" fill="url(#k)"/><path d="M38.3 5.96c1-.1.9.25.71 1-.49 1.87-1.27 3.68-1.77 5.55-.1.36-.24.73-.2 1.12a1 1 0 0 0 .4-.1c.56-.22 2.73-1.89 2.98-2.39.2-.37.14-1 .67-1.1.39-.07.97-.05 1.12.39l-.74 2.65c-.02.62 1.01-.22 1.2-.4.5-.46.77-1 1.01-1.63.12-.32.26-1.1.5-1.28.34-.28 1.22-.34 1.39.18l-.93 3.15c.73-.4 1.4-1.2 2.1-1.59.4-.21.27.51.2.74l-2.74 2.09c-.73 1.71-1.24 7.3-4.22 6.15-1.67-.64-1.57-2.45-.53-3.65.07-.08.27-.08.15-.2l-17.93 4.82a1 1 0 0 1-.22 0c-.32-.1-1.16-1.81-.35-1.92l19.79-3.98c.35-.49 1.39-.87 1.73-1.24.12-.14.3-.67.28-.87-.6.62-2 1.57-2.85 1.02-.6-.38-.31-1-.19-1.52.02-.1 0-.1-.08-.09-.69.62-1.49 1.27-2.3 1.72-.54.3-1.48.82-2.04.32-.45-.41-.16-1-.04-1.47.02-.08.11-.11-.04-.1-.73.6-1.5 1.23-2.31 1.7-.59.33-1.62.9-2.22.36-.56-.5.01-1.47.13-2.04.04-.23.4-.78.41-.55.12.12-.28-.37-.11-.56.12-.13.3-.76.38-.97.46-1.31.86-3.16 1.44-4.35.23-.48.7-.66 1.22-.6q.52.04.43.55c-.6 2.06-1.45 4.11-2.03 6.17-.05.18-.26.88-.18 1q.05.06.12.06c.6.05 2.67-1.78 3.18-2.25.6-1.66 1.02-3.43 1.63-5.1.17-.47.27-.72.85-.79m3.84 9.73c-.52.4-1.1.84-1.54 1.32-.34.36-.82.94-.9 1.43-.16 1.03.68.93 1.2.31.36-.42 1.17-2.42 1.27-2.97q0-.08-.03-.1M19.98 5.44c.29-.11 1.37-.4 1.43.02l-3.78 12.2-.21.26c-.72.1-1.41.4-2.14.36l.03-.35 3.9-11.84c.13-.3.48-.52.77-.65m1.7-2.43c3.17-.16 7.58 1.2 6.54 5.25-.67 2.6-3.35 4.07-5.8 4.6l.03.17 2.75 4.1c.15.3-.2.56-.42.72-.62.42-1.57.64-2.02-.12q-1.03-2.2-2.1-4.38c-.13-.25-.6-.8-.43-1.04.06-.09 1.78-.39 2.11-.5 4.83-1.56 5.4-7.18-.48-7.56-2.03-.13-6.62.74-6.52 3.45.03.77.95 1.43.08 1.97-.98.6-2.1-.08-2.14-1.2-.11-3.6 5.57-5.32 8.4-5.46" fill="#070862"/><path d="M39.3 5.52c1-.1.9.25.71 1-.49 1.87-1.27 3.67-1.77 5.54-.1.37-.24.74-.2 1.12a1 1 0 0 0 .4-.09c.56-.23 2.73-1.9 2.98-2.39.2-.38.14-1 .67-1.1.39-.07.97-.05 1.12.38l-.74 2.66c-.02.61 1.01-.22 1.2-.4.5-.47.77-1 1.01-1.64.12-.32.26-1.09.5-1.28.34-.27 1.22-.33 1.39.19l-.93 3.14c.73-.4 1.4-1.19 2.1-1.58.4-.22.27.5.2.73l-2.74 2.1c-.73 1.7-1.24 7.3-4.22 6.15-1.67-.65-1.57-2.45-.53-3.66.07-.08.27-.07.15-.2l-19.93 4.83a1 1 0 0 1-.22 0c-.32-.1-1.16-1.82-.35-1.93l21.79-3.97c.35-.5 1.39-.87 1.73-1.25.12-.13.3-.67.28-.86-.6.62-2 1.57-2.85 1.02-.6-.39-.31-1.01-.19-1.53q.04-.12-.08-.08c-.69.61-1.49 1.26-2.3 1.71-.54.32-1.48.83-2.04.32-.45-.4-.16-.99-.04-1.46.02-.08.11-.11-.04-.1-.73.59-1.5 1.23-2.31 1.7-.59.33-1.62.89-2.22.36-.56-.5.01-1.47.13-2.04.01-.1.01-.1-.08-.08l-1.66.4a3.9 3.9 0 0 1-2.25 2.53c-3.02 1.15-4.22-1.98-2.17-4.11 1.47-1.53 4.48-2.17 4.57.7.12.12 1.72-.36 1.89-.55.12-.13.3-.76.38-.98.46-1.3.86-3.15 1.44-4.34.23-.48.7-.67 1.22-.6q.52.03.43.55c-.6 2.05-1.45 4.11-2.03 6.16-.05.19-.26.89-.18 1q.05.07.12.07c.6.04 2.67-1.79 3.18-2.25.6-1.66 1.02-3.44 1.63-5.1.17-.48.27-.73.85-.79m3.84 9.73c-.52.4-1.1.84-1.54 1.31-.34.36-.82.95-.9 1.44-.16 1.03.68.92 1.2.31.36-.42 1.17-2.42 1.27-2.98 0-.04 0-.1-.03-.08M18.98 5c.29-.12 1.37-.4 1.43.02l-3.78 12.2-.21.25c-.72.1-1.41.4-2.14.37l.03-.36 3.9-11.84c.13-.28.48-.52.77-.64m1.7-2.43c3.17-.16 7.58 1.2 6.54 5.25-.67 2.6-3.35 4.06-5.8 4.6l.03.17 2.75 4.09c.15.3-.2.57-.42.72-.62.43-1.57.64-2.02-.1q-1.03-2.2-2.1-4.4c-.13-.24-.6-.8-.43-1.03.06-.1 1.78-.4 2.11-.5 4.83-1.56 5.4-7.19-.48-7.56-2.03-.13-6.62.74-6.52 3.45.03.77.95 1.42.08 1.96-.98.61-2.1-.07-2.14-1.2-.11-3.59 5.57-5.3 8.4-5.45m7.63 8.6c-1.2.19-2.4 2.44-1.14 3.18.84.5 1.82-.36 2.14-1.1a2 2 0 0 1-.92-.38c-.16-.16-.3-.55-.32-.78-.02-.38.12-.57.24-.91" fill="url(#l)"/><circle cx="32.5511" cy="31.7859" r="0.5" fill="#fff"/><circle cx="29.8" cy="32.5" r="0.5" fill="#fff"/><circle cx="27.3326" cy="31.7371" r="0.5" fill="#fff"/><circle cx="45.484" cy="22.017" r="0.5" fill="#fff"/><circle cx="48.203" cy="19.9349" r="0.5" fill="#fff"/><circle cx="49.9918" cy="17.373" r="0.5" fill="#fff"/><circle cx="48.26" cy="14.5847" r="0.5" fill="#fff"/><circle cx="36.6876" cy="5.81908" r="0.5" fill="#fff"/><circle cx="27.0967" cy="2.77608" r="0.5" fill="#fff"/><circle cx="14.4812" cy="12.545" r="0.5" fill="#fff"/><circle cx="11.9227" cy="14.5728" r="0.5" fill="#fff"/><circle cx="10.1354" cy="17.2978" r="0.5" fill="#fff"/><circle cx="11.9403" cy="19.9827" r="0.5" fill="#fff"/><circle cx="14.619" cy="22.0545" r="0.5" fill="#fff"/><circle cx="34.6577" cy="4.21591" r="0.5" fill="#fff"/><circle cx="32.5863" cy="2.6929" r="0.5" fill="#fff"/><circle cx="29.856" cy="1.94624" r="0.5" fill="#fff"/></g><defs><filter id="b" x="10.1503" y="1.60159" width="39.7989" height="30.9041" filterUnits="userSpaceOnUse" color-interpolation-filters="sRGB"><feFlood flood-opacity="0" result="BackgroundImageFix"/><feBlend mode="normal" in="SourceGraphic" in2="BackgroundImageFix" result="shape"/><feColorMatrix in="SourceAlpha" type="matrix" values="0 0 0 0 0 0 0 0 0 0 0 0 0 0 0 0 0 0 127 0" result="hardAlpha"/><feOffset dy="0.359461"/><feGaussianBlur stdDeviation="4.48793"/><feComposite in2="hardAlpha" operator="arithmetic" k2="-1" k3="1"/><feColorMatrix type="matrix" values="0 0 0 0 0 0 0 0 0 0 0 0 0 0 0 0 0 0 1 0"/><feBlend mode="normal" in2="shape" result="effect1_innerShadow_731_812"/></filter><linearGradient id="c" x1="30.0498" y1="1.60155" x2="30.0498" y2="32.1462" gradientUnits="userSpaceOnUse"><stop offset="0.279" stop-color="#032e5d"/><stop offset="0.65" stop-color="#048ad4"/></linearGradient><linearGradient id="d" x1="30.46" y1="21.8724" x2="30.46" y2="30.5286" gradientUnits="userSpaceOnUse"><stop stop-color="#08467a"/><stop offset="1" stop-color="#0169a6"/></linearGradient><linearGradient id="e" x1="-523.369" y1="13.3396" x2="-523.369" y2="34.645" gradientUnits="userSpaceOnUse"><stop stop-color="#fff" stop-opacity="0.7"/><stop offset="0.495" stop-color="#fff" stop-opacity="0.95"/><stop offset="0.962" stop-color="#fff" stop-opacity="0.85"/></linearGradient><linearGradient id="f" x1="-1036.67" y1="19.2996" x2="-1036.67" y2="40.6048" gradientUnits="userSpaceOnUse"><stop stop-color="#fff" stop-opacity="0.7"/><stop offset="0.495" stop-color="#fff" stop-opacity="0.95"/><stop offset="0.962" stop-color="#fff" stop-opacity="0.85"/></linearGradient><linearGradient id="g" x1="176.527" y1="16.3191" x2="176.527" y2="37.6245" gradientUnits="userSpaceOnUse"><stop stop-color="#fff" stop-opacity="0.7"/><stop offset="0.495" stop-color="#fff" stop-opacity="0.95"/><stop offset="0.962" stop-color="#fff" stop-opacity="0.85"/></linearGradient><linearGradient id="h" x1="18.8944" y1="22.4631" x2="18.8944" y2="30.4064" gradientUnits="userSpaceOnUse"><stop stop-color="#fff" stop-opacity="0.7"/><stop offset="0.495" stop-color="#fff" stop-opacity="0.95"/><stop offset="0.962" stop-color="#fff" stop-opacity="0.85"/></linearGradient><linearGradient id="i" x1="22.4496" y1="23.1025" x2="22.4496" y2="29.0132" gradientUnits="userSpaceOnUse"><stop stop-color="#fff" stop-opacity="0"/><stop offset="0.481" stop-color="#fff" stop-opacity="0.4"/><stop offset="1" stop-color="#fff" stop-opacity="0"/></linearGradient><linearGradient id="j" x1="30.0568" y1="23.1025" x2="30.0568" y2="29.0132" gradientUnits="userSpaceOnUse"><stop stop-color="#fff" stop-opacity="0"/><stop offset="0.481" stop-color="#fff" stop-opacity="0.4"/><stop offset="1" stop-color="#fff" stop-opacity="0"/></linearGradient><linearGradient id="k" x1="37.5969" y1="23.1025" x2="37.5969" y2="29.0132" gradientUnits="userSpaceOnUse"><stop stop-color="#fff" stop-opacity="0"/><stop offset="0.481" stop-color="#fff" stop-opacity="0.4"/><stop offset="1" stop-color="#fff" stop-opacity="0"/></linearGradient><linearGradient id="l" x1="26.1565" y1="5.29045" x2="28.0162" y2="22.4817" gradientUnits="userSpaceOnUse"><stop stop-color="#ffd592"/><stop offset="0.519" stop-color="#ffb845"/><stop offset="1" stop-color="#f6d653"/></linearGradient><clipPath id="a"><path fill="#fff" d="M0 0h60.3v33.61H0z"/></clipPath></defs></svg>