<svg width="512" height="512" viewBox="0 0 512 512" fill="none" xmlns="http://www.w3.org/2000/svg">
<g clip-path="url(#clip0_698_768)">
<mask id="mask0_698_768" style="mask-type:luminance" maskUnits="userSpaceOnUse" x="0" y="0" width="512" height="512">
<path d="M512 0H0V512H512V0Z" fill="white"/>
</mask>
<g mask="url(#mask0_698_768)">
<mask id="mask1_698_768" style="mask-type:luminance" maskUnits="userSpaceOnUse" x="0" y="0" width="512" height="512">
<path d="M0 0H512V512H0V0Z" fill="white"/>
</mask>
<g mask="url(#mask1_698_768)">
<mask id="mask2_698_768" style="mask-type:luminance" maskUnits="userSpaceOnUse" x="-107" y="50" width="730" height="408">
<path d="M-106.875 50.6431H623V457.461H-106.875V50.6431Z" fill="white"/>
</mask>
<g mask="url(#mask2_698_768)">
<g filter="url(#filter0_i_698_768)">
<path d="M28.95 282.822C9.02595 267.474 9.04995 242.551 29.01 227.058L218.439 80.0541C238.471 64.5131 270.994 64.3441 291.075 79.6671L484.099 226.973C504.349 242.43 504.203 267.716 483.772 283.209L291.148 429.196C270.982 444.484 238.664 444.447 218.765 429.124L28.95 282.822Z" fill="url(#paint0_linear_698_768)"/>
</g>
<path d="M28.95 287.192C9.02595 271.844 9.04995 246.922 29.01 231.429L218.439 84.4131C238.471 68.8711 270.994 68.7011 291.075 84.0491L484.099 231.356C504.349 246.801 504.203 272.086 483.772 287.579L291.148 433.579C270.982 448.854 238.664 448.83 218.765 433.494L28.95 287.192Z" stroke="#006AA8" stroke-width="16.413" stroke-linejoin="round"/>
<g filter="url(#filter1_f_698_768)">
<path d="M253.795 438.464C254.991 438.47 256.163 438.802 257.186 439.425C258.207 440.047 259.04 440.936 259.596 441.996C260.15 443.056 260.406 444.248 260.335 445.443C260.264 446.637 259.869 447.79 259.193 448.777C258.668 449.75 257.889 450.565 256.939 451.131C255.99 451.699 254.905 451.999 253.799 452C252.693 452.001 251.607 451.704 250.656 451.139C249.705 450.573 248.925 449.761 248.397 448.789C247.714 447.802 247.314 446.647 247.239 445.448C247.165 444.25 247.42 443.054 247.975 441.99C248.531 440.926 249.367 440.034 250.393 439.41C251.418 438.786 252.594 438.467 253.795 438.464ZM223.093 430.783C224.289 430.789 225.461 431.122 226.484 431.744C227.505 432.366 228.339 433.256 228.894 434.315C229.448 435.376 229.704 436.567 229.633 437.762C229.563 438.956 229.167 440.109 228.491 441.097C227.966 442.075 227.189 442.894 226.239 443.469C225.289 444.043 224.203 444.351 223.093 444.361C221.985 444.352 220.899 444.045 219.949 443.474C218.999 442.902 218.221 442.084 217.695 441.109C217.012 440.122 216.612 438.968 216.537 437.771C216.463 436.573 216.716 435.378 217.27 434.314C217.824 433.251 218.659 432.358 219.682 431.734C220.706 431.109 221.882 430.777 223.081 430.771M287.797 430.783C288.993 430.789 290.164 431.122 291.187 431.744C292.208 432.366 293.042 433.256 293.597 434.315C294.152 435.376 294.408 436.567 294.336 437.762C294.266 438.956 293.87 440.109 293.195 441.097C292.669 442.077 291.889 442.897 290.937 443.471C289.985 444.046 288.896 444.353 287.784 444.361C286.672 444.353 285.583 444.046 284.631 443.471C283.68 442.897 282.9 442.077 282.374 441.097C281.697 440.109 281.302 438.955 281.232 437.759C281.161 436.564 281.419 435.371 281.974 434.31C282.531 433.25 283.365 432.36 284.389 431.739C285.413 431.118 286.587 430.787 287.784 430.783M68.4922 310.696C70.8213 310.696 72.8228 311.994 73.8781 313.899C74.5635 314.885 74.9662 316.041 75.0414 317.239C75.1166 318.438 74.8631 319.635 74.3063 320.7C73.7507 321.764 72.9138 322.656 71.8863 323.278C70.8589 323.901 69.681 324.23 68.4801 324.23C67.2792 324.23 66.1013 323.901 65.0739 323.278C64.0465 322.656 63.2095 321.764 62.6527 320.7C62.0971 319.635 61.8424 318.438 61.9188 317.239C61.994 316.041 62.3967 314.885 63.0821 313.899C63.6134 312.928 64.3958 312.118 65.3481 311.551C66.2991 310.986 67.3847 310.686 68.4922 310.683M445.673 310.696C448.014 310.696 450.016 311.994 451.071 313.899C451.77 314.884 452.183 316.043 452.266 317.249C452.348 318.454 452.096 319.659 451.538 320.73C450.98 321.802 450.137 322.698 449.102 323.321C448.068 323.944 446.88 324.27 445.673 324.261C444.467 324.262 443.286 323.933 442.255 323.309C441.225 322.684 440.385 321.788 439.83 320.718C439.274 319.649 439.022 318.447 439.103 317.244C439.183 316.042 439.593 314.884 440.287 313.899C440.816 312.932 441.595 312.123 442.542 311.558C443.49 310.993 444.57 310.691 445.673 310.683M36.8442 286.671C38.6395 287.047 40.1436 288.224 40.9928 289.801C41.6745 290.787 42.076 291.939 42.15 293.136C42.2252 294.332 41.9729 295.526 41.4185 296.589C40.8642 297.651 40.0308 298.542 39.007 299.165C37.9832 299.789 36.809 300.12 35.6105 300.124C34.4133 300.128 33.2366 299.804 32.208 299.188C31.1805 298.572 30.3411 297.687 29.7795 296.628C29.2191 295.568 28.957 294.376 29.025 293.179C29.0917 291.983 29.4847 290.828 30.1604 289.838C30.6856 288.851 31.468 288.026 32.4251 287.45C33.3822 286.872 34.4776 286.566 35.5948 286.562L36.8442 286.671ZM478.57 285.457C480.924 285.457 482.937 286.792 483.981 288.709C484.676 289.693 485.086 290.85 485.165 292.052C485.243 293.255 484.99 294.455 484.431 295.522C483.87 296.589 483.027 297.481 481.994 298.098C480.959 298.716 479.775 299.036 478.57 299.023C477.376 299.021 476.205 298.693 475.183 298.075C474.16 297.458 473.325 296.572 472.769 295.516C472.211 294.459 471.952 293.27 472.019 292.078C472.086 290.885 472.476 289.733 473.148 288.746C473.672 287.762 474.453 286.938 475.408 286.36C476.363 285.784 477.456 285.464 478.57 285.457ZM500.66 253.776C502.455 254.14 503.935 255.317 504.796 256.883C505.493 257.865 505.904 259.022 505.985 260.224C506.066 261.427 505.815 262.628 505.258 263.697C504.702 264.765 503.861 265.659 502.83 266.281C501.798 266.903 500.615 267.228 499.41 267.221C498.208 267.222 497.029 266.893 496.001 266.27C494.972 265.647 494.134 264.755 493.578 263.688C493.021 262.623 492.768 261.424 492.844 260.225C492.921 259.025 493.325 257.869 494.012 256.883C494.541 255.911 495.321 255.099 496.271 254.531C497.22 253.964 498.304 253.661 499.41 253.655L500.66 253.776ZM12.559 252.551C14.9004 252.551 16.9019 253.873 17.9572 255.791C18.6547 256.773 19.0672 257.931 19.1485 259.133C19.2309 260.337 18.9786 261.538 18.4194 262.607C17.8614 263.675 17.0184 264.569 15.9836 265.188C14.9501 265.807 13.7638 266.128 12.559 266.116C11.3599 266.114 10.1844 265.783 9.15973 265.16C8.13508 264.537 7.30027 263.645 6.74567 262.582C6.19095 261.519 5.93767 260.324 6.013 259.126C6.08833 257.93 6.48947 256.776 7.17314 255.791C7.6894 254.81 8.46429 253.99 9.41385 253.418C10.3633 252.847 11.451 252.547 12.559 252.551ZM478.57 219.644C480.912 219.644 482.937 220.979 483.981 222.896C484.667 223.883 485.072 225.038 485.15 226.238C485.228 227.438 484.975 228.635 484.421 229.702C483.867 230.768 483.031 231.664 482.005 232.29C480.978 232.915 479.8 233.249 478.598 233.252C477.397 233.256 476.217 232.931 475.186 232.312C474.156 231.693 473.314 230.805 472.753 229.742C472.191 228.679 471.932 227.483 472.001 226.281C472.071 225.081 472.468 223.924 473.148 222.932C473.672 221.948 474.453 221.125 475.408 220.547C476.363 219.971 477.456 219.662 478.57 219.656M35.5948 218.564C37.9238 218.564 39.9374 219.863 40.9806 221.768C41.666 222.752 42.0699 223.904 42.1476 225.101C42.2252 226.298 41.9753 227.493 41.4222 228.558C40.8703 229.623 40.0369 230.516 39.0143 231.141C37.9905 231.766 36.8151 232.099 35.6166 232.106C34.4169 232.11 33.2391 231.788 32.2104 231.171C31.1817 230.556 30.3411 229.67 29.7795 228.61C29.2166 227.551 28.9558 226.358 29.0225 225.16C29.0893 223.963 29.4835 222.806 30.1604 221.816C30.6893 220.835 31.4729 220.014 32.43 219.442C33.3858 218.87 34.48 218.567 35.5948 218.564ZM68.4922 193.326C70.8213 193.326 72.8228 194.637 73.8781 196.542C74.5635 197.528 74.9662 198.683 75.0414 199.882C75.1166 201.081 74.8631 202.277 74.3063 203.343C73.7507 204.407 72.9138 205.299 71.8863 205.921C70.8589 206.543 69.681 206.872 68.4801 206.872C67.2792 206.872 66.1013 206.543 65.0739 205.921C64.0465 205.299 63.2095 204.407 62.6527 203.343C62.0971 202.277 61.8424 201.081 61.9188 199.882C61.994 198.683 62.3967 197.528 63.0821 196.542C63.6134 195.571 64.3958 194.76 65.3481 194.194C66.2991 193.628 67.3847 193.329 68.4922 193.326ZM338.222 112.164C340.564 112.164 342.565 113.486 343.608 115.403C344.306 116.386 344.717 117.542 344.8 118.743C344.882 119.945 344.631 121.146 344.073 122.215C343.516 123.283 342.676 124.176 341.643 124.796C340.61 125.416 339.427 125.739 338.222 125.729C337.023 125.726 335.847 125.396 334.824 124.773C333.799 124.15 332.964 123.258 332.408 122.195C331.854 121.131 331.601 119.936 331.676 118.74C331.751 117.543 332.152 116.389 332.837 115.403C333.352 114.423 334.127 113.602 335.077 113.031C336.027 112.46 337.114 112.16 338.222 112.164ZM313.003 92.4222C315.345 92.4222 317.346 93.7448 318.389 95.6619C319.087 96.6441 319.498 97.8 319.581 99.0018C319.663 100.204 319.412 101.405 318.854 102.473C318.297 103.541 317.456 104.434 316.424 105.055C315.391 105.675 314.208 105.998 313.003 105.988C311.804 105.985 310.628 105.654 309.605 105.031C308.58 104.408 307.745 103.517 307.189 102.453C306.635 101.39 306.382 100.195 306.457 98.9979C306.532 97.801 306.933 96.6473 307.618 95.6619C308.133 94.6813 308.908 93.8609 309.858 93.2898C310.808 92.7186 311.895 92.4186 313.003 92.4222ZM220.898 74.8768C223.239 74.8768 225.265 76.1994 226.296 78.1165C226.978 79.1016 227.379 80.2545 227.453 81.4506C227.528 82.6469 227.276 83.8409 226.722 84.9035C226.167 85.9663 225.334 86.8574 224.31 87.4805C223.286 88.1037 222.112 88.4351 220.914 88.4392C219.716 88.4432 218.54 88.1196 217.511 87.5033C216.484 86.8872 215.644 86.0016 215.083 84.9427C214.522 83.8837 214.26 82.6914 214.328 81.4948C214.395 80.2982 214.788 79.1426 215.463 78.1529C215.989 77.167 216.771 76.3417 217.728 75.7649C218.685 75.1881 219.781 74.8812 220.898 74.8768ZM289.034 73.9061C290.829 74.2702 292.309 75.435 293.17 77.0124C293.867 77.9957 294.278 79.152 294.359 80.3542C294.44 81.5563 294.189 82.7577 293.633 83.8262C293.076 84.8947 292.235 85.7889 291.204 86.4107C290.172 87.0324 288.989 87.3576 287.784 87.3503C286.582 87.3512 285.403 87.0223 284.375 86.3996C283.346 85.777 282.508 84.8842 281.952 83.8184C281.395 82.7526 281.142 81.5546 281.218 80.3546C281.295 79.1547 281.699 77.9986 282.386 77.0124C282.915 76.0408 283.695 75.229 284.645 74.6612C285.594 74.0936 286.678 73.791 287.784 73.7848L289.034 73.9061ZM256.124 65.1335C257.944 65.4975 259.424 66.6745 260.273 68.2397C260.961 69.2256 261.365 70.3812 261.442 71.5808C261.519 72.7805 261.266 73.9785 260.71 75.0443C260.154 76.1101 259.317 77.0033 258.29 77.6265C257.261 78.2497 256.083 78.5792 254.881 78.5792C253.679 78.5792 252.5 78.2497 251.472 77.6265C250.445 77.0033 249.607 76.1101 249.051 75.0443C248.496 73.9785 248.242 72.7805 248.32 71.5808C248.396 70.3812 248.801 69.2256 249.489 68.2397C250.018 67.264 250.798 66.4485 251.75 65.8786C252.702 65.3087 253.789 65.0051 254.899 65L256.124 65.1335Z" fill="white"/>
</g>
<path d="M413.633 321.3C421.359 321.303 428.767 324.375 434.229 329.839C439.691 335.303 442.76 342.712 442.76 350.438V386.538C442.769 390.365 442.022 394.156 440.561 397.694C439.101 401.232 436.956 404.446 434.251 407.153C431.545 409.86 428.331 412.006 424.794 413.467C421.257 414.929 417.466 415.677 413.638 415.67H100.501C92.7752 415.67 85.3654 412.602 79.9012 407.14C74.437 401.678 71.3659 394.269 71.3633 386.543V350.451C71.3635 342.723 74.4335 335.312 79.8978 329.847C85.3622 324.383 92.7734 321.312 100.501 321.312L413.633 321.3Z" fill="#034477" stroke="url(#paint1_linear_698_768)" stroke-width="4.326"/>
<path d="M373.913 406.163C373.631 406.165 373.35 406.11 373.09 406C372.83 405.889 372.595 405.727 372.4 405.522C372.194 405.326 372.03 405.089 371.92 404.826C371.81 404.564 371.755 404.282 371.759 403.997V352.131C371.759 351.55 371.973 351.042 372.4 350.606C372.597 350.4 372.834 350.236 373.096 350.126C373.359 350.015 373.641 349.96 373.926 349.964H386.611C387.676 349.964 388.451 350.206 388.935 350.691C389.298 351.038 389.621 351.413 389.903 351.816L403.459 374.051V352.143C403.455 351.855 403.511 351.57 403.624 351.305C403.736 351.04 403.903 350.802 404.113 350.606C404.309 350.399 404.546 350.235 404.808 350.124C405.071 350.014 405.353 349.959 405.638 349.964H420.163C420.752 349.964 421.26 350.178 421.688 350.606C421.895 350.801 422.059 351.038 422.17 351.301C422.28 351.563 422.335 351.846 422.33 352.131V403.997C422.33 404.578 422.116 405.086 421.688 405.522C421.492 405.728 421.255 405.891 420.993 406.001C420.73 406.112 420.448 406.167 420.163 406.163H407.478C406.413 406.163 405.638 405.921 405.154 405.437L404.186 404.312L390.629 383.856V403.997C390.629 404.578 390.412 405.086 389.976 405.522C389.78 405.728 389.543 405.892 389.28 406.002C389.018 406.113 388.735 406.167 388.45 406.163H373.913Z" fill="url(#paint2_linear_698_768)"/>
<path d="M298.795 384.278C298.511 384.282 298.228 384.227 297.966 384.117C297.703 384.007 297.466 383.843 297.27 383.637C297.064 383.441 296.9 383.204 296.79 382.941C296.679 382.678 296.625 382.396 296.629 382.111V330.246C296.629 329.665 296.843 329.156 297.27 328.72C297.466 328.513 297.703 328.35 297.966 328.24C298.228 328.129 298.511 328.075 298.795 328.079H315.172C315.761 328.079 316.269 328.293 316.697 328.72C316.904 328.916 317.068 329.153 317.178 329.416C317.289 329.678 317.344 329.961 317.339 330.246V382.111C317.339 382.692 317.125 383.201 316.697 383.637C316.501 383.843 316.264 384.007 316.002 384.117C315.739 384.227 315.457 384.282 315.172 384.278H298.795Z" fill="url(#paint3_linear_698_768)"/>
<path d="M190.142 395.224C189.857 395.229 189.575 395.174 189.312 395.063C189.05 394.953 188.813 394.789 188.617 394.582C188.411 394.385 188.248 394.149 188.138 393.886C188.027 393.624 187.972 393.341 187.976 393.057V341.191C187.976 340.61 188.19 340.102 188.617 339.666C188.814 339.46 189.051 339.297 189.313 339.186C189.575 339.076 189.858 339.021 190.142 339.025H214.471C219.338 339.025 223.566 339.751 227.156 341.203C230.788 342.591 233.597 344.758 235.581 347.703C237.615 350.576 238.631 354.239 238.631 358.694C238.631 363.132 237.615 366.771 235.581 369.612C233.597 372.395 230.788 374.457 227.156 375.797C223.071 377.166 218.779 377.821 214.471 377.733H208.843V393.057C208.843 393.646 208.629 394.155 208.201 394.582C208.005 394.788 207.768 394.951 207.506 395.062C207.243 395.172 206.961 395.227 206.676 395.224H190.142ZM208.444 362.87H214.072C214.919 362.87 215.746 362.547 216.553 361.901C217.36 361.208 217.764 360.086 217.764 358.536C217.747 357.468 217.468 356.421 216.953 355.486C216.469 354.469 215.508 353.961 214.072 353.961H208.444V362.87Z" fill="url(#paint4_linear_698_768)"/>
<path d="M120.485 396.019C114.555 396.019 109.661 395.212 105.803 393.599C101.93 392.026 99.0369 389.915 97.1242 387.268C95.2592 384.871 94.1925 381.95 94.0742 378.916C94.0742 378.432 94.2356 378.029 94.5582 377.706C94.7254 377.535 94.9249 377.398 95.1451 377.305C95.3654 377.211 95.602 377.162 95.8412 377.161H111.093C111.94 377.161 112.585 377.294 113.029 377.561C113.571 377.82 114.08 378.145 114.542 378.529C115.075 378.9 115.612 379.247 116.152 379.57C116.742 379.836 117.387 380.05 118.089 380.212C118.888 380.316 119.687 380.368 120.485 380.369C122.309 380.369 123.754 380.183 124.819 379.812C125.949 379.377 126.513 378.812 126.513 378.118C126.513 377.471 126.191 376.939 125.545 376.52C124.581 375.94 123.511 375.557 122.398 375.394C120.341 374.913 118.254 374.565 116.152 374.353C112.36 373.876 108.653 372.874 105.137 371.376C102.268 370.163 99.7799 368.197 97.9352 365.687C96.214 363.01 95.3448 359.874 95.4422 356.693C95.4422 353.046 96.4589 349.834 98.4922 347.059C100.574 344.267 103.439 342.096 107.086 340.547C111.162 338.913 115.526 338.123 119.916 338.223C123.936 338.223 127.498 338.759 130.604 339.832C133.703 340.849 136.326 342.213 138.472 343.924C140.618 345.577 142.248 347.369 143.362 349.298C144.388 350.977 144.994 352.878 145.129 354.841C145.129 355.326 144.944 355.753 144.572 356.124C144.426 356.276 144.252 356.397 144.059 356.48C143.865 356.563 143.658 356.607 143.447 356.609H127.397C126.764 356.623 126.135 356.512 125.545 356.282C125.046 356.024 124.586 355.698 124.177 355.313C123.727 354.931 123.21 354.636 122.652 354.442C121.801 354.043 120.869 353.848 119.929 353.873C118.896 353.799 117.862 354.022 116.951 354.515C116.677 354.682 116.451 354.919 116.298 355.202C116.145 355.484 116.07 355.803 116.079 356.124C116.079 356.609 116.322 357.065 116.806 357.492C117.29 357.912 118.17 358.287 119.444 358.618C120.735 358.941 122.583 359.263 124.988 359.586C130.338 360.232 134.615 361.273 137.818 362.709C141.087 364.105 143.447 365.977 144.899 368.325C146.393 370.698 147.139 373.616 147.138 377.077C147.138 380.982 145.96 384.355 143.604 387.196C141.078 390.179 137.815 392.449 134.139 393.78C129.759 395.34 125.134 396.099 120.485 396.019Z" fill="url(#paint5_linear_698_768)"/>
<mask id="mask3_698_768" style="mask-type:alpha" maskUnits="userSpaceOnUse" x="159" y="318" width="194" height="99">
<path d="M159.555 318.699H167.217V416.076H159.555V318.699Z" fill="url(#paint6_linear_698_768)"/>
<path d="M253.645 318.699H259.116V416.076H253.645V318.699Z" fill="url(#paint7_linear_698_768)"/>
<path d="M345.562 318.699H352.123V416.076H345.562V318.699Z" fill="url(#paint8_linear_698_768)"/>
</mask>
<g mask="url(#mask3_698_768)">
<path d="M119.082 297.919H394.801V436.874H119.082V297.919Z" fill="#B2DCFF" fill-opacity="0.43"/>
</g>
<g filter="url(#filter2_d_698_768)">
<path d="M369.392 116.051C381.496 114.744 380.407 119.101 378.022 128.276C372.067 151.044 362.493 173.037 356.477 195.817C355.267 200.295 353.572 204.774 353.947 209.458H353.972C355.709 209.501 357.431 209.127 358.995 208.369C365.749 205.561 392.136 185.25 395.21 179.198C397.558 174.623 396.965 166.949 403.368 165.799C408.113 164.951 415.242 165.133 417.07 170.447L407.992 202.849C407.798 210.33 420.326 200.114 422.602 197.983C428.739 192.27 432.043 185.77 434.984 178.012C436.473 174.102 438.083 164.721 440.939 162.422C445.176 159.033 455.876 158.355 457.97 164.637L446.677 203.007C455.501 198.177 463.84 188.482 472.301 183.713C477.022 181.05 475.605 189.886 474.746 192.633L441.339 218.149C432.37 239.04 426.16 307.174 389.909 293.194C369.501 285.302 370.651 263.261 383.433 248.603C384.268 247.634 386.689 247.671 385.224 246.109L142.247 304.995C141.376 305.16 140.479 305.131 139.621 304.911C135.675 303.737 125.483 282.857 135.336 281.514L400.923 233.097C405.257 227.082 417.833 222.494 422.009 217.87C423.51 216.2 425.785 209.724 425.458 207.304C418.244 214.929 401.069 226.488 390.671 219.807C383.336 215.086 386.883 207.461 388.408 201.167C388.674 200.077 388.432 199.968 387.379 200.126C379.039 207.63 369.247 215.559 359.467 221.066C352.749 224.867 341.383 231.076 334.533 224.939C329.013 219.977 332.523 212.871 334 207.11C334.242 206.142 335.368 205.73 333.492 205.875C324.571 213.065 315.275 220.836 305.313 226.573C298.208 230.64 285.632 237.467 278.333 231.015C271.458 224.963 278.466 213.077 279.834 206.105C280.04 205.016 280.052 204.98 278.866 205.137L258.664 210.1C254.561 223.656 244.745 235.821 231.273 240.904C194.392 254.86 179.83 216.696 204.837 190.757C222.776 172.153 259.427 164.383 260.516 199.4C261.957 200.804 281.468 194.921 283.55 192.597C284.966 190.999 287.242 183.313 288.174 180.687C293.839 164.746 298.68 142.244 305.676 127.756C308.509 121.873 314.161 119.646 320.564 120.336C324.886 120.82 326.495 122.732 325.89 127.114C318.628 152.194 308.194 177.249 301.125 202.28C300.484 204.532 297.93 213.077 298.947 214.53C299.31 215.05 299.818 215.183 300.423 215.232C307.746 215.813 332.983 193.493 339.156 187.852C346.564 167.566 351.623 145.948 358.971 125.734C361.101 119.852 362.336 116.814 369.392 116.051ZM416.138 234.61C409.844 239.512 402.824 244.85 397.377 250.685C393.298 255.054 387.415 262.196 386.483 268.199C384.547 280.691 394.714 279.456 401.044 271.976C405.438 266.819 415.315 242.454 416.501 235.688C416.598 235.179 416.647 234.453 416.138 234.61ZM121.67 109.733C125.156 108.28 138.326 104.794 139.124 109.975L93.0558 258.613L90.4418 261.76C81.7148 262.946 73.2538 266.577 64.3938 266.238L64.7088 261.881L112.241 117.552C113.9 114.042 118.184 111.197 121.682 109.733M142.332 80.0782C181.017 78.1412 234.831 94.7242 222.134 144.072C213.964 175.857 181.307 193.638 151.35 200.114L151.713 202.244L185.277 252.064C187.178 255.817 182.941 259.036 180.181 260.925C172.641 266.069 161.069 268.708 155.513 259.545C146.944 241.752 138.689 223.777 129.913 206.093C128.412 203.067 122.723 196.361 124.708 193.408C125.435 192.319 146.423 188.687 150.466 187.38C209.352 168.341 216.239 99.7472 144.547 95.1712C119.855 93.5982 63.8858 104.225 65.0838 137.257C65.4228 146.65 76.7278 154.602 66.0758 161.187C54.0928 168.619 40.3668 160.316 39.9558 146.541C38.6478 102.821 107.835 81.8212 142.332 80.0902M235.412 185.032C220.791 187.187 206.12 214.711 221.505 223.729C231.793 229.757 243.655 219.287 247.625 210.196C244.309 209.833 238.741 207.993 236.369 205.633C234.468 203.733 232.665 198.915 232.495 196.192C232.241 191.52 233.948 189.172 235.4 185.032" fill="url(#paint9_linear_698_768)"/>
</g>
</g>
</g>
</g>
</g>
<defs>
<filter id="filter0_i_698_768" x="14.0234" y="68.2857" width="485.168" height="376.736" filterUnits="userSpaceOnUse" color-interpolation-filters="sRGB">
<feFlood flood-opacity="0" result="BackgroundImageFix"/>
<feBlend mode="normal" in="SourceGraphic" in2="BackgroundImageFix" result="shape"/>
<feColorMatrix in="SourceAlpha" type="matrix" values="0 0 0 0 0 0 0 0 0 0 0 0 0 0 0 0 0 0 127 0" result="hardAlpha"/>
<feOffset dy="4.382"/>
<feGaussianBlur stdDeviation="54.71"/>
<feComposite in2="hardAlpha" operator="arithmetic" k2="-1" k3="1"/>
<feColorMatrix type="matrix" values="0 0 0 0 0 0 0 0 0 0 0 0 0 0 0 0 0 0 1 0"/>
<feBlend mode="normal" in2="shape" result="effect1_innerShadow_698_768"/>
</filter>
<filter id="filter1_f_698_768" x="3.00001" y="62" width="506" height="393" filterUnits="userSpaceOnUse" color-interpolation-filters="sRGB">
<feFlood flood-opacity="0" result="BackgroundImageFix"/>
<feBlend mode="normal" in="SourceGraphic" in2="BackgroundImageFix" result="shape"/>
<feGaussianBlur stdDeviation="1.5" result="effect1_foregroundBlur_698_768"/>
</filter>
<filter id="filter2_d_698_768" x="39.9375" y="79.9282" width="435.697" height="237.172" filterUnits="userSpaceOnUse" color-interpolation-filters="sRGB">
<feFlood flood-opacity="0" result="BackgroundImageFix"/>
<feColorMatrix in="SourceAlpha" type="matrix" values="0 0 0 0 0 0 0 0 0 0 0 0 0 0 0 0 0 0 127 0" result="hardAlpha"/>
<feOffset dy="12"/>
<feComposite in2="hardAlpha" operator="out"/>
<feColorMatrix type="matrix" values="0 0 0 0 0.027451 0 0 0 0 0.0313726 0 0 0 0 0.384314 0 0 0 1 0"/>
<feBlend mode="normal" in2="BackgroundImageFix" result="effect1_dropShadow_698_768"/>
<feBlend mode="normal" in="SourceGraphic" in2="effect1_dropShadow_698_768" result="shape"/>
</filter>
<linearGradient id="paint0_linear_698_768" x1="256.607" y1="68.2851" x2="256.607" y2="440.639" gradientUnits="userSpaceOnUse">
<stop offset="0.279" stop-color="#032E5D"/>
<stop offset="0.65" stop-color="#048AD4"/>
</linearGradient>
<linearGradient id="paint1_linear_698_768" x1="261.607" y1="315.397" x2="261.607" y2="420.92" gradientUnits="userSpaceOnUse">
<stop stop-color="#08467A"/>
<stop offset="1" stop-color="#0169A6"/>
</linearGradient>
<linearGradient id="paint2_linear_698_768" x1="-6489.84" y1="211.378" x2="-6489.84" y2="471.1" gradientUnits="userSpaceOnUse">
<stop stop-color="white" stop-opacity="0.7"/>
<stop offset="0.495" stop-color="white" stop-opacity="0.95"/>
<stop offset="0.962" stop-color="white" stop-opacity="0.85"/>
</linearGradient>
<linearGradient id="paint3_linear_698_768" x1="-12743.2" y1="284.033" x2="-12743.2" y2="543.754" gradientUnits="userSpaceOnUse">
<stop stop-color="white" stop-opacity="0.7"/>
<stop offset="0.495" stop-color="white" stop-opacity="0.95"/>
<stop offset="0.962" stop-color="white" stop-opacity="0.85"/>
</linearGradient>
<linearGradient id="paint4_linear_698_768" x1="2042.23" y1="247.7" x2="2042.23" y2="507.422" gradientUnits="userSpaceOnUse">
<stop stop-color="white" stop-opacity="0.7"/>
<stop offset="0.495" stop-color="white" stop-opacity="0.95"/>
<stop offset="0.962" stop-color="white" stop-opacity="0.85"/>
</linearGradient>
<linearGradient id="paint5_linear_698_768" x1="120.618" y1="322.597" x2="120.618" y2="419.43" gradientUnits="userSpaceOnUse">
<stop stop-color="white" stop-opacity="0.7"/>
<stop offset="0.495" stop-color="white" stop-opacity="0.95"/>
<stop offset="0.962" stop-color="white" stop-opacity="0.85"/>
</linearGradient>
<linearGradient id="paint6_linear_698_768" x1="163.38" y1="330.392" x2="163.38" y2="402.447" gradientUnits="userSpaceOnUse">
<stop stop-color="#00959F" stop-opacity="0"/>
<stop offset="0.481" stop-color="#00959F"/>
<stop offset="1" stop-color="#00959F" stop-opacity="0"/>
</linearGradient>
<linearGradient id="paint7_linear_698_768" x1="256.38" y1="330.392" x2="256.38" y2="402.447" gradientUnits="userSpaceOnUse">
<stop stop-color="#00959F" stop-opacity="0"/>
<stop offset="0.481" stop-color="#00959F"/>
<stop offset="1" stop-color="#00959F" stop-opacity="0"/>
</linearGradient>
<linearGradient id="paint8_linear_698_768" x1="348.843" y1="330.392" x2="348.843" y2="402.447" gradientUnits="userSpaceOnUse">
<stop stop-color="#00959F" stop-opacity="0"/>
<stop offset="0.481" stop-color="#00959F"/>
<stop offset="1" stop-color="#00959F" stop-opacity="0"/>
</linearGradient>
<linearGradient id="paint9_linear_698_768" x1="209.146" y1="113.255" x2="231.817" y2="322.825" gradientUnits="userSpaceOnUse">
<stop stop-color="#FFD592"/>
<stop offset="0.519" stop-color="#FFB845"/>
<stop offset="1" stop-color="#F6D653"/>
</linearGradient>
<clipPath id="clip0_698_768">
<rect width="512" height="512" fill="white"/>
</clipPath>
</defs>
</svg>
