<svg xmlns="http://www.w3.org/2000/svg" fill="none" viewBox="0 0 101 56"><path d="M25.25 41.758c-.566.21-2.682 2.802-2.652 3.268.03.448.355.742.593.871.32.175.916.156 1.078.087.732-.13 17.298-4.721 59.865-10.934.5-.073 6.815-.924 6.815-.924l1.961-1.477c-9.806.739-51.879 7.55-62.277 9.67-2.416.492-2.985-1.106-5.383-.56Z" fill="#000" fill-rule="evenodd" clip-rule="evenodd"/><path d="M16.016 15.518c2.105-1.032 4.667-1.538 7.55-1.255.395.039 1.053.148 1.616.25 1.226.22 3.73 4.812 3.745 4.842l-2.701 1.353c-2.8-.667-6.032-.487-7.692 1.487-.564.67-.97 1.48-1.001 2.313-.043 1.127.54 1.98.765 2.307 1.467 2.134 2.985 4.25 3.439 6.489.094.462.14.936.139 1.422 2.777-4.141 5.627-8.388 8.032-11.992l-1.47-1.97 1.47-2.394 9.07.67s-.49 2.955-.49 3.694l-.53 11.757c1.976-5.525 3.85-11.58 5.923-16.613l1.961-1.478 4.658-.738-3.187 1.97 1.966 9.62c1.605-3.3 2.803-6.998 4.408-10.299l2.206-1.784 5.393-.738c-.205.522-.45 1.158-.724 1.88l.97-.65 2.941-.492s-.928 5.755-1.203 6.412l2.408-1.445 6.109-3.666.28 3.978-8.09 5.334c1.385 1.505 5.377 7.817 5.4 7.852-.585.426-1.588 1.348-2.207 1.723l-4.413-5.908-1.716 4.431-1.225 1.478-8.826 1.477.087-.186-4.5.678-.244-6.894c-.67 1.592-2.195 5.876-2.207 5.91l-1.47 1.722c-.022.005-4.839 1.084-6.62 1.478l.037-.092-3.469.83a365.453 365.453 0 0 0 .674-6.532c-1.205.39-2.165.725-3.37 1.116l-1.501 3.72-2.422 2.435-8.15 1.84c-1.532 1.327-3.684 2.761-6.37 3.808C7.842 48.079 3.95 48.63 0 48.339l1.213-9.005c.018-.045 1.974-2.5 1.974-2.5 3.675.605 7.5 3.092 9.659.646.818-.928 1.576-2.225 1.52-3.578-.06-1.415-.906-2.388-1.389-2.995-1.923-2.42-3.049-4.892-2.995-7.194.033-1.455.555-3.046 1.706-4.704.652-.941 2.14-2.42 4.328-3.492Zm13.475 15.616c1.413-.31 2.688-.706 4.094-1.015l1.226-6.333-5.32 7.348Z" fill="#000" fill-rule="evenodd" clip-rule="evenodd"/><path d="m100.019 28.71-1.96 1.723-4.904.739.736-5.17c-1.587.534-3.582 1.559-5.17 2.093-.067.131 1.558 1.713 1.493 1.846-.014.027-1.476 1.46-1.492 1.477l-6.598.739-4.168-3.94c-.39.994-.974 2.69-.98 2.709l-2.937 1.58-4.908.378c2.159-4.344 4.809-8.973 6.968-13.317l-3.148.305 3.178-3.13c.49-.214.993-.396 1.507-.544 3.613-1.04 8.598-.674 9.774 1.768.107.223.226.637.26 1.101.09 1.27-.484 2.748-2.337 4.442-.22.201-.44.377-.657.547-1.285 1.002-2.995 1.738-4.737 2.245.87.597 2.5 1.963 3.893 3.16 2.629-4.235 5.183-8.71 7.853-12.814l-1.717-1.724 1.226-1.97 9.806-1.23-.981 16.987Zm-9.548-4.284c1.117-.258 3.043-.63 4.155-.886.173-1.614.565-4.308.736-5.909l-4.891 6.795Zm-7.28-4.548c-.785-.561-2.112-.635-3.313-.498l-.694 1.28c-.507.937-1.014 1.872-1.52 2.803 1.905-.3 3.823-.854 5.066-1.78.692-.515.931-.951.888-1.238-.023-.154-.137-.358-.428-.567Z" fill="#000" fill-rule="evenodd" clip-rule="evenodd"/><path d="M92.935 32.316h-.004l-.013.002-.05.008-.185.026-.667.098-2.057.3-3.35.49c-42.477 6.2-59.04 10.779-59.855 10.93a.973.973 0 0 1-.208.045c-.092.01-.199.012-.31.007-.219-.008-.477-.049-.67-.154-.262-.142-.64-.476-.675-1-.036-.55.345-1.094.965-1.322l.01-.004.01-.002c2.4-.546 4.76-1.056 7.178-1.548 10.4-2.12 21.773-4.098 32.913-5.402 8.626-1.01 20.36-2.636 26.94-2.793l.028.319Z" fill="url(#a)" stroke="#000" stroke-width=".32"/><path d="m100.492 12.33-.001.001v.006l-.003.023-.01.09c-.01.076-.022.187-.038.322-.031.268-.072.633-.113 1.016-.083.772-.164 1.602-.162 1.887l.001.009-.161-.008.16.008-.613 12.696-.006.128-.127.021-3.922.675-.208.036.022-.21c.002-.027.373-3.59.43-4.22l.006-.055-4.46 1.5c-.047.087-.091.174-.136.26 0 .008-.002.014-.004.02a6.782 6.782 0 0 1-.113.338c-.095.262-.24.65-.392 1.047a262.24 262.24 0 0 1-.577 1.496l-.04.107-.012.028-.003.007v.003l-.15-.059.149.059-.033.087-.094.013-1.37.19-4.399.74-.074.012-.058-.05a55.294 55.294 0 0 1-2.851-2.63 53.26 53.26 0 0 0-2.613-2.42 240.306 240.306 0 0 0-1.873 5.087l-.036.099-.103.007-4.12.317c-.452.344-1.076.825-1.652 1.259-.588.443-1.135.845-1.396 1.003l-.12.074-.088-.11-5.5-6.855-2.86 7.122-.037.09-.096.01-4.976.489-.28.028.12-.255c1.147-2.456 2.29-5.04 3.433-7.627a431.36 431.36 0 0 1 3.277-7.29l-1.53.538-.313.11.108-.313v-.002l.003-.007.01-.026.034-.099c.029-.085.07-.206.122-.351a104.058 104.058 0 0 1 .77-2.145c.056-.147.106-.273.145-.363.019-.044.035-.083.05-.112a.443.443 0 0 1 .026-.044.174.174 0 0 1 .096-.075l.013-.004 5.639-1.23.283-.063-.099.273-.98 2.705v.001c-.002.009-.288.824-.543 1.486l2.005-1.202 6.108-3.666.224-.135.018.261.28 3.978.007.094-.079.051-7.93 5.23c1.138 1.227 4.007 4.213 5.427 5.688.995-1.946 2.067-3.937 3.13-5.92a237.707 237.707 0 0 0 3.044-5.825l-2.858.279-.45.043.322-.317 3.178-3.13.02-.021.028-.012a12.289 12.289 0 0 1 1.527-.552c1.826-.526 4-.697 5.868-.426 1.857.268 3.47.982 4.094 2.279.117.243.24.678.275 1.159.096 1.335-.513 2.857-2.388 4.571a8.47 8.47 0 0 1-.335.291l-.331.264c-1.23.959-2.835 1.67-4.48 2.177.873.637 2.24 1.78 3.457 2.824 2.468-3.994 4.78-8.047 7.359-12.023l-1.421-1.619-.196-.221.293-.042 8.071-1.156.206-.03-.025.207ZM32.299 28.917a62.32 62.32 0 0 0 1.654-.416 53.967 53.967 0 0 1 1.938-.483c.107-.964.171-1.902.234-2.841.05-.764.102-1.528.177-2.306l-4.003 6.046Zm58.684-2.395a1.96 1.96 0 0 1-.037.113c.015.004.03.009.045.009a.155.155 0 0 0 .099-.035.167.167 0 0 0 .022-.021v-.001l-.129-.066Zm2.294-4.32c.415-.103.82-.21 1.225-.321.494-.136.991-.272 1.51-.395.078-.763.123-1.506.168-2.25.033-.568.067-1.136.116-1.714l-3.019 4.68Zm-9.153-4.647a7.626 7.626 0 0 0-1.693.005l-.653 1.205-1.362 2.512c1.786-.308 3.53-.843 4.67-1.693.337-.25.556-.476.683-.665a.774.774 0 0 0 .145-.345V18.5c-.015-.098-.095-.268-.364-.46-.362-.26-.86-.414-1.426-.483Zm-43.182 3.209.16.01-.708 11.458c1.935-5.104 3.693-10.243 5.793-15.341l.032-.08.086-.016 3.922-.74.157-.029.03.158 1.629 8.585a176.644 176.644 0 0 0 1.992-4.334c.7-1.564 1.403-3.13 2.206-4.784l.036-.075.083-.014 4.658-.738.276-.044-.102.261c-.83 2.115-1.695 4.25-2.56 6.384a662.812 662.812 0 0 0-2.557 6.38c-.509 1.297-.951 2.514-1.497 3.81a82.257 82.257 0 0 1-1.213 2.743l-.035.078-.084.013-3.944.633-.158.025-.026-.157a215.37 215.37 0 0 1-.696-4.69c-.199-1.408-.4-2.814-.607-4.118-.265.654-.535 1.356-.804 2.06-.343.896-.686 1.796-1.019 2.599-.385.928-.875 2.218-1.268 3.277-.197.53-.37 1.001-.493 1.34l-.145.4-.04.108-.009.028-.003.007v.002l-.03.084-.087.018c-1.323.293-2.54.48-3.796.713l-.128.027-4.903.984-.217.044.026-.22c.186-1.554.504-4.09.581-4.879.011-.11.04-.4.058-.596l.012-.133-5.724 1.854-1.728 4.44-.033.085-.088.015-6.061 1.12c-1.455 1.64-4.179 3.862-7.94 5.327-3.646 1.42-7.56 1.974-11.535 1.682l-.17-.012.023-.17 1.213-9.004.024-.18.176.047c2.09.558 4.34.813 6.378.573 2.038-.24 3.853-.973 5.094-2.379.807-.915 1.534-2.173 1.48-3.466-.056-1.353-.866-2.287-1.354-2.902-1.934-2.434-3.085-4.941-3.03-7.297.034-1.491.57-3.112 1.734-4.79.668-.965 2.178-2.462 4.39-3.546 2.133-1.045 4.725-1.556 7.636-1.27.402.04 1.066.15 1.628.25 1.235.223 2.456.503 3.678.844l.185.051-.085.174-2.618 5.357-.056.115-.125-.03c-1.385-.33-2.872-.45-4.212-.245-1.341.205-2.523.73-3.32 1.68-.55.653-.935 1.43-.965 2.215-.04 1.07.515 1.886.738 2.21 1.46 2.124 3.002 4.27 3.464 6.548.141.698.174 1.423.11 2.168 2.723-4.143 5.425-8.282 8.193-12.433L30.77 18.9l-.19-.216.284-.047 10.541-1.724.221-.036-.037.22v.003l-.001.006-.004.025-.016.095-.055.343c-.046.288-.107.68-.168 1.095-.123.837-.242 1.747-.242 2.102v.01l-.16-.01Z" fill="url(#b)" stroke="#000" stroke-width=".32"/><defs><linearGradient id="a" x1="59.377" x2="58.761" y1="30.673" y2="45.421" gradientUnits="userSpaceOnUse"><stop stop-color="#F15040"/><stop offset=".525" stop-color="#FDE562"/><stop offset=".766" stop-color="#FFF588"/></linearGradient><linearGradient id="b" x1="19.123" x2="20.854" y1="18.123" y2="47.912" gradientUnits="userSpaceOnUse"><stop stop-color="#F15040"/><stop offset=".397" stop-color="#FDE562"/><stop offset=".657" stop-color="#FFF588"/></linearGradient></defs></svg>