<svg xmlns="http://www.w3.org/2000/svg" width="74" height="44" fill="none"><g clip-path="url(#a)"><g clip-path="url(#b)"><g clip-path="url(#c)"><path fill="url(#d)" d="m.08 30.08 6.31-17.15 1.17 17.94-5.81 1.14c-1.11.2-2.03-.87-1.67-1.94z"/><path fill="url(#e)" d="m7.37 12.81 4.23 12.67 3.05 9.13c.33.97 1.32 1.56 2.33 1.36l14.66-2.8c.88-.17 1.41-1.08 1.13-1.93l-7.29-21.8c-.34-1-1.36-1.6-2.4-1.4L8.49 10.88a1.48 1.48 0 0 0-1.12 1.93m9.08 7.55 2.15-3.16 4.03 1.97s2.75 1.26 1.99 3.1c-.66 1.59-2.71 1.2-3.46.67 0 0 .65 1.55 2.74 1.98l-4.72.92c1.81-1.43 1.15-2.74 1.15-2.74-.28.73-1.8 1.81-3.46.67-1.92-1.32-.4-3.41-.4-3.41z"/><path fill="#fff" d="M40.3 15.6c.18.46.26.99.26 1.58 0 1.04-.4 1.87-1.2 2.5s-2.01.94-3.64.94c-.76 0-1.49-.06-2.17-.19-.68-.12-1.26-.3-1.75-.52v-2.73c.53.25 1.12.45 1.76.6.65.15 1.25.23 1.82.23s1.03-.05 1.33-.15.45-.33.45-.68a.71.71 0 0 0-.26-.58c-.17-.14-.44-.27-.79-.39-.36-.12-.83-.26-1.4-.44-.76-.25-1.37-.52-1.82-.81q-.675-.435-.96-1.08c-.19-.42-.29-.94-.29-1.55 0-1.12.4-1.97 1.19-2.55q1.185-.87 3.54-.87c.62 0 1.27.05 1.93.16s1.2.22 1.61.35v2.75a9 9 0 0 0-1.59-.48c-.51-.09-.98-.14-1.43-.14q-.78 0-1.32.12c-.36.08-.55.29-.55.64 0 .29.16.51.47.64.31.14.87.31 1.67.52q1.395.375 2.13.9c.49.35.82.76 1 1.23zm4.81-6.52h-3.32v11.36h8.43V17.9H45.1V9.08zm16.41 2.3c.45.86.67 2 .67 3.41 0 2.05-.5 3.53-1.5 4.45s-2.44 1.38-4.31 1.38-3.32-.46-4.31-1.38-1.49-2.4-1.49-4.45c0-1.41.22-2.55.67-3.41s1.1-1.49 1.97-1.89c.86-.39 1.92-.59 3.17-.59s2.3.2 3.17.59c.86.39 1.52 1.02 1.97 1.89zm-2.71 3.41q0-1.68-.57-2.37c-.38-.46-1-.7-1.84-.7s-1.46.23-1.84.7c-.38.46-.57 1.26-.57 2.37 0 1.05.19 1.81.57 2.29s1 .71 1.84.71 1.46-.24 1.84-.71c.38-.48.57-1.24.57-2.29m3.74-5.71v2.47h3.19v8.89h3.32v-8.89h3.19V9.08z"/><path fill="url(#f)" d="M35.62 34.14V22.72h3.33v8.87h5.14v2.55h-8.48zm9.01 0 4.38-11.42h3.53l4.38 11.42h-3.48l-.96-2.43h-3.44l-.94 2.43h-3.48zm4.86-4.82h2.55l-1.28-3.35-1.28 3.35zm8.67 4.82V22.72h3.33v11.42zm4.93 0V22.72h5.94c.93 0 1.7.17 2.3.51s1.04.82 1.34 1.43.44 1.32.44 2.12-.19 1.45-.58 2.03c-.38.59-.9 1.03-1.53 1.34.13.11.24.23.34.38.09.15.2.35.32.61l1.31 3h-3.48l-1.21-2.75a.97.97 0 0 0-.35-.45c-.14-.09-.33-.13-.58-.13h-.94v3.33h-3.33zm3.34-5.89h1.76c.48 0 .86-.13 1.13-.38s.4-.62.4-1.09c0-1-.47-1.51-1.42-1.51h-1.86v2.98z"/></g></g></g><defs><linearGradient id="d" x1="156.916" x2="148.413" y1="5.001" y2="-13.609" gradientUnits="userSpaceOnUse"><stop stop-color="#DB7004"/><stop offset=".32" stop-color="#E88F14"/><stop offset=".77" stop-color="#F8B629"/><stop offset="1" stop-color="#FFC531"/></linearGradient><linearGradient id="e" x1="20.07" x2="20.07" y1="36" y2="9.49" gradientUnits="userSpaceOnUse"><stop stop-color="#DB7004"/><stop offset=".32" stop-color="#E88F14"/><stop offset=".77" stop-color="#F8B629"/><stop offset="1" stop-color="#FFC531"/></linearGradient><linearGradient id="f" x1="54.37" x2="54.37" y1="22.721" y2="34.141" gradientUnits="userSpaceOnUse"><stop stop-color="#FFC531"/><stop offset="1" stop-color="#DB7004"/></linearGradient><clipPath id="a"><path fill="#fff" d="M0 8h74v28H0z"/></clipPath><clipPath id="b"><path fill="#fff" d="M0 8h74v28H0z"/></clipPath><clipPath id="c"><path fill="#fff" d="M0 8h74v28H0z"/></clipPath></defs></svg>