<svg width="163" height="52" viewBox="0 0 163 52" fill="none" xmlns="http://www.w3.org/2000/svg">
<g clip-path="url(#clip0_16117_5826)">
<path d="M145.982 24.8256L156.08 45.3981L138.92 39.5513L137.926 37.5996L137.357 40.0204L130.965 40.5931V40.6033L107.661 42.695V42.6828L102.295 43.1662L102.017 43.1906L96.0138 43.7287L96.0054 43.7633L72.7853 45.8469H72.7812C71.4557 46.377 70.0571 46.71 68.6085 46.84C68.0741 46.8888 67.5523 46.9111 67.0408 46.9111C66.0806 46.9091 65.1664 46.8217 64.3105 46.6491C63.4965 46.4846 62.7596 46.2795 62.0875 46.0297H62.0854L61.9184 46.7425L44.9145 48.2697L38.6294 48.8343L31.8788 49.4395L33.7261 41.5862C32.7951 41.903 31.8433 42.1041 30.8831 42.1894L30.5575 42.2198L28.7936 49.7157L15.7579 50.8855L15.7996 50.7047C14.5263 51.1921 13.1904 51.4988 11.8044 51.6247C11.27 51.6714 10.7461 51.6958 10.2367 51.6958C9.27653 51.6937 8.36225 51.6064 7.50642 51.4338C6.20181 51.1718 5.09966 50.8042 4.1332 50.3107C3.20431 49.8375 2.528 49.407 2.00824 48.9602L0.34668 47.5264L2.79727 37.1183L5.58811 36.8665C4.95146 36.042 4.47345 35.0814 4.16034 33.9969C3.72825 32.4961 3.74495 30.7902 4.2167 28.7878C4.72602 26.6229 5.63821 24.7078 6.92404 23.0953C8.189 21.5112 9.70444 20.2399 11.4265 19.3199C13.1528 18.3999 14.9918 17.8455 16.8976 17.6749C18.2586 17.5531 19.5256 17.5815 20.6674 17.7582C21.8447 17.943 22.9239 18.2578 23.8757 18.6924C24.6648 19.0539 25.3619 19.5027 25.9569 20.0307L33.8722 19.3199C35.7342 19.1514 37.3999 19.3524 38.8277 19.917L39.0782 18.8528L45.8309 18.2476L65.4502 16.4848H65.4523C66.304 15.7192 67.2329 15.0693 68.2307 14.5352C69.9569 13.6153 71.7959 13.0629 73.7017 12.8902C75.0627 12.7684 76.3297 12.7968 77.4715 12.9755C78.6509 13.1603 79.728 13.4731 80.6798 13.9077C81.3645 14.2204 81.9761 14.5982 82.5147 15.0348L101.299 13.3472H101.301C101.863 12.153 102.687 10.6157 103.806 9.05192C106.286 5.58526 110.498 3.45489 110.97 3.22337L116.524 0.5L116.28 11.9804L126.185 11.0929C128.047 10.9264 129.727 11.1518 131.184 11.7651L131.456 10.6076L141.389 9.71601L142.5 7.86387L162.228 1.78756L150.044 19.06L145.982 24.8256Z" fill="url(#paint0_linear_16117_5826)" stroke="url(#paint1_radial_16117_5826)" stroke-width="0.749854" stroke-miterlimit="7"/>
<path d="M23.4651 21.923L22.1167 27.6561L21.3798 27.7232C21.3381 27.6683 21.2942 27.6135 21.2504 27.5607C20.6826 26.8722 19.9688 26.3341 19.1129 25.9523C18.1882 25.542 17.2238 25.3796 16.2177 25.4709C15.604 25.5258 15.0446 25.7268 14.5436 26.0741C14.0427 26.4214 13.7212 26.8885 13.5813 27.4815C13.4373 28.0968 13.5897 28.6147 14.0447 29.0331C14.4998 29.4514 15.1469 29.9124 15.9902 30.4161L18.2571 31.8052C18.923 32.2195 19.4761 32.7048 19.9082 33.2572C19.9395 33.2938 19.9688 33.3304 19.9959 33.3689C20.4447 33.968 20.7307 34.691 20.8559 35.5359C20.9811 36.3827 20.9039 37.3961 20.6242 38.5801C20.2464 40.1845 19.5951 41.5756 18.6683 42.7576C18.2613 43.2754 17.8187 43.7486 17.3386 44.1731C16.725 44.7173 16.0528 45.1824 15.3222 45.5744C14.0155 46.271 12.6149 46.6873 11.1182 46.8213C9.94094 46.9269 8.87637 46.8822 7.92452 46.6913C6.97267 46.4984 6.17529 46.2385 5.53238 45.9095C4.88946 45.5825 4.42815 45.2982 4.14844 45.0565L5.49689 39.3234L6.23374 39.2564C6.84534 39.9266 7.64899 40.4871 8.64885 40.942C9.64453 41.3949 10.636 41.5776 11.6171 41.4903C12.1077 41.4456 12.5627 41.3258 12.9802 41.1309C13.3977 40.9379 13.7525 40.682 14.0427 40.3652C14.3349 40.0504 14.5248 39.695 14.6188 39.3011C14.7691 38.6593 14.6898 38.1597 14.3766 37.8023C14.0656 37.4449 13.5375 37.057 12.7944 36.6406L10.5672 35.3917C9.90963 35.016 9.28759 34.5529 8.69686 34.0026C8.10404 33.4522 7.6803 32.7312 7.42355 31.8356C7.16471 30.9421 7.19811 29.8048 7.52375 28.4238C7.912 26.7707 8.58414 25.3471 9.53807 24.1509C10.492 22.9547 11.6088 22.0165 12.8862 21.3341C14.1637 20.6517 15.5017 20.2476 16.9003 20.1237C17.9544 20.0283 18.9 20.0465 19.7329 20.1765C20.5678 20.3065 21.3047 20.5177 21.9455 20.8101C22.2357 20.9421 22.4987 21.0924 22.7345 21.259C23.0184 21.456 23.2606 21.6793 23.4651 21.923Z" fill="url(#paint2_linear_16117_5826)"/>
<path d="M80.2709 17.1384L78.9204 22.8735L78.1835 22.9385C78.0708 22.7902 77.9518 22.6501 77.8245 22.5161C77.2985 21.9515 76.6618 21.5027 75.9166 21.1696C74.9919 20.7574 74.0275 20.5969 73.0214 20.6863C72.4077 20.7411 71.8504 20.9422 71.3473 21.2894C70.8464 21.6367 70.5249 22.1058 70.3871 22.6968C70.241 23.3142 70.3955 23.8321 70.8505 24.2484C71.3035 24.6668 71.9527 25.1278 72.7939 25.6314L75.0608 27.0205C75.616 27.3658 76.092 27.7597 76.4865 28.2025C76.5992 28.3263 76.7036 28.4523 76.8017 28.5843C77.2484 29.1834 77.5344 29.9064 77.6596 30.7532C77.7848 31.5981 77.7076 32.6135 77.43 33.7975C77.0522 35.3998 76.3988 36.793 75.4741 37.9729C74.9669 38.6207 74.4012 39.1934 73.7812 39.6951C73.2698 40.1094 72.7167 40.4729 72.1259 40.7897C70.8213 41.4863 69.4186 41.9026 67.9219 42.0366C66.7447 42.1422 65.6801 42.0996 64.7282 41.9067C64.1479 41.7909 63.624 41.6467 63.1585 41.4782C62.86 41.3705 62.5866 41.2527 62.3361 41.1248C61.6932 40.7978 61.2319 40.5135 60.9521 40.2718L62.3027 34.5387L63.0374 34.4737C63.4466 34.9205 63.9434 35.3206 64.5258 35.6719C64.8138 35.8466 65.1227 36.0091 65.4526 36.1573C66.4503 36.6102 67.4398 36.793 68.4208 36.7057C68.9114 36.661 69.3664 36.5432 69.786 36.3482C70.2035 36.1533 70.5583 35.8974 70.8485 35.5826C71.1386 35.2658 71.3306 34.9124 71.4225 34.5164C71.5728 33.8767 71.4935 33.3751 71.1804 33.0176C70.8693 32.6602 70.3412 32.2723 69.5981 31.856L67.3709 30.607C66.8803 30.3247 66.4065 29.9957 65.9514 29.618C65.7991 29.49 65.6488 29.356 65.5006 29.2179C64.9098 28.6696 64.484 27.9466 64.2273 27.051C63.9684 26.1574 64.0018 25.0201 64.3275 23.6391C64.7157 21.9881 65.3878 20.5624 66.3418 19.3662C67.0995 18.4178 67.9574 17.6298 68.9197 17.0043C69.1702 16.8419 69.4269 16.6896 69.69 16.5494C70.9674 15.8691 72.3055 15.465 73.704 15.339C74.7581 15.2436 75.7037 15.2619 76.5387 15.3918C77.3715 15.5238 78.1084 15.7351 78.7492 16.0255C78.9392 16.1128 79.1187 16.2082 79.2857 16.3118C79.6802 16.5474 80.0079 16.8236 80.2709 17.1384Z" fill="url(#paint3_linear_16117_5826)"/>
<path d="M39.0952 24.4981C38.8907 23.828 38.5692 23.2837 38.135 22.8633C37.8741 22.6115 37.5715 22.4043 37.2291 22.2398C36.3128 21.8052 35.1543 21.6509 33.7515 21.7768L27.8338 22.3089L25.5377 22.514L20.0938 45.6312L22.5193 45.4139L25.2872 45.1661L27.051 37.6682L30.0756 37.3981C31.3239 37.2864 32.5471 36.8904 33.7474 36.2121C34.2692 35.9176 34.766 35.5683 35.2378 35.1662H35.2398C35.8473 34.6443 36.4109 34.0371 36.9327 33.3405C37.8553 32.1037 38.5275 30.5948 38.947 28.8117C39.3729 27.0062 39.4209 25.5684 39.0952 24.4981ZM33.5699 29.5204C33.4259 30.1358 33.2005 30.7004 32.8978 31.2121C32.5951 31.7239 32.2257 32.1362 31.7873 32.4428C31.351 32.7515 30.8688 32.9302 30.3428 32.977L28.1093 33.178L29.6102 26.8052L31.8437 26.6041C32.3697 26.5574 32.7872 26.6488 33.0982 26.8783C33.4071 27.1098 33.6012 27.453 33.6764 27.91C33.7494 28.3669 33.716 28.9031 33.5699 29.5204Z" fill="url(#paint4_linear_16117_5826)"/>
<path d="M46.9711 20.5903L41.5292 43.7075L39.8009 43.8619L36.3379 44.1726L37.3962 39.6804L41.5981 21.8271L41.7797 21.0574L45.2427 20.7467L46.9711 20.5903Z" fill="url(#paint5_linear_16117_5826)"/>
<path d="M63.1185 19.1426L58.9145 19.5203L56.0589 32.6092L55.7291 32.6397L53.9193 19.9671L51.5251 20.1824L48.5297 20.4525L43.0879 43.5677L46.0833 43.2996L48.1498 43.1148L50.9427 30.2879L51.2725 30.2595L53.1428 42.666L57.255 42.2964L58.5325 42.1826L60.8787 32.2193L61.34 30.2656L63.9764 19.0654L63.1185 19.1426Z" fill="url(#paint6_linear_16117_5826)"/>
<path d="M98.2283 16.0723L95.9259 25.8468V25.8508L92.7844 39.1874L90.2775 39.4129L87.5263 39.6606L89.6951 30.4466L84.3722 30.9239L82.2034 40.1379L79.4878 40.3816L76.9453 40.609L82.3871 17.4939L84.581 17.2969L87.6453 17.0207L85.4765 26.2347L90.7993 25.7574L92.9702 16.5434L98.2283 16.0723Z" fill="url(#paint7_linear_16117_5826)"/>
<path d="M131.564 16.1124C131.339 15.4666 130.994 14.9406 130.531 14.5364C130.283 14.3171 130.001 14.1343 129.684 13.9861C128.776 13.5616 127.665 13.4073 126.35 13.5251L123 13.8256L117.806 14.2927L116.076 21.5551V21.5591L112.3 37.414L115.746 37.1053L117.558 36.9428L119.618 28.1919L121.595 28.0132L122.321 36.5143L125.423 36.2361L127.744 36.029L127.939 35.2024L127.045 29.3475L126.638 26.685C127.066 26.4433 127.475 26.1631 127.868 25.8483C128.481 25.3609 129.053 24.7862 129.579 24.1282C130.491 22.9909 131.138 21.6079 131.523 19.9791C131.896 18.393 131.909 17.1055 131.564 16.1124ZM126.087 20.6595C125.968 21.1672 125.778 21.6322 125.517 22.0526C125.258 22.475 124.941 22.8101 124.574 23.0599C124.204 23.3077 123.789 23.4519 123.327 23.4945L120.666 23.7321L121.879 18.5819L124.54 18.3423C125.002 18.3016 125.365 18.3707 125.634 18.5514C125.901 18.7322 126.074 19.0023 126.152 19.3617C126.227 19.7212 126.206 20.1538 126.087 20.6595Z" fill="url(#paint8_linear_16117_5826)"/>
<path d="M112.312 5.29639C112.312 5.29639 108.547 7.14243 106.536 9.95313C104.526 12.7618 103.585 15.5563 103.585 15.5563L101.525 20.3206L93.7699 38.2571L93.5737 39.0837L97.1828 38.7588L98.9968 38.5963L101.055 33.2714L106.445 32.788L106.029 37.9647L108.847 37.7129L111.45 37.4793L111.646 36.6528L111.895 24.9165L112.114 14.6525L107.822 15.2455L112.147 13.0522L112.312 5.29639ZM106.827 28.2917L102.817 28.6532L106.098 20.1785L107.48 20.0546L106.827 28.2917Z" fill="url(#paint9_linear_16117_5826)"/>
<path d="M142.17 25.0297L148.485 37.8911L141.254 35.4277L136.611 26.299L136.119 26.3436L133.973 35.4581L131.785 35.6531V35.6551L128.715 35.9293L133.935 13.7544L134.157 12.8121L139.415 12.3409L137.332 21.1914L137.824 21.1467L144.665 9.73126L152.645 7.27393L146.616 15.8198L142.291 21.9611L139.638 23.736L142.17 25.0297Z" fill="url(#paint10_linear_16117_5826)"/>
<path d="M18.1756 20.6722C18.6953 20.6722 19.1879 20.7068 19.6346 20.7778C20.407 20.8977 21.0958 21.0947 21.6803 21.3627C21.9308 21.4765 22.1625 21.6085 22.3712 21.7547C22.5194 21.8583 22.6572 21.972 22.7824 22.0938L21.6197 27.0369C21.0102 26.3424 20.2567 25.79 19.3737 25.396C18.5346 25.0244 17.6558 24.8355 16.7582 24.8355C16.5599 24.8355 16.3595 24.8456 16.1612 24.8619C15.4369 24.9269 14.771 25.1665 14.1803 25.5747C13.552 26.0114 13.1449 26.6044 12.9717 27.3436C12.7776 28.1722 13.0009 28.9074 13.6167 29.474C14.1031 29.9208 14.7919 30.4122 15.6582 30.9301L17.9209 32.3172C18.5241 32.6929 19.0272 33.1336 19.4113 33.625L19.4196 33.6352L19.428 33.6453C19.4468 33.6677 19.4635 33.688 19.4802 33.7103L19.4864 33.7184L19.4927 33.7266C19.8768 34.2404 20.1294 34.8781 20.24 35.6214C20.3527 36.389 20.2796 37.3374 20.0187 38.4422C19.6639 39.9532 19.0418 41.2793 18.1756 42.3861C17.7873 42.8796 17.3656 43.3284 16.921 43.7224C16.3512 44.2261 15.7145 44.6708 15.0257 45.0405C13.7983 45.6944 12.4665 46.0904 11.0659 46.2143C10.6714 46.2488 10.2852 46.2671 9.91785 46.2671C9.25614 46.2671 8.62784 46.2082 8.0559 46.0945C7.16249 45.9137 6.41312 45.67 5.82656 45.3695C5.36943 45.1379 5.06049 44.9531 4.85175 44.813L6.00608 39.9065C6.63856 40.5279 7.43803 41.062 8.38779 41.4946C9.30207 41.9109 10.2289 42.1221 11.1452 42.1221C11.3227 42.1221 11.5022 42.114 11.6796 42.0977C12.2432 42.047 12.7734 41.9069 13.2535 41.6814C13.7461 41.454 14.1699 41.1473 14.5122 40.7736C14.8712 40.3857 15.1154 39.9369 15.2344 39.4373C15.4306 38.6006 15.3033 37.9162 14.8608 37.4105C14.4997 36.9942 13.9277 36.5698 13.1136 36.1149L10.8906 34.8679C10.2811 34.5206 9.69241 34.082 9.13508 33.5641C8.62158 33.0869 8.26046 32.4695 8.03293 31.6734C7.80332 30.8834 7.84089 29.8375 8.14148 28.5621C8.50677 27.0065 9.14551 25.6478 10.041 24.5268C10.9365 23.4037 11.9969 22.5102 13.195 21.8704C14.3911 21.2307 15.6603 20.8489 16.9649 20.7332C17.3865 20.6946 17.7957 20.6763 18.1818 20.6763M18.1756 20.063C17.7706 20.063 17.3448 20.0833 16.9022 20.1239C15.5037 20.2478 14.1657 20.6519 12.8882 21.3343C11.6107 22.0167 10.494 22.9549 9.54003 24.1511C8.58609 25.3473 7.91395 26.7709 7.5257 28.424C7.20007 29.805 7.16667 30.9423 7.4255 31.8358C7.68225 32.7315 8.10599 33.4524 8.69881 34.0028C9.28954 34.5531 9.91158 35.0162 10.5691 35.3919L12.7964 36.6408C13.5395 37.0572 14.0676 37.4451 14.3786 37.8025C14.6917 38.1599 14.771 38.6595 14.6207 39.3013C14.5268 39.6953 14.3368 40.0506 14.0446 40.3654C13.7545 40.6822 13.3996 40.9381 12.9821 41.1311C12.5647 41.326 12.1096 41.4458 11.6191 41.4905C11.4604 41.5047 11.3018 41.5108 11.1431 41.5108C10.3186 41.5108 9.48576 41.322 8.6508 40.9422C7.65094 40.4873 6.8473 39.9268 6.23569 39.2566L5.49884 39.3236L4.15039 45.0567C4.4301 45.2984 4.89141 45.5827 5.53433 45.9097C6.17725 46.2387 6.97463 46.4986 7.92648 46.6915C8.54226 46.8154 9.20605 46.8763 9.91576 46.8763C10.304 46.8763 10.7048 46.8581 11.1202 46.8215C12.6168 46.6875 14.0175 46.2712 15.3242 45.5746C16.0548 45.1826 16.7269 44.7176 17.3406 44.1733C17.8207 43.7488 18.2632 43.2756 18.6703 42.7578C19.5971 41.5758 20.2483 40.1847 20.6262 38.5803C20.9059 37.3963 20.9831 36.3829 20.8579 35.5361C20.7326 34.6912 20.4466 33.9682 19.9978 33.3691C19.9707 33.3306 19.9415 33.294 19.9102 33.2574C19.4781 32.7051 18.9249 32.2197 18.2591 31.8054L15.9921 30.4163C15.1488 29.9126 14.5018 29.4516 14.0467 29.0333C13.5917 28.6149 13.4393 28.097 13.5833 27.4817C13.7232 26.8887 14.0446 26.4216 14.5456 26.0743C15.0466 25.727 15.606 25.526 16.2197 25.4712C16.4013 25.4549 16.5808 25.4468 16.7603 25.4468C17.5723 25.4468 18.3572 25.6174 19.1149 25.9525C19.9707 26.3343 20.6846 26.8724 21.2524 27.5609C21.2962 27.6137 21.34 27.6685 21.3818 27.7234L22.1186 27.6563L23.4671 21.9232C23.2625 21.6795 23.0204 21.4562 22.7365 21.2592C22.5006 21.0926 22.2376 20.9423 21.9475 20.8103C21.3066 20.5179 20.5698 20.3067 19.7348 20.1767C19.2526 20.1016 18.7329 20.063 18.1756 20.063Z" fill="url(#paint11_linear_16117_5826)"/>
<path d="M74.9793 15.8871C75.499 15.8871 75.9916 15.9216 76.4383 15.9927C77.2107 16.1145 77.8995 16.3115 78.4819 16.5755C78.6489 16.6527 78.8075 16.736 78.9495 16.8253H78.9537L78.9578 16.8314C79.1958 16.9736 79.4066 17.134 79.5882 17.3107L78.4235 22.2558C78.3796 22.2051 78.3337 22.1563 78.2878 22.1076C77.7075 21.4841 76.9978 20.9825 76.1774 20.6169C75.3404 20.2433 74.4574 20.0544 73.5578 20.0544C73.3615 20.0544 73.1632 20.0625 72.9649 20.0808C72.2427 20.1458 71.5768 20.3854 70.984 20.7936C70.3536 21.2303 69.9487 21.8253 69.7775 22.5605C69.5813 23.3891 69.8046 24.1263 70.4204 24.6908C70.9068 25.1397 71.5768 25.6169 72.4619 26.147L74.7246 27.534C75.2277 27.8468 75.6618 28.2062 76.0188 28.6063C76.1211 28.718 76.2108 28.8277 76.2964 28.9414C76.6805 29.4573 76.931 30.0949 77.0416 30.8403C77.1543 31.6059 77.0813 32.5543 76.8224 33.6611C76.4655 35.17 75.8455 36.4962 74.9793 37.603C74.5075 38.2041 73.9711 38.7504 73.3845 39.2257C72.9127 39.6075 72.3888 39.9527 71.8294 40.2553C70.6062 40.9092 69.2723 41.3032 67.8696 41.4291C67.4709 41.4657 67.0827 41.4819 66.7153 41.4819C66.0536 41.4819 65.4295 41.423 64.8596 41.3073C64.3211 41.1996 63.8243 41.0636 63.3817 40.9052C63.1125 40.8077 62.8599 40.7001 62.6324 40.5823C62.1752 40.3507 61.8663 40.1659 61.6576 40.0258L62.8119 35.1213C63.2106 35.5133 63.6761 35.8707 64.2 36.1855C64.5131 36.3743 64.8471 36.551 65.1936 36.7054C66.11 37.1217 67.0368 37.3329 67.951 37.3329C68.1285 37.3329 68.308 37.3248 68.4854 37.3085C69.0511 37.2578 69.5813 37.1176 70.0635 36.8942C70.554 36.6648 70.9757 36.3601 71.3222 35.9844C71.6833 35.5884 71.9254 35.1396 72.0381 34.6481C72.2343 33.8114 72.1091 33.127 71.6645 32.6193C71.3034 32.203 70.7314 31.7785 69.9173 31.3236L67.6964 30.0787C67.233 29.8127 66.7863 29.4999 66.3667 29.1526C66.2289 29.0369 66.0891 28.913 65.9388 28.7729C65.4316 28.3017 65.0621 27.666 64.8366 26.8821C64.607 26.0921 64.6446 25.0462 64.9452 23.7709C65.3105 22.2132 65.9492 20.8566 66.8426 19.7356C67.5586 18.8399 68.3769 18.0906 69.2744 17.5057C69.5145 17.3493 69.7587 17.2071 69.9988 17.0792C71.1969 16.4415 72.466 16.0577 73.7707 15.9419C74.1923 15.9033 74.6014 15.8851 74.9876 15.8851M74.9793 15.2778C74.5743 15.2778 74.1485 15.2981 73.706 15.3388C72.3074 15.4647 70.9694 15.8688 69.6919 16.5491C69.4289 16.6893 69.1721 16.8416 68.9217 17.0041C67.9594 17.6296 67.1015 18.4175 66.3437 19.3659C65.3898 20.5621 64.7177 21.9878 64.3294 23.6389C64.0038 25.0198 63.9704 26.1571 64.2292 27.0507C64.486 27.9463 64.9118 28.6693 65.5025 29.2176C65.6507 29.3557 65.801 29.4897 65.9534 29.6177C66.4084 29.9954 66.8823 30.3244 67.3728 30.6067L69.6001 31.8557C70.3432 32.272 70.8713 32.6599 71.1823 33.0173C71.4954 33.3748 71.5747 33.8764 71.4244 34.5161C71.3326 34.9121 71.1406 35.2655 70.8504 35.5823C70.5603 35.8971 70.2054 36.153 69.7879 36.3479C69.3684 36.5429 68.9133 36.6607 68.4228 36.7054C68.2641 36.7196 68.1055 36.7257 67.9469 36.7257C67.1223 36.7257 66.2916 36.5368 65.4545 36.157C65.1247 36.0088 64.8158 35.8463 64.5277 35.6717C63.9453 35.3203 63.4485 34.9202 63.0394 34.4735L62.3046 34.5384L60.9541 40.2715C61.2338 40.5132 61.6951 40.7975 62.338 41.1245C62.5885 41.2524 62.862 41.3702 63.1605 41.4779C63.626 41.6464 64.1499 41.7906 64.7302 41.9064C65.3439 42.0303 66.0035 42.0932 66.7111 42.0932C67.1015 42.0932 67.5043 42.0749 67.9239 42.0364C69.4205 41.9023 70.8233 41.486 72.1279 40.7894C72.7186 40.4726 73.2718 40.1091 73.7832 39.6948C74.4031 39.1932 74.9688 38.6205 75.4761 37.9726C76.4008 36.7927 77.0541 35.3995 77.4319 33.7972C77.7096 32.6132 77.7868 31.5978 77.6616 30.7529C77.5363 29.9061 77.2503 29.1831 76.8036 28.584C76.7055 28.452 76.6012 28.3261 76.4884 28.2022C76.0939 27.7595 75.618 27.3655 75.0628 27.0202L72.7959 25.6311C71.9546 25.1275 71.3055 24.6665 70.8525 24.2481C70.3974 23.8318 70.243 23.3139 70.3891 22.6965C70.5269 22.1056 70.8483 21.6364 71.3493 21.2892C71.8524 20.9419 72.4097 20.7408 73.0234 20.686C73.2029 20.6697 73.3824 20.6616 73.5578 20.6616C74.3718 20.6616 75.1588 20.8302 75.9186 21.1693C76.6638 21.5024 77.3004 21.9512 77.8265 22.5158C77.9538 22.6498 78.0728 22.79 78.1855 22.9382L78.9223 22.8732L80.2729 17.1381C80.0099 16.8233 79.6822 16.5471 79.2876 16.3115C79.1206 16.208 78.9411 16.1125 78.7512 16.0252C78.1103 15.7348 77.3735 15.5236 76.5406 15.3916C76.0584 15.3164 75.5366 15.2778 74.9793 15.2778Z" fill="url(#paint12_linear_16117_5826)"/>
<path d="M34.6615 22.3427C35.5633 22.3427 36.3356 22.4929 36.9535 22.7854C37.2353 22.9214 37.4857 23.092 37.6945 23.2951C38.0535 23.6424 38.3228 24.1054 38.496 24.672C38.7904 25.6387 38.7361 26.9852 38.3374 28.6769C37.9387 30.3686 37.2958 31.8186 36.4274 32.9823C35.964 33.5997 35.4589 34.1521 34.9245 34.6253L34.8264 34.7085C34.386 35.0842 33.9163 35.4132 33.4341 35.6854C32.3174 36.317 31.1693 36.6886 30.0191 36.7922L26.9945 37.0623L26.5416 37.1029L26.4414 37.5334L24.7777 44.6008L22.4607 44.808L20.8952 44.9481L26.0448 23.0819L27.89 22.9174L33.8078 22.3853C34.1021 22.3589 34.3881 22.3447 34.6594 22.3447M27.3055 33.8617L28.1676 33.7845L30.4011 33.5834C31.0378 33.5266 31.6285 33.3093 32.1545 32.9376C32.6597 32.5842 33.0939 32.105 33.4425 31.516C33.7765 30.9514 34.0269 30.3239 34.1814 29.6578C34.3442 28.9734 34.3818 28.354 34.2962 27.8138C34.196 27.2025 33.9226 26.7252 33.478 26.3922C33.1085 26.12 32.6472 25.9819 32.1024 25.9819C32.0001 25.9819 31.8957 25.986 31.7872 25.9962L29.5537 26.1972L29.1028 26.2378L29.0005 26.6684L27.4997 33.0412L27.3055 33.8617ZM34.6615 21.7334C34.3714 21.7334 34.0687 21.7476 33.7535 21.776L27.8357 22.3081L25.5396 22.5132L20.0957 45.6305L22.5212 45.4131L25.2891 45.1654L27.053 37.6675L30.0776 37.3974C31.3259 37.2857 32.5491 36.8897 33.7493 36.2114C34.2712 35.9169 34.768 35.5676 35.2397 35.1655H35.2418C35.8492 34.6435 36.4128 34.0363 36.9347 33.3397C37.8573 32.1029 38.5294 30.594 38.949 28.8109C39.3748 27.0055 39.4228 25.5676 39.0972 24.4974C38.8926 23.8272 38.5712 23.2829 38.137 22.8626C37.8761 22.6107 37.5734 22.4036 37.2311 22.2391C36.5214 21.902 35.6655 21.7334 34.6615 21.7334ZM28.1092 33.1773L29.61 26.8044L31.8435 26.6034C31.9333 26.5953 32.0189 26.5912 32.1003 26.5912C32.5073 26.5912 32.8392 26.6867 33.098 26.8776C33.407 27.1091 33.6011 27.4523 33.6763 27.9092C33.7493 28.3662 33.7159 28.9023 33.5698 29.5197C33.4258 30.135 33.2003 30.6996 32.8977 31.2114C32.595 31.7232 32.2255 32.1354 31.7872 32.4421C31.3509 32.7508 30.8687 32.9295 30.3427 32.9762L28.1092 33.1773Z" fill="url(#paint13_linear_16117_5826)"/>
<path d="M46.1674 21.2747L41.0199 43.1409L39.7424 43.2547L37.1394 43.4882L38.0057 39.8164L42.2076 21.9632L42.2869 21.624L45.299 21.3539L46.1653 21.2747M46.971 20.5903L45.2427 20.7467L41.7797 21.0574L41.5981 21.8271L37.3962 39.6804L36.3379 44.1726L39.8009 43.8619L41.5292 43.7075L46.971 20.5903Z" fill="url(#paint14_linear_16117_5826)"/>
<path d="M63.1727 19.7498L60.7305 30.1295L60.2692 32.0832L58.0252 41.616L57.1986 41.6891L53.6772 42.006L51.8925 30.1701L51.8069 29.6015L51.2183 29.6523L50.8885 29.6807L50.4272 29.7213L50.3311 30.162L47.6342 42.5502L46.0269 42.6944L43.8915 42.8853L49.039 21.0191L51.5836 20.7896L53.3829 20.6272L55.1112 32.7229L55.1947 33.3017L55.7917 33.2469L56.1215 33.2164L56.5787 33.1738L56.6747 32.7351L59.4342 20.0849L63.1748 19.7478M63.9764 19.0654L63.1185 19.1426L58.9145 19.5203L56.0589 32.6092L55.7291 32.6397L53.9194 19.9671L51.5251 20.1824L48.5297 20.4525L43.0879 43.5677L46.0833 43.2996L48.1498 43.1148L50.9427 30.2879L51.2725 30.2595L53.1428 42.666L57.255 42.2964L58.5325 42.1826L60.8787 32.2193L61.34 30.2656L63.9764 19.0654Z" fill="url(#paint15_linear_16117_5826)"/>
<path d="M97.4247 16.7546L95.3164 25.7087L95.2997 25.7797L92.2751 38.6188L90.219 38.8036L88.3299 38.9742L90.3067 30.5807L90.4987 29.7602L89.6387 29.8374L84.3159 30.3146L83.865 30.3553L83.7627 30.7858L81.6941 39.5692L79.4293 39.7723L77.7469 39.9226L82.8944 18.0564L84.6373 17.9L86.8395 17.701L84.8628 26.0945L84.6707 26.915L85.5307 26.8378L90.8536 26.3606L91.3045 26.32L91.4067 25.8894L93.4753 17.106L97.4205 16.7526M98.2283 16.0723L92.9702 16.5434L90.7993 25.7574L85.4765 26.2347L87.6453 17.0207L84.581 17.2969L82.3871 17.4939L76.9453 40.609L79.4878 40.3816L82.2034 40.1379L84.3722 30.9239L89.6951 30.4466L87.5263 39.6606L90.2775 39.4129L92.7844 39.1874L95.9259 25.8508V25.8468L98.2283 16.0723Z" fill="url(#paint16_linear_16117_5826)"/>
<path d="M127.177 14.0961C128.037 14.0961 128.79 14.2443 129.414 14.5347C129.679 14.6586 129.907 14.8069 130.116 14.9896C130.496 15.3207 130.784 15.7634 130.974 16.3077C131.28 17.1891 131.26 18.3791 130.915 19.8434C130.554 21.3787 129.938 22.6947 129.089 23.7548C128.594 24.3742 128.051 24.9205 127.473 25.3795C127.101 25.678 126.715 25.94 126.327 26.1593L125.96 26.3665L126.022 26.7747L126.429 29.4371L127.306 35.1784L127.239 35.4627L125.369 35.6292L122.895 35.8506L122.221 27.9627L122.169 27.3494L121.539 27.4063L119.562 27.585L119.111 27.6256L119.011 28.0562L117.053 36.3766L115.692 36.4984L113.108 36.7299L116.688 21.6976L116.704 21.6265L118.316 14.8597L123.058 14.4332L126.408 14.1326C126.674 14.1083 126.93 14.0961 127.177 14.0961ZM119.862 24.4148L120.722 24.3377L123.386 24.1001C123.954 24.0473 124.473 23.8665 124.931 23.5578C125.375 23.2552 125.753 22.8531 126.052 22.3657C126.346 21.8925 126.563 21.3625 126.697 20.7938C126.834 20.2069 126.857 19.683 126.763 19.2362C126.653 18.7224 126.392 18.3223 125.989 18.0481C125.665 17.8308 125.26 17.7191 124.784 17.7191C124.688 17.7191 124.586 17.7232 124.482 17.7333L121.82 17.973L121.37 18.0136L121.267 18.4441L120.054 23.5944L119.862 24.4148ZM127.177 13.4868C126.912 13.4868 126.636 13.499 126.35 13.5254L123 13.826L117.806 14.2931L116.076 21.5554V21.5595L112.3 37.4143L115.746 37.1056L117.558 36.9432L119.618 28.1922L121.595 28.0135L122.321 36.5147L125.423 36.2364L127.744 36.0293L127.939 35.2027L127.045 29.3478L126.638 26.6853C127.066 26.4437 127.475 26.1634 127.868 25.8486C128.481 25.3612 129.053 24.7865 129.579 24.1285C130.491 22.9912 131.138 21.6082 131.523 19.9795C131.896 18.3934 131.909 17.1058 131.564 16.1127C131.339 15.4669 130.994 14.9409 130.531 14.5368C130.283 14.3174 130.001 14.1347 129.684 13.9864C128.972 13.6533 128.137 13.4868 127.177 13.4868ZM120.666 23.7325L121.879 18.5822L124.54 18.3426C124.626 18.3345 124.707 18.3304 124.787 18.3304C125.133 18.3304 125.415 18.4035 125.634 18.5518C125.901 18.7325 126.074 19.0026 126.152 19.3621C126.227 19.7215 126.206 20.1541 126.087 20.6598C125.968 21.1675 125.778 21.6326 125.517 22.053C125.258 22.4754 124.941 22.8105 124.574 23.0603C124.204 23.308 123.789 23.4522 123.327 23.4949L120.666 23.7325Z" fill="url(#paint17_linear_16117_5826)"/>
<path d="M111.663 6.35446L111.529 12.6765L107.534 14.7033L104.292 16.3463L107.91 15.8467L111.473 15.3552L111.269 24.9022L111.022 36.5756L110.943 36.9107L108.791 37.1036L106.712 37.2884L107.069 32.8327L107.127 32.1118L106.388 32.1788L100.999 32.6621L100.608 32.6967L100.47 33.0541L98.5501 38.0216L97.1265 38.1495L94.3899 38.3952L102.103 20.5562L102.151 20.4425L104.163 15.7898L104.173 15.7675L104.182 15.7451C104.19 15.7187 105.123 12.9954 107.052 10.3004C108.35 8.48686 110.457 7.07135 111.665 6.35446M101.879 29.3498L102.875 29.2605L106.885 28.899L107.411 28.8523L107.451 28.3405L108.104 20.1033L108.16 19.3844L107.421 19.4514L106.04 19.5753L105.649 19.6098L105.512 19.9673L102.23 28.442L101.877 29.3539M112.312 5.29639C112.312 5.29639 108.547 7.14243 106.536 9.95313C104.526 12.7618 103.585 15.5563 103.585 15.5563L101.525 20.3206L93.7699 38.2571L93.5737 39.0837L97.1828 38.7588L98.9968 38.5963L101.055 33.2714L106.445 32.788L106.029 37.9647L108.847 37.7129L111.45 37.4793L111.646 36.6528L111.895 24.9165L112.114 14.6525L107.822 15.2455L112.147 13.0522L112.312 5.29639ZM102.817 28.6532L106.098 20.1785L107.48 20.0546L106.827 28.2917L102.817 28.6532Z" fill="url(#paint18_linear_16117_5826)"/>
<path d="M151.1 8.38886L146.101 15.4745L141.842 21.5224L139.285 23.2324L138.43 23.8051L139.348 24.2742L141.696 25.4744L147.272 36.831L141.703 34.9342L137.173 26.0289L136.983 25.6532L136.555 25.6917L136.062 25.7364L135.612 25.777L135.511 26.2076L133.468 34.8915L131.733 35.0458L131.163 35.0987L129.523 35.2449L134.551 13.8884L134.672 13.3766L138.617 13.0233L136.726 21.0533L136.532 21.8737L137.394 21.7966L137.887 21.7519L138.208 21.7234L138.371 21.4533L145.09 10.241L151.104 8.38886M152.645 7.27393L144.665 9.73126L137.824 21.1467L137.332 21.1914L139.415 12.3409L134.157 12.8121L133.935 13.7544L128.715 35.9293L131.785 35.6551L133.973 35.4581L136.119 26.3436L136.611 26.299L141.254 35.4277L148.485 37.8911L142.17 25.0297L139.638 23.736L142.291 21.9611L146.616 15.8198L152.645 7.27393Z" fill="url(#paint19_linear_16117_5826)"/>
</g>
<defs>
<linearGradient id="paint0_linear_16117_5826" x1="0.34668" y1="0.5" x2="29.7843" y2="93.5818" gradientUnits="userSpaceOnUse">
<stop stop-color="#002467"/>
<stop offset="1" stop-color="#000615"/>
</linearGradient>
<radialGradient id="paint1_radial_16117_5826" cx="0" cy="0" r="1" gradientUnits="userSpaceOnUse" gradientTransform="translate(81.5002 26.0014) scale(60.6491 59.0064)">
<stop stop-color="#FFFBEB"/>
<stop offset="0.1" stop-color="#FDB714"/>
<stop offset="0.25" stop-color="#FFD767"/>
<stop offset="0.7" stop-color="#FFF3C5"/>
<stop offset="0.85" stop-color="#CB892A"/>
<stop offset="1" stop-color="#FFFBEB"/>
</radialGradient>
<linearGradient id="paint2_linear_16117_5826" x1="-16.811" y1="27.5952" x2="183.28" y2="67.8553" gradientUnits="userSpaceOnUse">
<stop stop-color="#FFF33B"/>
<stop offset="0.11" stop-color="#FDE235"/>
<stop offset="0.32" stop-color="#FBC82B"/>
<stop offset="0.54" stop-color="#FAB524"/>
<stop offset="0.76" stop-color="#F9A920"/>
<stop offset="1" stop-color="#F9A61F"/>
</linearGradient>
<linearGradient id="paint3_linear_16117_5826" x1="-13.7868" y1="12.5669" x2="186.302" y2="52.8291" gradientUnits="userSpaceOnUse">
<stop stop-color="#FFF33B"/>
<stop offset="0.11" stop-color="#FDE235"/>
<stop offset="0.32" stop-color="#FBC82B"/>
<stop offset="0.54" stop-color="#FAB524"/>
<stop offset="0.76" stop-color="#F9A920"/>
<stop offset="1" stop-color="#F9A61F"/>
</linearGradient>
<linearGradient id="paint4_linear_16117_5826" x1="-16.3458" y1="25.2841" x2="183.743" y2="65.5463" gradientUnits="userSpaceOnUse">
<stop stop-color="#FFF33B"/>
<stop offset="0.11" stop-color="#FDE235"/>
<stop offset="0.32" stop-color="#FBC82B"/>
<stop offset="0.54" stop-color="#FAB524"/>
<stop offset="0.76" stop-color="#F9A920"/>
<stop offset="1" stop-color="#F9A61F"/>
</linearGradient>
<linearGradient id="paint5_linear_16117_5826" x1="-15.5797" y1="21.4798" x2="184.51" y2="61.7421" gradientUnits="userSpaceOnUse">
<stop stop-color="#FFF33B"/>
<stop offset="0.11" stop-color="#FDE235"/>
<stop offset="0.32" stop-color="#FBC82B"/>
<stop offset="0.54" stop-color="#FAB524"/>
<stop offset="0.76" stop-color="#F9A920"/>
<stop offset="1" stop-color="#F9A61F"/>
</linearGradient>
<linearGradient id="paint6_linear_16117_5826" x1="-14.9352" y1="18.2754" x2="185.154" y2="58.5355" gradientUnits="userSpaceOnUse">
<stop stop-color="#FFF33B"/>
<stop offset="0.11" stop-color="#FDE235"/>
<stop offset="0.32" stop-color="#FBC82B"/>
<stop offset="0.54" stop-color="#FAB524"/>
<stop offset="0.76" stop-color="#F9A920"/>
<stop offset="1" stop-color="#F9A61F"/>
</linearGradient>
<linearGradient id="paint7_linear_16117_5826" x1="-13.1025" y1="9.16127" x2="186.989" y2="49.4235" gradientUnits="userSpaceOnUse">
<stop stop-color="#FFF33B"/>
<stop offset="0.11" stop-color="#FDE235"/>
<stop offset="0.32" stop-color="#FBC82B"/>
<stop offset="0.54" stop-color="#FAB524"/>
<stop offset="0.76" stop-color="#F9A920"/>
<stop offset="1" stop-color="#F9A61F"/>
</linearGradient>
<linearGradient id="paint8_linear_16117_5826" x1="-11.3425" y1="0.417949" x2="188.747" y2="40.678" gradientUnits="userSpaceOnUse">
<stop stop-color="#FFF33B"/>
<stop offset="0.11" stop-color="#FDE235"/>
<stop offset="0.32" stop-color="#FBC82B"/>
<stop offset="0.54" stop-color="#FAB524"/>
<stop offset="0.76" stop-color="#F9A920"/>
<stop offset="1" stop-color="#F9A61F"/>
</linearGradient>
<linearGradient id="paint9_linear_16117_5826" x1="-11.3426" y1="0.422339" x2="188.747" y2="40.6824" gradientUnits="userSpaceOnUse">
<stop stop-color="#FFF33B"/>
<stop offset="0.11" stop-color="#FDE235"/>
<stop offset="0.32" stop-color="#FBC82B"/>
<stop offset="0.54" stop-color="#FAB524"/>
<stop offset="0.76" stop-color="#F9A920"/>
<stop offset="1" stop-color="#F9A61F"/>
</linearGradient>
<linearGradient id="paint10_linear_16117_5826" x1="-9.83558" y1="-7.06796" x2="190.254" y2="33.1942" gradientUnits="userSpaceOnUse">
<stop stop-color="#FFF33B"/>
<stop offset="0.11" stop-color="#FDE235"/>
<stop offset="0.32" stop-color="#FBC82B"/>
<stop offset="0.54" stop-color="#FAB524"/>
<stop offset="0.76" stop-color="#F9A920"/>
<stop offset="1" stop-color="#F9A61F"/>
</linearGradient>
<linearGradient id="paint11_linear_16117_5826" x1="4.1483" y1="33.4707" x2="23.465" y2="33.4707" gradientUnits="userSpaceOnUse">
<stop stop-color="#FFFBEB"/>
<stop offset="0.1" stop-color="#FDB714"/>
<stop offset="0.25" stop-color="#FFD767"/>
<stop offset="0.7" stop-color="#FFF3C5"/>
<stop offset="0.85" stop-color="#CB892A"/>
<stop offset="1" stop-color="#FFFBEB"/>
</linearGradient>
<linearGradient id="paint12_linear_16117_5826" x1="60.952" y1="28.6855" x2="80.2708" y2="28.6855" gradientUnits="userSpaceOnUse">
<stop stop-color="#FFFBEB"/>
<stop offset="0.1" stop-color="#FDB714"/>
<stop offset="0.25" stop-color="#FFD767"/>
<stop offset="0.7" stop-color="#FFF3C5"/>
<stop offset="0.85" stop-color="#CB892A"/>
<stop offset="1" stop-color="#FFFBEB"/>
</linearGradient>
<linearGradient id="paint13_linear_16117_5826" x1="20.0936" y1="33.6809" x2="39.308" y2="33.6809" gradientUnits="userSpaceOnUse">
<stop stop-color="#FFFBEB"/>
<stop offset="0.1" stop-color="#FDB714"/>
<stop offset="0.25" stop-color="#FFD767"/>
<stop offset="0.7" stop-color="#FFF3C5"/>
<stop offset="0.85" stop-color="#CB892A"/>
<stop offset="1" stop-color="#FFFBEB"/>
</linearGradient>
<linearGradient id="paint14_linear_16117_5826" x1="36.3379" y1="32.3815" x2="46.971" y2="32.3815" gradientUnits="userSpaceOnUse">
<stop stop-color="#FFFBEB"/>
<stop offset="0.1" stop-color="#FDB714"/>
<stop offset="0.25" stop-color="#FFD767"/>
<stop offset="0.7" stop-color="#FFF3C5"/>
<stop offset="0.85" stop-color="#CB892A"/>
<stop offset="1" stop-color="#FFFBEB"/>
</linearGradient>
<linearGradient id="paint15_linear_16117_5826" x1="43.0879" y1="31.3155" x2="63.9764" y2="31.3155" gradientUnits="userSpaceOnUse">
<stop stop-color="#FFFBEB"/>
<stop offset="0.1" stop-color="#FDB714"/>
<stop offset="0.25" stop-color="#FFD767"/>
<stop offset="0.7" stop-color="#FFF3C5"/>
<stop offset="0.85" stop-color="#CB892A"/>
<stop offset="1" stop-color="#FFFBEB"/>
</linearGradient>
<linearGradient id="paint16_linear_16117_5826" x1="76.9453" y1="28.3407" x2="98.2283" y2="28.3407" gradientUnits="userSpaceOnUse">
<stop stop-color="#FFFBEB"/>
<stop offset="0.1" stop-color="#FDB714"/>
<stop offset="0.25" stop-color="#FFD767"/>
<stop offset="0.7" stop-color="#FFF3C5"/>
<stop offset="0.85" stop-color="#CB892A"/>
<stop offset="1" stop-color="#FFFBEB"/>
</linearGradient>
<linearGradient id="paint17_linear_16117_5826" x1="112.3" y1="25.4506" x2="131.813" y2="25.4506" gradientUnits="userSpaceOnUse">
<stop stop-color="#FFFBEB"/>
<stop offset="0.1" stop-color="#FDB714"/>
<stop offset="0.25" stop-color="#FFD767"/>
<stop offset="0.7" stop-color="#FFF3C5"/>
<stop offset="0.85" stop-color="#CB892A"/>
<stop offset="1" stop-color="#FFFBEB"/>
</linearGradient>
<linearGradient id="paint18_linear_16117_5826" x1="93.5737" y1="22.189" x2="112.312" y2="22.189" gradientUnits="userSpaceOnUse">
<stop stop-color="#FFFBEB"/>
<stop offset="0.1" stop-color="#FDB714"/>
<stop offset="0.25" stop-color="#FFD767"/>
<stop offset="0.7" stop-color="#FFF3C5"/>
<stop offset="0.85" stop-color="#CB892A"/>
<stop offset="1" stop-color="#FFFBEB"/>
</linearGradient>
<linearGradient id="paint19_linear_16117_5826" x1="128.715" y1="22.5825" x2="152.645" y2="22.5825" gradientUnits="userSpaceOnUse">
<stop stop-color="#FFFBEB"/>
<stop offset="0.1" stop-color="#FDB714"/>
<stop offset="0.25" stop-color="#FFD767"/>
<stop offset="0.7" stop-color="#FFF3C5"/>
<stop offset="0.85" stop-color="#CB892A"/>
<stop offset="1" stop-color="#FFFBEB"/>
</linearGradient>
<clipPath id="clip0_16117_5826">
<rect width="163" height="52" fill="white"/>
</clipPath>
</defs>
</svg>
