<svg xmlns="http://www.w3.org/2000/svg" width="60" height="28" fill="none"><g clip-path="url(#a)"><path fill="#fff" d="M14.998 17.122h3.926c.982 0 1.823.282 2.384.847s.912 1.342.912 2.26c0 .92 0 .566-.07.848-.21 1.201-.701 2.049-1.473 2.685-.77.635-1.753.918-2.875.918H16.26l-.561 2.967h-2.735l2.104-10.667zm4.417 3.885v-.353c0-.283-.07-.566-.28-.777s-.491-.283-.842-.283h-1.122l-.56 2.755h1.191c.421 0 .772-.141 1.052-.353s.421-.565.561-.99m9.326 6.781H21.73l2.104-10.666h2.734l-1.612 8.123h4.277zm6.872-10.666h2.594l1.753 10.313v.353h-2.805l-.21-1.695h-3.296l-.841 1.695h-3.015v-.353c.07 0 5.89-10.313 5.89-10.313zm1.192 6.781-.42-3.179-1.614 3.179h2.104zM44.798 28c-1.402 0-2.454-.424-3.295-1.271-.842-.848-1.262-1.978-1.262-3.32 0-1.343 0-.848.14-1.272.28-1.554 1.052-2.826 2.174-3.744s2.454-1.413 3.996-1.413c1.543 0 2.455.424 3.296 1.201q1.262 1.271 1.262 3.179h-2.735c0-.565-.28-1.06-.63-1.342-.351-.353-.842-.495-1.403-.495-.56 0-1.473.283-2.033.777-.561.566-.982 1.272-1.122 2.12 0 .282-.07.494-.07.706 0 .636.21 1.2.56 1.625q.526.635 1.473.635c1.262 0 2.244-.635 2.875-1.907h2.805c-.421 1.413-1.192 2.543-2.244 3.32S46.27 28 44.868 28zm14.936-10.878-.491 2.401h-4.067l-.35 1.696h3.786l-.491 2.33h-3.716l-.35 1.837h4.136l-.49 2.402h-6.872l2.103-10.666zM25.936 1.087c-.56 1.483-1.683 2.684-3.155 3.178-.14 0-.14.212 0 .283 1.473.565 2.665 1.695 3.155 3.179 0 .141.21.141.28 0 .562-1.484 1.684-2.685 3.156-3.179.14 0 .14-.212 0-.283C27.9 3.7 26.708 2.57 26.217 1.087c0-.142-.21-.142-.28 0"/><path fill="url(#b)" d="M19.836 8.857c-1.332 2.755-3.085 5.227-5.259 7.346a8.4 8.4 0 0 1-1.473 1.201c-.84.495-2.734.848-2.874-.565-.07-1.2 0-2.26.21-3.037l-.561.565c-.21.212-.42.423-.56.635-.422.424-.842.848-1.263 1.201-.842.777-1.473 1.413-2.524 1.766-.772.283-1.683.283-2.314-.282-.35-.354-.491-.777-.561-1.272 0-.353-.07-.706-.07-1.06 0-2.613.63-4.803 1.542-7.205.982-2.472 2.034-4.591 3.085-5.863-3.646.777-4.908 4.733-4.978 4.875-.14.211-.42.14-.56.14-.281 0-.772-.494-1.053-.776a3.7 3.7 0 0 1-.56-.777c-.14-.353 0-.636 0-.848s.14-.424.21-.565c.14-.353.35-.706.56-1.06.491-.706.982-1.271 1.543-1.695.561-.494 1.333-.918 2.174-1.2C5.812-.115 6.934-.115 7.916.31c.42.14 1.051.423 1.332.918.42.494.631 1.06.42 1.625-.77 1.836-1.752 3.531-2.524 5.368-1.122 2.402-1.262 2.896-1.963 5.44-.28.918-.42 1.836-.35 2.754 2.383-2.048 4.697-4.026 7.432-11.655.21-.565.49-.99 1.052-1.13.56-.142.911-.071 1.543 0 .63.07.56.635.35 1.2-.841 2.049-2.104 4.804-2.805 10.879 1.964-1.837 3.927-5.016 4.909-7.276.49-1.13.981-2.614 1.332-3.744.28-1.06.56-2.33.35-3.461-.07-.495-.28-1.06.351-1.13.35 0 .771.14.982.353 1.262 1.13 1.122 3.179.841 4.803-.28 1.342-.771 2.543-1.402 3.744zm19.143 2.19c-2.665 1.13-4.137 1.695-4.137 1.766 0-.142.21-.495.28-.636a56 56 0 0 1 1.823-3.532c.14-.283.28-.565.42-.918 0-.142.141-.283.211-.424 0-.07.631-1.554-.631-1.837-.771-.212-1.683.283-1.893.424-.42.212-.912.494-1.332.706-.421.283-1.473.848-2.104 1.272 0 0 0-.141.07-.212.14-.283.28-.636.49-.918.071-.142.141-.354.211-.495 0-.07.07-.141.07-.212v-.564s-.07-.142-.14-.213c-.14-.212-.35-.282-.56-.424-.141-.07-.211-.07-.351-.14h-.561c-.14 0-.28.14-.35.211 0 .07-.141.141-.211.283-.14.212-.28.353-.421.565-.21.353-.35.706-.561 1.06L28.25 8.926c-.21.495-.42 1.06-.63 1.555-1.123.989-3.156 2.684-5.26 3.39.14-.494.491-1.413.631-1.907q.631-1.8 1.473-3.39c0-.142.14-.213.21-.354-.63-.918-1.332-1.483-1.823-1.766 0 .07-.14.141-.14.283-.21.353-.35.706-.561 1.06l-1.052 2.118c-.28.707-.631 1.484-.841 2.19-.14.353-.28.777-.421 1.13-.14.354-.28.777-.28 1.13 0 .354-.14.919.07 1.13.56.566 1.542.848 1.823.848.21 0 .35 0 .49-.07 2.385-.99 3.997-2.614 4.909-3.673 0 .14-.07.282-.14.353-.07.212-.14.353-.14.424-.07.212-.14.494-.211.777 0 .141-.07.282-.07.424v.282c0 .141 0 .141.07.283.14.282 1.963.847 2.244.212l1.052-2.897c.14-.494.28-.918.49-1.412 0-.212.14-.354.21-.495.211-.141 2.245-1.695 2.665-1.907.421-.283.772-.565 1.192-.777 0 0 .07 0 .14-.07.07 0 .211-.142.281-.213-1.332 2.755-2.524 5.157-2.664 5.51s-.561 1.201-.21 1.554c.14.212 1.332.848 1.542.919 1.262.14 2.103-.566 5.048-2.967.982-.777.772-1.554.421-1.413z"/></g><defs><linearGradient id="b" x1="19.696" x2="19.696" y1="18.04" y2="-.114" gradientUnits="userSpaceOnUse"><stop stop-color="#ADFC93"/><stop offset=".5" stop-color="#77DBFF"/><stop offset="1" stop-color="#C79CFF"/></linearGradient><clipPath id="a"><path fill="#fff" d="M0 0h60v28H0z"/></clipPath></defs></svg>