<svg width="109" height="28" viewBox="0 0 109 28" fill="none" xmlns="http://www.w3.org/2000/svg">
  <g clip-path="url(#clip0_122989_407782)">
    <path d="M28.8154 24.4991L34.0182 3.57713L46.2926 2.81909C47.8922 2.93701 51.0913 4.20378 51.0913 8.32752C51.0913 12.008 48.5429 13.3322 46.8579 13.6222C48.0985 13.616 49.6202 14.4704 48.6667 18.0304C47.5599 22.1629 45.2422 24.0647 44.2216 24.4991H28.8154Z" fill="#7C57EB"/>
    <path d="M28.8154 24.4991L34.0182 3.57713L46.2926 2.81909C47.8922 2.93701 51.0913 4.20378 51.0913 8.32752C51.0913 12.008 48.5429 13.3322 46.8579 13.6222C48.0985 13.616 49.6202 14.4704 48.6667 18.0304C47.5599 22.1629 45.2422 24.0647 44.2216 24.4991H28.8154Z" fill="url(#paint0_linear_122989_407782)"/>
    <path d="M56.0388 7.42355C57.1559 2.83999 54.0352 0 47.6659 0H24.3003L19.8096 27.9999H40.2738C48.8738 27.9999 52.7145 24.2185 53.7923 19.7964C54.6923 16.105 52.4388 14.1978 50.1116 13.4278C53.3509 12.4542 55.3752 10.1421 56.038 7.42355H56.0388ZM48.4031 9.63997C47.9638 11.4435 46.6202 12.9771 44.4709 13.6235C46.0152 14.135 47.5102 15.4 46.9131 17.8492C46.1981 20.7828 43.6495 23.2864 37.9438 23.2864H30.096C29.9717 23.2864 29.896 23.1856 29.926 23.0614L30.8995 19.0678L37.6467 19.0599C38.8038 19.0599 39.5738 18.4407 39.8038 17.4985C39.9938 16.7178 39.7738 15.9642 38.5359 15.9642L33.7102 15.9857L34.9467 11.7285L39.8081 11.7385C40.8845 11.7385 41.4324 11.0385 41.5959 10.3657C41.8124 9.47783 41.3988 8.9664 40.2688 8.9664H33.3645L34.3438 4.93856C34.3738 4.81427 34.4995 4.71356 34.6231 4.71356H42.8474C47.0731 4.71356 49.1438 6.59784 48.4023 9.63926L48.4031 9.63997Z" fill="#FAF9FD"/>
    <path d="M25.5167 28H29.3982L36.4981 0H33.3967L21.9082 14.1369L25.5167 28Z" fill="url(#paint1_linear_122989_407782)" fill-opacity="0.1"/>
    <path d="M23.7536 7.01122e-05C23.635 7.01122e-05 23.5107 0.0614985 23.4243 0.162212L19.7736 4.43863L18.2129 0.162212C18.1765 0.0614985 18.0815 7.01122e-05 17.9629 7.01122e-05H7.10506C6.84078 7.01122e-05 6.60792 0.288641 6.69007 0.51364L11.6136 14L0.102228 27.4864C-0.0899143 27.7114 0.00222833 28 0.266513 28H11.1243C11.2429 28 11.3672 27.9386 11.4536 27.8378L15.1043 23.5607L16.67 27.8186C16.7072 27.9193 16.8177 28 16.9356 28H28.4486L23.2643 14L35.2378 0L23.7536 7.01122e-05Z" fill="#7C57EB"/>
    <path d="M23.7536 7.01122e-05C23.635 7.01122e-05 23.5107 0.0614985 23.4243 0.162212L19.7736 4.43863L18.2129 0.162212C18.1765 0.0614985 18.0815 7.01122e-05 17.9629 7.01122e-05H7.10506C6.84078 7.01122e-05 6.60792 0.288641 6.69007 0.51364L11.6136 14L0.102228 27.4864C-0.0899143 27.7114 0.00222833 28 0.266513 28H11.1243C11.2429 28 11.3672 27.9386 11.4536 27.8378L15.1043 23.5607L16.67 27.8186C16.7072 27.9193 16.8177 28 16.9356 28H28.4486L23.2643 14L35.2378 0L23.7536 7.01122e-05Z" fill="url(#paint2_linear_122989_407782)"/>
    <path d="M75.5798 17.6114H67.292C67.1048 17.6114 66.9163 17.7628 66.8706 17.95L66.3034 20.275C66.2577 20.4621 66.3727 20.6135 66.5598 20.6135H78.8198C78.9377 20.6135 79.0327 20.675 79.0698 20.7757C79.0698 20.7757 80.8905 25.8007 81.5219 27.4835C81.6398 27.7971 81.3927 27.9985 81.1069 27.9985H54.0877C53.9006 27.9985 53.7856 27.8471 53.8313 27.6599L60.492 0.339303C60.5377 0.152161 60.7263 0.000732422 60.9134 0.000732422H80.6569C80.9212 0.000732422 80.8941 0.246446 80.8205 0.515731C80.3827 2.12644 79.4519 5.55714 78.9969 7.22357C78.9634 7.34642 78.7862 7.38643 78.6677 7.38643H69.7841C69.597 7.38643 69.4084 7.53785 69.3627 7.725L68.8356 9.88785C68.7898 10.075 68.9048 10.2264 69.092 10.2264H77.3798C77.5669 10.2264 77.682 10.3778 77.6362 10.565L76.0012 17.2728C75.9555 17.46 75.767 17.6114 75.5798 17.6114Z" fill="#FAF9FD"/>
    <path d="M87.9265 7.38649H81.8501C81.5858 7.38649 81.6079 7.15792 81.6858 6.87149C82.1286 5.2465 83.0465 1.84651 83.4815 0.247225C83.5351 0.0507968 83.6758 0.00151121 83.8351 0.000796928C89.9 -0.00134592 108.093 0.00151121 108.093 0.00151121C108.28 0.00151121 108.395 0.152939 108.349 0.340082L106.714 7.04792C106.669 7.23506 106.48 7.38649 106.293 7.38649H99.8043C99.6171 7.38649 99.4286 7.53792 99.3829 7.72506L94.5229 27.6607C94.4772 27.8479 94.2886 27.9993 94.1015 27.9993H83.5793C83.3258 27.9993 83.2772 27.8479 83.3229 27.6607C84.5379 22.6764 88.1829 7.72506 88.1829 7.72506C88.2286 7.53792 88.1136 7.38649 87.9265 7.38649Z" fill="#FAF9FD"/>
  </g>
  <defs>
    <linearGradient id="paint0_linear_122989_407782" x1="11.8056" y1="13.6591" x2="47.5934" y2="11.8973" gradientUnits="userSpaceOnUse">
      <stop stop-color="#FF5C13"/>
      <stop offset="1" stop-color="#5E2CE6"/>
    </linearGradient>
    <linearGradient id="paint1_linear_122989_407782" x1="31.9319" y1="15.658" x2="23.3121" y2="14.0015" gradientUnits="userSpaceOnUse">
      <stop stop-color="#463185" stop-opacity="0"/>
      <stop offset="1" stop-color="#220C64"/>
    </linearGradient>
    <linearGradient id="paint2_linear_122989_407782" x1="8.49111" y1="16.3746" x2="35.2378" y2="16.3746" gradientUnits="userSpaceOnUse">
      <stop stop-color="#FF5C13"/>
      <stop offset="1" stop-color="#7C57EB"/>
    </linearGradient>
    <clipPath id="clip0_122989_407782">
      <rect width="108.359" height="28" fill="white"/>
    </clipPath>
  </defs>
</svg>
